<?xml version="1.0" encoding="utf-8"?>
<!-- Generator: Adobe Illustrator 15.0.2, SVG Export Plug-In . SVG Version: 6.00 Build 0)  -->
<!DOCTYPE svg PUBLIC "-//W3C//DTD SVG 1.1//EN" "http://www.w3.org/Graphics/SVG/1.1/DTD/svg11.dtd">
<svg version="1.1" id="Layer_1" xmlns="http://www.w3.org/2000/svg" xmlns:xlink="http://www.w3.org/1999/xlink" x="0px" y="0px"
	 width="472px" height="130px" viewBox="0 0.321 472 130" enable-background="new 0 0.321 472 130" xml:space="preserve">
<g>
	<g>
		<path fill="#EE9D28" d="M86.706,93.796c-4.027,1.315-8.147,1.975-12.36,1.975c-4.29,0-7.826-0.81-10.611-2.426
			c-3.198-1.883-4.797-4.629-4.797-8.241c0-1.505,0.264-3.142,0.79-4.911c1.271-3.875,3.491-7.525,6.652-10.955
			c-0.812,0.676-1.632,1.378-2.466,2.109c-4.854,4.29-8.108,8.956-9.764,13.999c-0.526,1.768-0.79,3.406-0.79,4.911
			c0,3.613,1.599,6.357,4.797,8.239c2.784,1.619,6.322,2.428,10.612,2.428c4.213,0,8.333-0.659,12.359-1.975
			c3.822-1.283,6.617-3.003,8.395-5.159c-0.14-0.305-0.27-0.615-0.384-0.934C88.378,93.19,87.571,93.505,86.706,93.796z"/>
		<path fill="#EE9D28" d="M96.301,64.25c-1.506-1.637-3.03-2.455-4.573-2.455c-3.385,0-6.924,1.13-10.611,3.387
			c-6.298,3.872-10.3,7.017-12.006,9.432c1.78-1.311,3.919-2.736,6.431-4.278c3.688-2.257,7.224-3.388,10.61-3.388
			c1.543,0,3.067,0.82,4.572,2.455c1.505,1.637,2.577,2.455,3.217,2.455c0.866,0,1.975-0.714,3.33-2.144
			c1.094-1.162,1.811-2.168,2.158-3.021C98.783,66.625,97.741,65.817,96.301,64.25z"/>
		<path fill="#EE9D28" d="M129.944,77.615c0-0.75-0.203-1.585-0.605-2.508c-1.471-3.544-4.094-5.317-7.868-5.317
			c-2.248,0-5.059,0.562-8.431,1.685c-3.229,1.066-6.11,2.351-8.646,3.848c-2.162,1.268-3.415,2.438-3.762,3.503
			c-0.071,0.214-0.101,0.447-0.093,0.697c2.098-1.097,4.403-2.063,6.924-2.896c3.372-1.125,6.181-1.686,8.431-1.686
			c3.774,0,6.398,1.771,7.866,5.317c0.404,0.922,0.606,1.757,0.606,2.508c0,0.675-0.13,1.331-0.378,1.964
			C127.954,82.693,129.944,80.32,129.944,77.615z"/>
		<path fill="#EE9D28" d="M94.278,80.832c0.434-1.38,1.282-2.863,2.551-4.445c0.208-0.265,0.423-0.526,0.643-0.783
			c-2.438,1.798-4.513,3.773-6.219,5.934c-0.725,0.903-1.307,1.773-1.76,2.611c1.479-0.521,2.949-1.049,4.415-1.587
			C93.964,81.988,94.086,81.411,94.278,80.832z"/>
		<path fill="#EE9D28" d="M107.507,95.771c-3.833,0-6.967-1.052-9.402-3.151c-1.301-1.121-2.302-2.451-3.005-3.983
			c-1.375,1.666-3.364,3.071-5.96,4.216c0.115,0.318,0.244,0.63,0.384,0.934c0.704,1.533,1.703,2.861,3.004,3.983
			c2.435,2.099,5.569,3.152,9.404,3.152c5.387,0,10.936-1.785,16.643-5.355c3.214-2.024,5.819-4.25,7.828-6.675
			c-0.713,0.52-1.464,1.028-2.251,1.524C118.445,93.987,112.896,95.771,107.507,95.771z"/>
		<path fill="#EE9D28" d="M141.085,85.483c0-1.153,0.028-2.522,0.088-4.107c0.057-1.7,0.101-2.621,0.129-2.767
			c-1.672,2.478-3.345,5.476-5.015,8.991c-0.255,0.54-0.507,1.022-0.762,1.458c-0.01,0.56-0.016,1.091-0.016,1.575
			c0,6.629,0.922,9.944,2.765,9.944c1.096,0,2.494-0.88,4.194-2.637c0.897-0.949,1.62-1.835,2.174-2.655
			c-0.278,0.089-0.543,0.142-0.789,0.142C142.008,95.425,141.085,92.111,141.085,85.483z"/>
		<path fill="#EE9D28" d="M127.705,94.605c-0.446-0.663-0.67-1.312-0.67-1.947c0-0.459,0.188-0.92,0.562-1.383
			c0.288-0.402,0.592-0.806,0.907-1.208c0.722-1.211,1.83-3.014,3.329-5.405c1.182-1.755,2.854-4.453,5.015-8.083
			c0.778-1.267,1.527-2.537,2.247-3.804c0.773-1.365,1.339-2.571,1.721-3.639c-0.412,0.141-0.896,0.331-1.46,0.576
			c-1.375,0.569-2.282,1.111-2.734,1.624c0.041,0.408,0.065,0.825,0.065,1.252c0,1.296-0.23,2.62-0.691,3.973
			c-1.414,4.379-4.315,8.268-8.7,11.664c-0.378,0.595-0.728,1.127-1.038,1.591c-1.498,2.391-2.608,4.193-3.328,5.401
			c-0.317,0.404-0.619,0.809-0.908,1.212c-0.375,0.461-0.561,0.923-0.561,1.382c0,0.633,0.222,1.282,0.67,1.945
			c0.446,0.662,0.943,0.996,1.492,0.996c0.519,0,1.527-0.779,3.025-2.337c1.05-1.098,1.848-2.041,2.401-2.828
			C128.561,95.532,128.112,95.206,127.705,94.605z"/>
		<path fill="#EE9D28" d="M161.923,90.064c-0.289-2.508-0.433-5.448-0.433-8.819c0-1.154,0.022-1.998,0.064-2.529
			c0.044-0.533,0.094-1.404,0.151-2.615c0-0.172,0.044-0.504,0.13-0.995c0.058-0.316,0.058-0.474,0-0.474
			c-0.197,0-2.111,2.375-5.729,7.113c-0.048,0.957-0.09,1.665-0.127,2.123c-0.043,0.532-0.064,1.376-0.064,2.528
			c0,3.371,0.145,6.311,0.432,8.819c0.434,3.487,1.096,5.231,1.989,5.231c0.863,0,1.974-0.719,3.328-2.161
			c1.089-1.224,1.774-2.229,2.065-3.017C162.927,95.046,162.324,93.313,161.923,90.064z"/>
		<path fill="#EE9D28" d="M169.593,93.999c-0.086-0.26,0.145-1.24,0.692-2.94c0.69-2.161,1.383-4.324,2.074-6.484
			c0.807-2.507,1.412-4.669,1.814-6.484c0.317-1.528,0.879-3.804,1.687-6.833c0.21-0.627,0.392-1.17,0.544-1.63
			c-0.162-0.145-0.343-0.22-0.544-0.22c-0.316,0-0.734,0.084-1.253,0.26c-1.671,1.295-2.725,2.377-3.155,3.241
			c-0.028,0.086-0.418,1.253-1.167,3.502c-0.808,3.025-1.369,5.305-1.686,6.831c-0.078,0.346-0.165,0.708-0.256,1.079
			c0.149,1.679,0.457,2.981,0.928,3.887c0.261,0.548,0.287,1.138,0.087,1.772c-0.26,0.808-0.966,1.859-2.117,3.155
			c-0.789,0.841-1.494,1.427-2.117,1.778c-0.139,0.435-0.275,0.865-0.415,1.299c-0.548,1.699-0.777,2.68-0.691,2.939
			c0.144,0.403,0.554,0.8,1.232,1.19c0.676,0.388,1.231,0.581,1.663,0.581c0.52,0,1.398-1.009,2.638-3.025
			c0.659-1.04,1.159-1.903,1.506-2.588c-0.078-0.04-0.149-0.075-0.23-0.123C170.147,94.8,169.737,94.401,169.593,93.999z"/>
		<path fill="#EE9D28" d="M205.599,69.703c-1.268,0-2.751,0.216-4.454,0.648c-2.362,0.634-5.259,2.089-8.688,4.367
			c-3.223,2.148-5.253,3.982-6.093,5.501c0.17-0.115,0.338-0.231,0.515-0.349c3.43-2.277,6.327-3.733,8.689-4.368
			c1.7-0.433,3.184-0.649,4.452-0.649c1.24,0,2.479,0.627,3.719,1.881c1.239,1.252,2.076,1.88,2.508,1.88
			c0.691,0,1.527-0.534,2.508-1.599c0.807-0.951,1.34-1.788,1.6-2.508c0.234-0.687,0.279-1.292,0.139-1.818
			c-0.341-0.288-0.731-0.655-1.178-1.105C208.077,70.329,206.839,69.703,205.599,69.703z"/>
		<path fill="#EE9D28" d="M192.154,95.858c-3.313,0-6.225-0.664-8.731-1.99c-3.085-1.585-4.626-3.848-4.626-6.787
			c0-0.979,0.188-2.004,0.562-3.07c0.87-2.683,2.312-5.202,4.321-7.551c-0.726,0.58-1.457,1.175-2.202,1.81
			c-0.986,0.836-1.885,1.699-2.705,2.588c-0.617,2.334-1.025,4.324-1.224,5.965c-0.086,0.896-0.231,1.63-0.433,2.203
			c-0.23,0.752-0.895,1.991-1.989,3.72c-0.553,0.898-1.029,1.586-1.438,2.084c0.668,1.712,2.054,3.109,4.157,4.189
			c2.508,1.325,5.419,1.989,8.733,1.989c3.17,0,6.412-0.562,9.727-1.685c4.22-1.453,6.848-3.479,7.888-6.078
			c-0.708,0.33-1.479,0.638-2.312,0.925C198.565,95.294,195.324,95.858,192.154,95.858z"/>
		<path fill="#EE9D28" d="M214.966,85.05c0.489,0,0.893,0.275,1.21,0.821c0.461,0.837,0.793,1.355,0.993,1.557
			c0.185,0.175,0.394,0.32,0.622,0.442c1.477,0.167,2.44,0.281,2.881,0.343c0.078,0.013,0.151,0.028,0.229,0.04
			c1.611-0.097,3.448-0.385,5.521-0.868c2.707-0.605,4.999-1.383,6.873-2.334c-1.815-0.866-4.166-1.525-7.046-1.99
			c-0.808-0.114-3.358-0.402-7.652-0.863c-4.035-0.462-6.614-1.053-7.738-1.773c-0.49-0.315-0.734-0.734-0.734-1.252
			c0-0.259,0.057-0.562,0.172-0.909c0.11-0.33,0.284-0.695,0.512-1.09c-0.93,0.612-1.747,1.151-2.455,1.616
			c-0.692,0.432-1.414,1.138-2.162,2.117c-0.749,0.98-1.238,1.815-1.47,2.507c-0.114,0.346-0.172,0.65-0.172,0.909
			c0,0.519,0.244,0.937,0.734,1.253c0.247,0.157,0.567,0.309,0.952,0.454c0.473-0.185,0.965-0.38,1.483-0.591
			c0.433-0.202,0.82-0.304,1.167-0.304c0.809,0,1.212,0.506,1.212,1.515c0,0.098-0.016,0.197-0.027,0.296
			c0.729,0.12,1.53,0.23,2.405,0.337c0.128-0.175,0.264-0.356,0.415-0.548C213.755,85.613,214.446,85.05,214.966,85.05z"/>
		<path fill="#EE9D28" d="M238.094,67.151c-3.229,0-8.618,2.408-16.169,7.22c0.665,0.119,1.573,0.252,2.718,0.4
			c3.359-1.643,5.988-2.47,7.874-2.47c1.065,0,1.988,0.231,2.767,0.692c0.376,0.232,0.864,0.648,1.469,1.254
			c0.462,0.462,0.851,0.692,1.167,0.692c0.462,0,1.168-0.577,2.119-1.729c0.894-1.066,1.42-1.866,1.578-2.399
			c0.159-0.534,0.239-1.061,0.239-1.578c0-0.216-0.017-0.424-0.041-0.63c-0.372-0.342-0.693-0.599-0.955-0.761
			C240.082,67.385,239.159,67.151,238.094,67.151z"/>
		<path fill="#EE9D28" d="M217.212,95.599c-1.528,0-2.882-0.404-4.064-1.21c-0.719-0.512-1.231-1.116-1.552-1.804
			c-0.001-0.002-0.002-0.003-0.003-0.004c-0.203-0.202-0.533-0.72-0.995-1.558c-0.317-0.547-0.721-0.82-1.21-0.82
			c-0.518,0-1.21,0.56-2.074,1.684c-0.778,0.982-1.253,1.768-1.427,2.357c-0.174,0.592-0.26,1.146-0.26,1.664
			c0,1.498,0.647,2.709,1.945,3.632c1.182,0.806,2.536,1.211,4.063,1.211c3.344,0,7.161-0.75,11.456-2.25
			c4.871-1.729,8.544-3.89,11.024-6.484c0.638-0.668,1.145-1.313,1.53-1.931c-1.961,1.221-4.286,2.31-6.979,3.264
			C224.375,94.849,220.557,95.599,217.212,95.599z"/>
		<path fill="none" d="M217.791,87.871c0.524,0.28,1.166,0.423,1.929,0.423c0.376,0,0.774-0.015,1.182-0.04
			c-0.078-0.013-0.151-0.028-0.229-0.039C220.231,88.15,219.268,88.037,217.791,87.871z"/>
		<path fill="none" d="M123.762,80.258c-1.47-3.546-4.094-5.317-7.867-5.317c-2.248,0-5.059,0.561-8.431,1.686
			c-2.52,0.833-4.826,1.799-6.925,2.896c0.014,0.55,0.215,1.18,0.613,1.897c2.42,4.467,5.75,6.699,9.985,6.699
			c3.458,0,7.247-0.893,11.37-2.68c0.523-0.231,1.014-0.469,1.48-0.709c0.248-0.634,0.378-1.289,0.378-1.964
			C124.368,82.016,124.165,81.18,123.762,80.258z"/>
		<path fill="#F0AD4F" d="M154.617,75.841l5.36-6.831c0.213-0.269,0.415-0.523,0.61-0.768c-1.307,0.596-2.165,1.102-2.557,1.511
			c-0.576,0.604-1.787,2.074-3.632,4.41l-5.36,6.831c-0.346,0.445-0.678,0.873-0.999,1.286c0.028,0.83,0.072,1.467,0.135,1.904
			C149.242,82.773,151.39,79.993,154.617,75.841z"/>
		<path fill="#D3332E" stroke="#FFFFFF" stroke-width="2" stroke-miterlimit="10" d="M135.997,76.558
			c0.46-1.353,0.691-2.677,0.691-3.973c0-0.428-0.023-0.845-0.066-1.252c-0.257-2.448-1.278-4.542-3.069-6.281
			c-2.09-2.029-4.719-3.043-7.889-3.043c-4.582,0-9.656,1.352-15.218,4.057c-5.474,2.614-9.8,5.791-12.976,9.537
			c-0.219,0.258-0.434,0.519-0.644,0.782c-1.267,1.583-2.116,3.066-2.551,4.446c-0.193,0.58-0.313,1.156-0.369,1.728
			c0.457-0.169,0.919-0.333,1.376-0.504c1.204,0,1.807,0.677,1.807,2.033c0,0.45-0.057,0.865-0.169,1.242
			c-0.384,1.197-0.993,2.3-1.823,3.306c0.704,1.533,1.704,2.863,3.005,3.983c2.436,2.099,5.57,3.151,9.402,3.151
			c5.39,0,10.938-1.784,16.645-5.353c0.788-0.496,1.539-1.004,2.252-1.523c0.305-0.222,0.602-0.446,0.894-0.673
			C131.681,84.826,134.581,80.937,135.997,76.558z M123.988,84.73c-0.467,0.241-0.957,0.479-1.48,0.709
			c-4.122,1.787-7.911,2.68-11.37,2.68c-4.235,0-7.565-2.233-9.985-6.698c-0.398-0.717-0.6-1.347-0.613-1.899
			c-0.007-0.25,0.022-0.483,0.094-0.696c0.347-1.066,1.599-2.233,3.762-3.503c2.535-1.498,5.418-2.781,8.646-3.848
			c3.371-1.123,6.182-1.685,8.43-1.685c3.775,0,6.398,1.773,7.868,5.317c0.402,0.924,0.605,1.757,0.605,2.508
			C129.944,80.32,127.954,82.693,123.988,84.73z"/>
		<path fill="#D3332E" stroke="#FFFFFF" stroke-width="2" stroke-miterlimit="10" d="M167.241,93.135
			c1.151-1.297,1.858-2.349,2.117-3.157c0.201-0.633,0.173-1.225-0.087-1.773c-0.471-0.902-0.779-2.205-0.929-3.885
			c-0.069-0.785-0.109-1.644-0.109-2.599c0-0.75,0.028-1.702,0.087-2.854c0.057-1.584,0.087-2.463,0.087-2.636
			c0.027-0.979,0.243-2.608,0.647-4.884c0.346-2.161,0.52-3.833,0.52-5.016c0-2.708-0.418-4.093-1.254-4.149
			c-2.566,1.01-4.136,1.814-4.712,2.422c-0.51,0.535-1.519,1.749-3.022,3.639c-0.195,0.246-0.397,0.501-0.609,0.769l-5.36,6.83
			c-3.229,4.152-5.374,6.933-6.441,8.343c-0.062-0.44-0.105-1.076-0.134-1.906c-0.054-1.513-0.051-3.67,0.005-6.48
			c0.086-4.496,0.26-7.371,0.518-8.625c0.261-1.253,0.391-1.995,0.391-2.225c0-0.834-0.433-1.254-1.297-1.254
			c-0.491,0-1.398,0.288-2.725,0.865c-1.528,0.635-2.486,1.232-2.874,1.794c-0.391,0.56-0.757,1.36-1.104,2.398
			c-0.039,0.123-0.094,0.256-0.138,0.382c-0.382,1.067-0.947,2.273-1.721,3.639c-0.72,1.268-1.47,2.538-2.248,3.804
			c-2.161,3.633-3.832,6.327-5.014,8.084c-1.499,2.392-2.607,4.193-3.329,5.403c-0.317,0.404-0.619,0.81-0.908,1.21
			c-0.374,0.463-0.562,0.925-0.562,1.384c0,0.634,0.225,1.283,0.67,1.947c0.406,0.602,0.855,0.927,1.343,0.983
			c0.049,0.005,0.099,0.012,0.148,0.012c0.519,0,1.527-0.778,3.025-2.334c1.238-1.296,2.133-2.379,2.682-3.245
			c0.206-0.283,0.414-0.608,0.622-0.964c0.254-0.435,0.507-0.917,0.762-1.457c1.669-3.516,3.343-6.513,5.015-8.992
			c-0.029,0.146-0.073,1.066-0.13,2.767c-0.058,1.585-0.087,2.956-0.087,4.108c0,6.627,0.923,9.941,2.768,9.941
			c0.246,0,0.512-0.05,0.788-0.141c0.955-0.307,2.089-1.135,3.405-2.497c1.469-1.556,2.477-2.939,3.024-4.149
			c1.384-1.931,2.421-3.387,3.112-4.368c0.688-0.908,1.326-1.747,1.923-2.525c3.617-4.74,5.532-7.114,5.729-7.114
			c0.058,0,0.058,0.157,0,0.474c-0.085,0.492-0.13,0.821-0.13,0.995c-0.058,1.21-0.108,2.083-0.151,2.615
			c-0.043,0.533-0.064,1.377-0.064,2.529c0,3.371,0.145,6.311,0.433,8.819c0.402,3.248,1.004,4.98,1.808,5.203
			c0.059,0.016,0.119,0.027,0.182,0.027c0.36,0,0.766-0.132,1.212-0.382C165.746,94.562,166.451,93.975,167.241,93.135z"/>
		<path fill="#D3332E" stroke="#FFFFFF" stroke-width="2" stroke-miterlimit="10" d="M177.114,89.026
			c0.202-0.575,0.347-1.309,0.433-2.203c0.197-1.642,0.606-3.63,1.224-5.965c0.467-1.763,1.052-3.723,1.76-5.881
			c0.922-2.42,1.656-4.235,2.205-5.446c0.087-0.287,0.129-0.792,0.129-1.513c0-0.922-0.102-1.744-0.301-2.465
			c-0.26-0.864-0.634-1.296-1.126-1.296c-0.317,0-0.733,0.086-1.252,0.26c-1.672,1.297-2.725,2.378-3.156,3.242
			c-0.021,0.062-0.229,0.688-0.625,1.871c-0.152,0.46-0.332,1.002-0.542,1.63c-0.808,3.027-1.371,5.305-1.688,6.833
			c-0.403,1.814-1.009,3.977-1.814,6.484c-0.691,2.162-1.384,4.323-2.075,6.484c-0.549,1.701-0.778,2.682-0.692,2.94
			c0.145,0.402,0.557,0.8,1.232,1.189c0.08,0.046,0.152,0.082,0.229,0.121c0.57,0.305,1.054,0.465,1.435,0.465
			c0.287,0,0.689-0.322,1.198-0.944c0.409-0.495,0.887-1.186,1.438-2.083C176.222,91.016,176.884,89.777,177.114,89.026z"/>
		<path fill="#D3332E" stroke="#FFFFFF" stroke-width="2" stroke-miterlimit="10" d="M208.884,85.136
			c-0.346,0-0.734,0.101-1.167,0.303c-0.52,0.211-1.011,0.405-1.483,0.591c-1.782,0.699-3.237,1.209-4.353,1.526
			c-1.931,0.491-3.891,0.735-5.879,0.735c-2.651,0-4.842-0.431-6.571-1.296c-1.932-1.008-3.084-2.493-3.459-4.453
			c-0.085-0.579-0.058-1.125,0.087-1.644c0.072-0.219,0.177-0.446,0.308-0.68c0.84-1.52,2.868-3.354,6.092-5.502
			c3.431-2.276,6.326-3.731,8.688-4.367c1.7-0.431,3.185-0.649,4.453-0.649c1.24,0,2.479,0.628,3.718,1.881
			c0.445,0.451,0.836,0.818,1.179,1.106c0.607,0.514,1.052,0.775,1.329,0.775c0.692,0,1.527-0.534,2.508-1.6
			c0.807-0.951,1.341-1.788,1.6-2.507c0.346-1.009,0.288-1.845-0.173-2.507c-1.095-1.441-1.931-2.492-2.508-3.156
			c-0.893-1.181-2.22-1.771-3.977-1.771c-6.025,0-13.431,3.732-22.221,11.196c-1.264,1.073-2.385,2.188-3.375,3.343
			c-2.008,2.349-3.45,4.866-4.321,7.552c-0.375,1.065-0.562,2.089-0.562,3.069c0,2.938,1.541,5.202,4.626,6.786
			c2.507,1.327,5.418,1.99,8.731,1.99c3.172,0,6.412-0.562,9.727-1.686c0.833-0.286,1.604-0.597,2.312-0.927
			c3.068-1.435,4.98-3.287,5.73-5.557c0.08-0.247,0.123-0.493,0.146-0.741c0.011-0.1,0.026-0.198,0.026-0.297
			C210.095,85.642,209.69,85.136,208.884,85.136z"/>
		<path fill="#D3332E" stroke="#FFFFFF" stroke-width="2" stroke-miterlimit="10" d="M237.444,77.354
			c-2.506-1.065-5.475-1.772-8.904-2.117c-1.517-0.17-2.812-0.324-3.896-0.465c-1.145-0.148-2.053-0.282-2.718-0.4
			c7.55-4.813,12.94-7.22,16.168-7.22c1.066,0,1.989,0.231,2.768,0.692c0.261,0.162,0.581,0.418,0.954,0.761
			c0.163,0.148,0.332,0.309,0.516,0.493c0.46,0.462,0.849,0.692,1.167,0.692c0.459,0,1.168-0.577,2.119-1.729
			c0.893-1.066,1.418-1.866,1.576-2.399c0.159-0.533,0.239-1.059,0.239-1.579c0-1.354-0.476-2.528-1.427-3.522
			c-0.951-0.994-2.061-1.492-3.329-1.492c-2.103,0-5.259,0.966-9.467,2.896c-3.516,1.615-6.528,3.257-9.036,4.93
			c-4.553,2.998-7.97,5.245-10.246,6.743c-0.69,0.432-1.411,1.139-2.16,2.118c-0.393,0.514-0.708,0.983-0.959,1.417
			c-0.228,0.396-0.4,0.762-0.512,1.09c-0.114,0.345-0.172,0.65-0.172,0.908c0,0.519,0.244,0.937,0.735,1.252
			c1.125,0.72,3.702,1.312,7.738,1.773c4.294,0.461,6.845,0.749,7.651,0.863c2.882,0.465,5.23,1.125,7.046,1.991
			c-1.873,0.95-4.165,1.729-6.872,2.334c-2.072,0.482-3.908,0.769-5.521,0.867c-0.407,0.025-0.805,0.042-1.182,0.042
			c-0.763,0-1.403-0.146-1.929-0.423c-0.229-0.121-0.438-0.268-0.622-0.441c-0.2-0.202-0.533-0.72-0.993-1.558
			c-0.318-0.546-0.721-0.82-1.212-0.82c-0.519,0-1.208,0.561-2.074,1.685c-0.15,0.191-0.287,0.372-0.415,0.547
			c-0.533,0.728-0.873,1.333-1.012,1.81c-0.173,0.59-0.26,1.146-0.26,1.664c0,0.667,0.137,1.273,0.393,1.827
			c0.321,0.688,0.834,1.292,1.552,1.805c1.183,0.807,2.536,1.209,4.065,1.209c3.343,0,7.161-0.749,11.457-2.247
			c2.691-0.957,5.016-2.044,6.978-3.265c1.588-0.986,2.937-2.061,4.045-3.218c1.182-1.242,1.931-2.393,2.249-3.46
			C242.777,80.928,241.278,78.912,237.444,77.354z"/>
		<path fill="#D3332E" stroke="#FFFFFF" stroke-width="2" stroke-miterlimit="10" d="M58.938,85.104
			c0,3.613,1.599,6.358,4.797,8.242c2.785,1.617,6.321,2.426,10.611,2.426c4.214,0,8.333-0.658,12.36-1.976
			c0.866-0.29,1.672-0.606,2.434-0.941c2.596-1.146,4.586-2.55,5.96-4.216c0.83-1.008,1.438-2.111,1.822-3.308
			c0.112-0.376,0.169-0.789,0.169-1.242c0-1.354-0.603-2.033-1.806-2.033c-0.457,0.171-0.918,0.336-1.377,0.504
			c-1.466,0.54-2.935,1.068-4.414,1.589c-0.609,0.215-1.217,0.433-1.829,0.645c-2.559,0.884-5.118,1.327-7.678,1.327
			c-3.159,0-5.775-0.583-7.845-1.75c-2.256-1.243-3.594-3.104-4.006-5.588c-0.15-0.902-0.095-1.787,0.17-2.652
			c0.15-0.468,0.421-0.976,0.805-1.518c1.707-2.415,5.707-5.559,12.007-9.432c3.688-2.257,7.225-3.387,10.611-3.387
			c1.542,0,3.067,0.818,4.572,2.455c1.44,1.568,2.482,2.375,3.129,2.441c0.029,0.002,0.062,0.014,0.088,0.014
			c0.864,0,1.976-0.716,3.33-2.145c1.203-1.279,1.955-2.371,2.259-3.274c0.111-0.376,0.168-0.753,0.168-1.13
			c0-0.791-0.603-2.012-1.805-3.668l-2.371-3.273c-1.016-0.979-2.39-1.468-4.119-1.468c-7.376,0-16.538,4.817-27.488,14.449
			c-1.125,0.993-2.159,2.008-3.111,3.043c-3.161,3.43-5.381,7.081-6.652,10.954C59.201,81.962,58.938,83.598,58.938,85.104z"/>
	</g>
	<path fill="none" d="M333.189,72.222c-0.128-0.275-0.294-0.411-0.496-0.411c-1.096,0-3.552,1.52-7.37,4.56
		c-0.312,0.417-0.51,0.768-0.584,1.052c-0.058,0.174,0.618,0.26,2.031,0.26c1.901,0,3.949-0.132,6.14-0.39
		c0.341-0.04,0.665-0.08,0.98-0.122c-0.032-0.878-0.112-1.814-0.243-2.813C333.473,73.209,333.32,72.495,333.189,72.222z"/>
	<path fill="#F0AD4F" d="M325.324,76.371c3.818-3.039,6.275-4.559,7.37-4.559c0.203,0,0.367,0.136,0.496,0.411
		c0.131,0.273,0.282,0.987,0.455,2.139c0.132,0.998,0.213,1.935,0.244,2.811c0.206-0.027,0.408-0.055,0.604-0.083
		c0.037-3.096,0.314-6.139,0.819-9.103c-1.181,0.757-2.651,1.833-4.414,3.234C328.073,73.471,326.216,75.187,325.324,76.371z"/>
	<g>
		<path fill="#EE9D28" d="M352.98,91.945c-0.833,0.344-2.115,0.812-3.852,1.403c-0.344,0.104-0.64,0.156-0.882,0.156
			c-0.728,0-1.473-0.347-2.237-1.04c-0.762-0.695-1.144-1.42-1.144-2.184c-0.069-0.383-0.019-0.833,0.153-1.354
			c0.104-0.311,0.288-0.789,0.549-1.431c0.26-0.642,0.441-1.136,0.547-1.482c1.282-3.918,2.148-6.625,2.6-8.117
			c0.936-3.085,1.7-5.807,2.289-8.167c0.45-2.011,1.213-5.029,2.288-9.05c0.278-0.881,0.523-1.632,0.741-2.264
			c-0.192-0.215-0.402-0.33-0.636-0.33c-0.277,0-0.675,0.122-1.196,0.363c-2.08,1.736-3.416,3.07-4.005,4.006
			c-0.243,0.406-0.628,1.402-1.146,2.97c0,0.093,0.002,0.18,0.002,0.274c0,9.329-0.52,15.989-1.56,19.976
			c-0.349,1.215-1.146,2.551-2.393,4.006c-1.342,1.61-2.567,2.432-3.68,2.487c-0.007,0.013-0.011,0.03-0.015,0.043
			c-0.104,0.347-0.285,0.842-0.547,1.482c-0.23,0.57-0.396,1.003-0.503,1.312c0.702,1.535,1.457,3.04,2.265,4.515
			c0.309,0.119,0.614,0.181,0.918,0.181c0.242,0,0.536-0.051,0.884-0.154c1.733-0.59,3.018-1.06,3.85-1.403
			c0.208-0.07,3.227-1.131,9.052-3.174c3.711-1.284,6.677-1.927,8.896-1.927c1.388,0,2.429-0.293,3.123-0.882
			c0.416-0.312,0.936-0.989,1.559-2.031c0.521-0.866,0.851-1.509,0.99-1.925c0.067-0.276,0.103-0.502,0.103-0.676
			c0-0.227-0.038-0.439-0.109-0.634c-2.08,0.162-4.69,0.786-7.85,1.877C356.207,90.819,353.189,91.874,352.98,91.945z"/>
		<path fill="#EE9D28" d="M413.136,59.689c-2.254,0-5.149,0.383-8.688,1.145c-5.237,1.146-8.168,1.769-8.793,1.875
			c-1.109,0.172-2.202,0.347-3.278,0.519c-1.246,0.208-2.338,0.52-3.275,0.936c-0.383,0.175-0.719,0.696-1.014,1.56
			c-0.295,0.869-0.443,1.424-0.443,1.667c0,0.312,0.313,0.468,0.937,0.468c0.487,0,1.126-0.121,1.925-0.364
			c1.144-0.348,1.804-0.536,1.977-0.571c4.716-0.938,9.937-1.405,15.66-1.405c1.307,0,2.462,0.028,3.473,0.081
			c0.569-0.34,1.145-0.834,1.729-1.489c1.038-1.047,1.697-1.988,1.978-2.826c0.034-0.174,0.049-0.332,0.049-0.472
			c0-0.34-0.113-0.662-0.336-0.966c-0.071-0.008-0.136-0.014-0.209-0.022C414.079,59.734,413.518,59.689,413.136,59.689z"/>
		<path fill="#EE9D28" d="M383.587,92.206c-0.416,0.102-1.083,0.371-2.002,0.804c-0.92,0.435-1.674,0.704-2.265,0.809
			c-0.556,0-1.492-0.365-2.809-1.094c-1.457-0.764-2.253-1.476-2.392-2.137c0.139-0.277,0.346-0.982,0.624-2.109
			c0.278-1.13,0.487-1.868,0.626-2.215c1.282-3.959,2.15-6.683,2.6-8.177c0.937-3.058,1.7-5.762,2.289-8.126
			c0.415-2.016,1.162-5.018,2.237-9.012c0.232-0.83,0.449-1.681,0.671-2.527c-0.187-0.046-0.361-0.076-0.515-0.076
			c-0.243,0-0.937,0.209-2.08,0.625c-2.047,1.703-3.279,3.057-3.693,4.062c-0.349,1.389-0.712,2.76-1.093,4.114
			c-1.075,3.992-1.818,6.998-2.237,9.01c-0.217,0.869-0.458,1.784-0.72,2.747c0.833,0.043,1.607,0.205,2.315,0.499
			c1.04,0.417,1.561,1.06,1.561,1.926c0,0.175-0.035,0.4-0.104,0.677c-0.14,0.417-0.47,1.059-0.988,1.922
			c-0.625,1.042-1.146,1.721-1.562,2.032c-0.693,0.59-1.734,0.885-3.121,0.885c-0.148,0-0.312,0.012-0.471,0.015
			c-0.464,1.462-1.061,3.321-1.799,5.602c-0.139,0.348-0.346,1.086-0.624,2.214s-0.486,1.832-0.625,2.111
			c0.139,0.659,0.936,1.372,2.393,2.135c1.316,0.728,2.253,1.092,2.809,1.092c0.59-0.103,1.343-0.374,2.263-0.806
			c0.92-0.433,1.588-0.702,2.005-0.806c3.604-0.798,7.334-1.858,11.183-3.172c3.85-1.319,7.161-1.978,9.937-1.978
			c0.104,0,0.312,0.017,0.624,0.053c0.314,0.035,0.555,0.051,0.729,0.051c0.97,0,1.838-0.293,2.602-0.884
			c0.451-0.347,0.987-0.988,1.611-1.925c0.625-0.936,1.007-1.647,1.144-2.134c0.035-0.14,0.052-0.276,0.052-0.416
			c0-0.33-0.146-0.638-0.419-0.934c-2.7,0.055-5.886,0.707-9.569,1.966C390.922,90.346,387.193,91.406,383.587,92.206z"/>
		<path fill="#EE9D28" d="M408.921,73.476c-2.324,0-5.202,0.364-8.635,1.093c-4.162,0.831-8.116,1.491-11.861,1.976
			c-1.109,0.172-1.892,0.348-2.341,0.522c-0.831,0.311-1.387,0.867-1.662,1.664c-0.627,1.871-0.938,2.949-0.938,3.224
			c0,0.225,0.048,0.394,0.12,0.527c1.972-0.282,3.997-0.606,6.075-0.98c6.859-1.603,12.345-2.408,16.435-2.408
			c0.57,0,1.201,0.101,1.884,0.283c0.51-0.332,1.025-0.781,1.55-1.365c0.158-0.175,0.302-0.346,0.442-0.513
			c0.214-1.048,0.506-2.332,0.874-3.836c-0.005-0.001-0.01-0.001-0.013-0.004C410.013,73.537,409.371,73.476,408.921,73.476z"/>
		<path fill="#EE9D28" d="M437.417,77.43c0.45,0.396,1.017,0.897,1.692,1.501c0.241-0.148,0.462-0.283,0.648-0.4
			c4.518-2.871,7.937-5.749,10.27-8.632c-1.102,0.812-2.283,1.624-3.558,2.432C445.046,73.233,442.028,74.933,437.417,77.43z"/>
		<path fill="#EE9D28" d="M431.643,86.638c-1.215-0.833-2.723-1.647-4.527-2.445c-2.151-0.9-3.867-1.353-5.15-1.353
			c-0.207,0-0.293-0.033-0.258-0.103c-0.105,0.14-0.349,0.712-0.73,1.717c-0.791,2.16-1.559,3.917-2.299,5.282
			c0.541,0.184,1.115,0.4,1.728,0.658c1.803,0.798,3.312,1.612,4.526,2.444c1.873,1.249,3.049,2.012,3.538,2.29
			c1.353,0.695,2.791,1.041,4.316,1.041c1.075,0,2.705-0.207,4.89-0.624c0.972-1.494,1.458-2.501,1.458-3.019
			c0-0.417-0.183-0.797-0.547-1.145c-0.364-0.347-0.702-0.694-1.016-1.038c-0.193-0.238-0.399-0.476-0.611-0.719
			c-0.608-0.172-1.204-0.399-1.78-0.698C434.695,88.651,433.518,87.888,431.643,86.638z"/>
		<path fill="#EE9D28" d="M411.042,90.331c0-0.485,0.228-1.386,0.679-2.705c0.275-0.97,0.752-2.411,1.428-4.318
			c0.676-1.907,1.173-3.328,1.482-4.265c0.868-2.568,1.509-4.908,1.927-7.024c0.041-0.227,0.09-0.469,0.141-0.722
			c-0.138,0.169-0.282,0.339-0.44,0.514c-1.216,1.354-2.393,2.029-3.537,2.029c-0.416,0-1.034-0.06-1.86-0.179
			c-0.368,1.507-0.66,2.789-0.874,3.836c-0.052,0.255-0.099,0.495-0.141,0.721c-0.107,0.54-0.229,1.091-0.363,1.659
			c1.317,0.562,1.985,1.204,1.985,1.921c0,0.14-0.017,0.279-0.051,0.416c-0.14,0.488-0.521,1.2-1.144,2.134
			c-0.624,0.936-1.162,1.578-1.612,1.925c-0.413,0.318-0.856,0.544-1.331,0.69c-0.251,0.722-0.549,1.569-0.893,2.545
			c-0.677,1.906-1.152,3.347-1.431,4.318c-0.449,1.318-0.678,2.219-0.678,2.705c0,1.039,0.644,1.786,1.927,2.236
			c1.145,0.45,1.855,0.676,2.133,0.676c1.543,0,3.229-2.229,5.062-6.688c-0.153-0.057-0.311-0.121-0.486-0.188
			C411.685,92.117,411.042,91.371,411.042,90.331z"/>
		<path fill="#EE9D28" d="M429.614,61.198c-0.452,0.105-1.145,1.561-2.08,4.37l-0.401,1.264c2.352-0.178,5.382-0.266,9.089-0.266
			c3.456,0,5.882,0.042,7.285,0.126c2.233-1.166,4.349-2.46,6.343-3.881c1.109-0.797,1.735-1.37,1.875-1.717
			c0.032-0.208,0-0.346-0.104-0.416c-0.384-0.209-3.278-0.312-8.688-0.312C436.376,60.368,431.936,60.645,429.614,61.198z"/>
		<path fill="#EE9D28" d="M416.907,66.764c0.284,0.175,0.513,0.355,0.702,0.537c0.257-1.042,0.543-2.188,0.873-3.448
			c0.139-0.418,0.37-1.067,0.702-1.953c0.33-0.883,0.563-1.55,0.701-2.002c0.046-0.128,0.106-0.267,0.174-0.41
			c-0.006,0-0.011,0.001-0.018,0.002c-1.145,0.14-2.53,1.093-4.161,2.863c-1.296,1.386-2.145,2.51-2.55,3.371
			c0.082,0.01,0.169,0.016,0.248,0.027C414.946,65.907,416.057,66.245,416.907,66.764z"/>
	</g>
	<g>
		<path fill="#EE9D28" d="M271.636,90.129c-2.321,1.251-5.066,2.486-8.235,3.703c-4.017,1.548-6.892,2.324-8.623,2.324
			c-1.215,0-1.823-0.5-1.823-1.495c0-0.517,0.149-1.107,0.443-1.769c0.59-1.362,1.677-4.66,3.26-9.892
			c1.475-4.791,2.451-8.125,2.931-10.005c0.441-2.063,1.197-5.143,2.268-9.232c0.574-1.767,1.206-3.298,1.902-4.593
			c-0.023,0.005-0.051,0.011-0.075,0.017c-3.094,0.81-5.563,4.053-7.404,9.727c-1.07,4.092-1.826,7.167-2.268,9.231
			c-0.479,1.879-1.455,5.214-2.93,10.007c-1.583,5.234-2.671,8.529-3.261,9.892c-0.294,0.664-0.442,1.253-0.442,1.77
			c0,0.993,0.607,1.492,1.824,1.492c1.731,0,4.606-0.773,8.622-2.321c3.17-1.215,5.914-2.452,8.236-3.704
			c7.397-4.007,14.191-9.032,20.386-15.067c0.012-0.051,0.025-0.103,0.037-0.156C281.837,83.923,276.887,87.283,271.636,90.129z"/>
		<path fill="#EE9D28" d="M293.634,64.094c0-1.105-2.376-1.656-7.129-1.656c-1.989,0-4.901,0.074-8.733,0.22
			c-5.158,0.221-7.896,0.479-8.205,0.774c-0.289,0.27-0.895,1.813-1.814,4.618c1.198-0.084,2.676-0.165,4.445-0.24
			c3.83-0.147,6.741-0.22,8.73-0.22c4.756,0,7.131,0.552,7.131,1.657c0,0.895-0.845,2.252-2.525,4.061
			c0.197-0.161,0.392-0.317,0.586-0.479C291.13,68.553,293.634,65.642,293.634,64.094z"/>
		<path fill="#EE9D28" d="M315.45,79.746c-1.933,0-4.326,0.303-7.179,0.909c-3.458,0.69-6.743,1.239-9.856,1.642
			c-0.924,0.145-1.571,0.289-1.945,0.434c-0.69,0.259-1.151,0.719-1.383,1.382c-0.519,1.558-0.778,2.45-0.778,2.683
			c0,0.184,0.04,0.323,0.101,0.434c1.633-0.231,3.316-0.503,5.044-0.81c5.703-1.334,10.26-2.002,13.66-2.002
			c0.473,0,1,0.085,1.564,0.233c0.425-0.275,0.855-0.65,1.289-1.134c0.809-0.892,1.326-1.7,1.558-2.421
			c0.028-0.114,0.042-0.229,0.042-0.345c0-0.289-0.113-0.562-0.331-0.824c-0.064-0.01-0.121-0.015-0.188-0.025
			C316.355,79.797,315.823,79.746,315.45,79.746z"/>
		<path fill="#EE9D28" d="M318.949,68.292c-1.873,0-4.278,0.316-7.219,0.949c-4.353,0.952-6.788,1.47-7.307,1.557
			c-0.924,0.145-1.831,0.289-2.724,0.432c-1.038,0.174-1.946,0.434-2.725,0.778c-0.318,0.146-0.6,0.577-0.844,1.297
			c-0.244,0.721-0.367,1.182-0.367,1.382c0,0.26,0.26,0.391,0.778,0.391c0.401,0,0.937-0.102,1.6-0.304
			c0.951-0.288,1.498-0.447,1.643-0.476c3.919-0.779,8.257-1.168,13.014-1.168c1.087,0,2.046,0.023,2.886,0.066
			c0.472-0.282,0.951-0.693,1.438-1.238c0.864-0.869,1.41-1.651,1.642-2.348c0.028-0.144,0.043-0.276,0.043-0.391
			c0-0.283-0.095-0.551-0.282-0.805c-0.058-0.006-0.111-0.011-0.171-0.019C319.735,68.327,319.266,68.292,318.949,68.292z"/>
		<path fill="#EE9D28" d="M294.395,95.31c-0.346,0.086-0.901,0.309-1.664,0.671c-0.764,0.357-1.392,0.583-1.882,0.67
			c-0.461,0-1.238-0.303-2.334-0.91c-1.209-0.632-1.872-1.224-1.988-1.772c0.116-0.232,0.288-0.815,0.519-1.752
			c0.231-0.94,0.403-1.551,0.52-1.839c1.064-3.292,1.786-5.555,2.16-6.797c0.779-2.539,1.413-4.789,1.902-6.752
			c0.104-0.508,0.239-1.104,0.396-1.765c-1.797,1.751-3.644,3.418-5.539,4.996c-0.014,0.054-0.025,0.106-0.039,0.156
			c-0.154,0.66-0.289,1.255-0.394,1.764c-0.491,1.963-1.124,4.215-1.902,6.753c-0.374,1.243-1.096,3.507-2.162,6.798
			c-0.114,0.287-0.287,0.9-0.518,1.838c-0.23,0.935-0.404,1.522-0.52,1.755c0.115,0.547,0.778,1.137,1.987,1.772
			c1.097,0.606,1.874,0.909,2.336,0.909c0.49-0.086,1.118-0.309,1.881-0.67c0.764-0.36,1.318-0.583,1.664-0.67
			c2.998-0.664,6.096-1.542,9.296-2.637c3.197-1.094,5.951-1.642,8.256-1.642c0.087,0,0.26,0.015,0.52,0.043
			c0.259,0.031,0.46,0.043,0.604,0.043c0.808,0,1.527-0.244,2.162-0.736c0.374-0.288,0.821-0.82,1.34-1.599
			c0.519-0.778,0.835-1.369,0.951-1.774c0.029-0.114,0.043-0.228,0.043-0.346c0-0.27-0.122-0.528-0.351-0.773
			c-2.245,0.043-4.89,0.585-7.951,1.631C300.49,93.769,297.392,94.646,294.395,95.31z"/>
		<path fill="#EE9D28" d="M316.303,93.947c0-0.259,0.043-0.518,0.13-0.778c0.462-1.843,1.831-4.482,4.107-7.909
			c0.172-0.694,0.619-1.341,1.34-1.947c1.982-2.765,4.106-5.324,6.37-7.679c-3.918,3.208-7.483,6.923-10.698,11.149
			c-0.009,0.077-0.01,0.15-0.028,0.227c-0.116,0.403-0.433,0.994-0.952,1.772c-0.52,0.779-0.967,1.312-1.341,1.6
			c-0.14,0.107-0.284,0.196-0.432,0.282c-2.174,3.304-3.491,5.86-3.943,7.66c-0.086,0.257-0.13,0.518-0.13,0.776
			c0,1.038,0.42,1.556,1.255,1.556c0.374,0,0.778-0.072,1.21-0.216c1.268-0.604,2.349-1.702,3.241-3.287
			c0.406-0.736,0.77-1.283,1.089-1.651C316.713,95.486,316.303,94.97,316.303,93.947z"/>
		<path fill="#EE9D28" d="M336.278,88.286c-1.587,0-3.647,0.2-6.183,0.604c-3.431,0.52-5.507,0.821-6.225,0.908
			c-0.461,0.058-1.081,0.793-1.859,2.204c-0.679,1.203-1.466,2.124-2.361,2.763c1.085-0.156,2.706-0.397,4.869-0.722
			c2.536-0.403,4.596-0.606,6.182-0.606c2.679,0,4.134,0.013,4.367,0.043c1.354,0.231,2.031,0.822,2.031,1.774
			c0,0.286-0.042,0.604-0.129,0.949c-0.259,1.066-0.39,1.901-0.39,2.509c0,1.151,0.447,1.728,1.342,1.728
			c0.946,0,1.996-0.688,3.146-2.066c-0.948-3.251-1.615-6.62-1.98-10.08C338.383,88.287,337.446,88.286,336.278,88.286z"/>
		<path fill="none" d="M280.928,67.588c-1.99,0-4.901,0.074-8.732,0.221c-1.77,0.076-3.247,0.156-4.443,0.241
			c-0.086,0.257-0.172,0.52-0.262,0.798c-2.616,8.034-4.071,13.595-4.367,16.693c0.259-0.037,0.7-0.167,1.326-0.388
			c7.377-2.399,14.404-6.351,21.083-11.845c1.681-1.809,2.523-3.167,2.523-4.062C288.059,68.141,285.683,67.588,280.928,67.588z"/>
		<path fill="none" d="M294.869,87.485c0.203,0,0.578-0.072,1.125-0.216c1.199-0.312,2.349-0.594,3.459-0.852
			c-1.729,0.307-3.409,0.58-5.045,0.811C294.5,87.394,294.646,87.485,294.869,87.485z"/>
		<path fill="#D3332E" stroke="#FFFFFF" stroke-width="2" stroke-miterlimit="10" d="M316.571,88.782
			c0.52-0.776,0.836-1.369,0.952-1.771c0.018-0.076,0.02-0.15,0.028-0.226c0.003-0.041,0.014-0.081,0.014-0.121
			c0-0.632-0.62-1.196-1.86-1.687c-0.359-0.14-0.699-0.241-1.029-0.329c-0.565-0.149-1.09-0.233-1.563-0.233
			c-3.401,0-7.957,0.669-13.661,2.002c-1.11,0.257-2.261,0.54-3.458,0.851c-0.549,0.144-0.924,0.216-1.126,0.216
			c-0.223,0-0.37-0.092-0.461-0.256c-0.062-0.112-0.101-0.25-0.101-0.436c0-0.231,0.261-1.124,0.777-2.681
			c0.231-0.664,0.693-1.124,1.384-1.382c0.375-0.146,1.021-0.289,1.944-0.434c3.115-0.403,6.399-0.953,9.858-1.644
			c2.852-0.606,5.244-0.909,7.177-0.909c0.374,0,0.907,0.052,1.6,0.152c0.067,0.01,0.124,0.017,0.187,0.026
			c0.596,0.082,1.056,0.125,1.369,0.125c0.951,0,1.929-0.562,2.939-1.685c0.807-0.894,1.326-1.701,1.557-2.423
			c0.027-0.114,0.043-0.229,0.043-0.344c0-0.519-0.353-0.995-1.059-1.428c-0.708-0.431-1.63-0.713-2.768-0.842
			c-0.477-0.054-1.024-0.097-1.631-0.129c-0.839-0.042-1.799-0.066-2.887-0.066c-4.756,0-9.094,0.389-13.013,1.167
			c-0.145,0.029-0.691,0.188-1.643,0.476c-0.664,0.202-1.197,0.304-1.601,0.304c-0.519,0-0.777-0.131-0.777-0.391
			c0-0.201,0.122-0.663,0.367-1.382c0.244-0.72,0.525-1.151,0.844-1.297c0.777-0.346,1.686-0.604,2.725-0.778
			c0.893-0.144,1.8-0.287,2.724-0.434c0.519-0.086,2.953-0.604,7.307-1.556c2.938-0.634,5.345-0.949,7.219-0.949
			c0.316,0,0.786,0.035,1.404,0.107c0.062,0.007,0.114,0.012,0.173,0.018c0.531,0.06,0.947,0.092,1.232,0.092
			c0.951,0,1.93-0.568,2.939-1.699c0.865-0.87,1.412-1.654,1.644-2.349c0.028-0.145,0.043-0.275,0.043-0.392
			c0-0.55-0.354-1.042-1.059-1.478c-0.708-0.437-1.615-0.719-2.725-0.85c-1.11-0.129-2.631-0.194-4.562-0.194
			c-5.679,0-10.981,0.634-15.909,1.904c-0.247-0.178-0.478-0.331-0.701-0.476c-0.996,2.374-2.615,4.829-4.867,7.366
			c-1.475,1.638-2.991,3.209-4.542,4.721c-0.155,0.661-0.289,1.255-0.396,1.764c-0.49,1.962-1.123,4.213-1.901,6.753
			c-0.376,1.243-1.096,3.506-2.162,6.797c-0.114,0.288-0.286,0.901-0.519,1.84c-0.229,0.936-0.401,1.52-0.518,1.751
			c0.116,0.547,0.777,1.139,1.988,1.773c1.094,0.607,1.873,0.911,2.334,0.911c0.491-0.088,1.118-0.312,1.881-0.67
			c0.764-0.362,1.318-0.584,1.664-0.67c2.998-0.664,6.097-1.543,9.295-2.638c3.061-1.046,5.707-1.588,7.952-1.631
			c0.101-0.003,0.204-0.011,0.308-0.011c0.087,0,0.259,0.016,0.518,0.043c0.261,0.029,0.461,0.044,0.605,0.044
			c0.63,0,1.203-0.154,1.729-0.453c0.147-0.084,0.293-0.174,0.434-0.283C315.607,90.092,316.052,89.562,316.571,88.782z"/>
		<path fill="#D3332E" stroke="#FFFFFF" stroke-width="2" stroke-miterlimit="10" d="M322.012,92.002
			c0.776-1.411,1.396-2.146,1.857-2.203c0.721-0.087,2.796-0.39,6.224-0.907c2.538-0.403,4.599-0.606,6.184-0.606
			c1.169,0,2.106,0.002,2.808,0.01c-0.213-2.029-0.324-4.086-0.324-6.174c0-0.233,0.005-0.466,0.009-0.7
			c-0.195,0.03-0.397,0.057-0.604,0.085c-0.314,0.042-0.639,0.081-0.979,0.121c-2.19,0.259-4.237,0.392-6.14,0.392
			c-1.413,0-2.088-0.087-2.032-0.26c0.077-0.286,0.273-0.638,0.586-1.054c0.893-1.185,2.75-2.9,5.575-5.149
			c1.763-1.402,3.23-2.479,4.414-3.234c0.473-2.791,1.147-5.511,2.006-8.151c-0.522,0.303-1.025,0.689-1.513,1.161
			c-1.356,1.296-2.162,2.045-2.422,2.248c-3.368,2.349-6.507,5.034-9.41,8.057c-2.265,2.356-4.388,4.916-6.37,7.679
			c-0.721,0.604-1.167,1.252-1.341,1.947c-2.276,3.428-3.645,6.066-4.107,7.909c-0.086,0.26-0.129,0.519-0.129,0.78
			c0,1.02,0.409,1.537,1.219,1.553c0.012,0,0.022,0.002,0.036,0.002c0.376,0,0.777-0.073,1.21-0.216
			c0.306-0.147,0.601-0.321,0.882-0.525C320.546,94.125,321.333,93.207,322.012,92.002z"/>
		<path fill="#D3332E" stroke="#FFFFFF" stroke-width="2" stroke-miterlimit="10" d="M259.588,72.994
			c-0.479,1.879-1.457,5.214-2.931,10.005c-1.584,5.232-2.67,8.529-3.261,9.893c-0.294,0.663-0.443,1.254-0.443,1.77
			c0,0.993,0.608,1.494,1.824,1.494c1.731,0,4.605-0.775,8.623-2.323c3.169-1.217,5.914-2.452,8.235-3.704
			c5.251-2.845,10.2-6.206,14.847-10.071c1.897-1.58,3.743-3.246,5.539-4.997c1.552-1.511,3.066-3.083,4.541-4.722
			c2.252-2.535,3.871-4.991,4.869-7.364c0.16-0.382,0.311-0.767,0.438-1.145c0.442-1.254,0.663-2.451,0.663-3.594
			c0.036-3.796-3.852-5.694-11.663-5.694c-10.5,0-17.704,0.498-21.611,1.494c-2.132,0.558-3.967,2.27-5.503,5.134
			c-0.696,1.295-1.33,2.825-1.904,4.593C260.783,67.853,260.028,70.931,259.588,72.994z M285.533,73.309
			c-6.679,5.494-13.705,9.445-21.082,11.845c-0.627,0.221-1.068,0.354-1.326,0.388c0.296-3.097,1.75-8.659,4.366-16.693
			c0.09-0.279,0.177-0.541,0.261-0.799c0.921-2.805,1.525-4.347,1.814-4.618c0.31-0.294,3.048-0.552,8.206-0.773
			c3.832-0.147,6.743-0.22,8.733-0.22c4.754,0,7.129,0.553,7.129,1.657c0,1.547-2.505,4.459-7.516,8.733
			C285.924,72.992,285.728,73.146,285.533,73.309z"/>
	</g>
	<g>
		<path fill="#D3332E" stroke="#FFFFFF" stroke-width="2" stroke-miterlimit="10" d="M344.616,89.682
			c0.769-1.457,1.259-2.792,1.474-4.006c0.641-3.987,0.96-10.647,0.96-19.976c0-0.095,0-0.182,0-0.274
			c-0.008-8.311-0.436-12.472-1.28-12.472c-0.172,0-0.684,0.157-1.538,0.468c-1.025,0.312-1.794,0.503-2.307,0.573
			c-0.769,0.346-1.496,1.058-2.179,2.132c-0.887,1.379-1.455,2.241-1.709,2.592c-0.15,2.38-0.229,4.795-0.229,7.241
			c0,0.116,0.003,0.231,0.004,0.349c1.869-2.24,3.126-3.367,3.76-3.367c0.149,0,0.273,0.166,0.369,0.494
			c0.096,0.331,0.208,1.191,0.337,2.575c0.128,1.562,0.191,3.002,0.191,4.32c0,2.044-0.171,3.274-0.514,3.693
			c-0.568,0.648-1.78,1.172-3.63,1.57c-0.035,0.007-0.072,0.014-0.107,0.023c0.235,2.773,0.571,5.491,1.002,8.147
			c0.542,0.012,0.856,0.023,0.942,0.039c1.004,0.28,1.506,0.99,1.506,2.135c0,0.347-0.031,0.728-0.097,1.144
			c-0.191,1.284-0.288,2.291-0.288,3.019c0,1.1,0.213,1.76,0.631,1.986c0.108,0.058,0.227,0.094,0.363,0.094
			c0.022,0,0.048-0.009,0.071-0.01C343.035,92.115,343.79,91.291,344.616,89.682z"/>
		<path fill="#D3332E" stroke="#FFFFFF" stroke-width="2" stroke-miterlimit="10" d="M374.05,85.961
			c0.416-0.31,0.937-0.99,1.561-2.031c0.52-0.864,0.848-1.507,0.99-1.924c0.067-0.277,0.1-0.501,0.1-0.675
			c0-0.866-0.517-1.509-1.558-1.924c-0.708-0.295-1.482-0.458-2.315-0.501c-0.147-0.01-0.291-0.02-0.442-0.02
			c-3.641,0-9.001,0.989-16.075,2.965c-0.901,0.243-1.525,0.363-1.872,0.363c1.178-5.826,2.635-11.428,4.37-16.802
			c1.109-2.844,1.959-4.977,2.55-6.4l0.154-0.415c0.173-0.418,0.26-1.076,0.26-1.977c0-1.179-0.138-2.22-0.415-3.122
			c-0.311-1.073-0.729-1.612-1.25-1.612c-0.277,0-0.675,0.123-1.195,0.363c-2.08,1.736-3.415,3.07-4.005,4.006
			c-0.2,0.331-0.491,1.054-0.874,2.159c-0.217,0.63-0.464,1.381-0.739,2.262c-1.076,4.024-1.84,7.041-2.291,9.052
			c-0.589,2.359-1.352,5.082-2.287,8.166c-0.452,1.492-1.319,4.199-2.602,8.117c-0.104,0.347-0.285,0.84-0.548,1.483
			c-0.259,0.642-0.442,1.12-0.546,1.432c-0.173,0.517-0.224,0.971-0.154,1.353c0,0.763,0.38,1.491,1.144,2.185
			c0.765,0.695,1.508,1.039,2.238,1.039c0.241,0,0.537-0.052,0.882-0.154c1.734-0.592,3.019-1.062,3.85-1.406
			c0.208-0.069,3.226-1.127,9.052-3.174c3.159-1.09,5.771-1.713,7.85-1.875c0.197-0.017,0.389-0.025,0.575-0.034
			c0.158-0.006,0.319-0.015,0.472-0.015C372.314,86.846,373.355,86.552,374.05,85.961z"/>
		<path fill="#D3332E" stroke="#FFFFFF" stroke-width="2" stroke-miterlimit="10" d="M410.274,84.348
			c0.625-0.935,1.005-1.647,1.145-2.134c0.034-0.137,0.051-0.278,0.051-0.415c0-0.718-0.668-1.36-1.986-1.922
			c-0.083-0.034-0.159-0.073-0.25-0.107c-0.433-0.166-0.842-0.29-1.239-0.396c-0.681-0.179-1.312-0.282-1.881-0.282
			c-4.091,0-9.574,0.806-16.435,2.407c-1.339,0.314-2.726,0.653-4.165,1.029c-0.662,0.172-1.111,0.258-1.355,0.258
			c-0.268,0-0.446-0.109-0.556-0.305c-0.073-0.135-0.121-0.302-0.121-0.527c0-0.276,0.312-1.353,0.938-3.226
			c0.275-0.795,0.833-1.351,1.664-1.665c0.448-0.172,1.229-0.347,2.339-0.521c3.747-0.486,7.699-1.144,11.861-1.975
			c3.435-0.729,6.312-1.093,8.637-1.093c0.449,0,1.092,0.06,1.926,0.183c0.005,0.001,0.008,0.001,0.014,0.003
			c0.824,0.119,1.442,0.178,1.858,0.178c1.146,0,2.323-0.676,3.539-2.028c0.156-0.175,0.302-0.347,0.44-0.515
			c0.221-1.083,0.526-2.42,0.911-3.996c-0.188-0.185-0.419-0.364-0.702-0.538c-0.851-0.519-1.961-0.855-3.328-1.013
			c-0.081-0.011-0.166-0.016-0.249-0.028c-0.514-0.052-1.084-0.094-1.714-0.127c-1.012-0.053-2.166-0.079-3.474-0.079
			c-5.723,0-10.944,0.467-15.659,1.404c-0.173,0.033-0.834,0.226-1.978,0.57c-0.799,0.244-1.439,0.365-1.925,0.365
			c-0.624,0-0.938-0.156-0.938-0.468c0-0.241,0.149-0.797,0.444-1.667c0.294-0.864,0.632-1.385,1.014-1.559
			c0.937-0.417,2.029-0.729,3.275-0.937c1.076-0.171,2.169-0.346,3.278-0.519c0.625-0.104,3.555-0.729,8.793-1.875
			c3.537-0.762,6.432-1.143,8.687-1.143c0.382,0,0.945,0.042,1.691,0.13c0.072,0.009,0.137,0.013,0.205,0.022
			c0.641,0.07,1.142,0.107,1.484,0.107c1.146,0,2.323-0.68,3.538-2.042c1.04-1.046,1.698-1.99,1.977-2.827
			c0.033-0.173,0.052-0.331,0.052-0.471c0-0.663-0.425-1.255-1.275-1.778c-0.85-0.524-1.942-0.863-3.275-1.021
			c-1.336-0.157-3.166-0.236-5.489-0.236c-6.832,0-13.213,0.764-19.143,2.292c-1.597-1.145-2.773-1.719-3.538-1.719
			c-0.242,0-0.937,0.208-2.081,0.625c-2.047,1.702-3.275,3.056-3.693,4.062c-0.135,0.536-0.283,1.057-0.422,1.587
			c-0.221,0.846-0.437,1.696-0.672,2.526c-1.074,3.994-1.82,6.996-2.237,9.012c-0.589,2.361-1.353,5.068-2.289,8.123
			c-0.45,1.495-1.316,4.221-2.6,8.178c-0.14,0.348-0.346,1.086-0.624,2.216c-0.277,1.127-0.484,1.831-0.625,2.108
			c0.141,0.661,0.936,1.374,2.392,2.137c1.318,0.728,2.254,1.093,2.81,1.093c0.589-0.104,1.346-0.374,2.263-0.808
			c0.919-0.434,1.588-0.701,2.004-0.807c3.607-0.796,7.337-1.855,11.186-3.171c3.682-1.262,6.865-1.911,9.565-1.966
			c0.123-0.003,0.249-0.011,0.368-0.011c0.105,0,0.312,0.017,0.625,0.051c0.313,0.036,0.554,0.053,0.729,0.053
			c0.444,0,0.868-0.07,1.271-0.195c0.475-0.146,0.919-0.371,1.331-0.688C409.114,85.928,409.65,85.286,410.274,84.348z"/>
		<path fill="#D3332E" stroke="#FFFFFF" stroke-width="2" stroke-miterlimit="10" d="M426.753,53.292
			c-1.146,0.139-2.533,1.092-4.162,2.861c-1.278,1.367-2.118,2.478-2.531,3.336c-0.067,0.143-0.129,0.282-0.174,0.411
			c-0.139,0.451-0.373,1.118-0.702,2.001c-0.331,0.886-0.563,1.536-0.702,1.952c-0.329,1.261-0.616,2.406-0.873,3.45
			c-0.385,1.577-0.69,2.912-0.911,3.996c-0.052,0.253-0.1,0.495-0.142,0.722c-0.417,2.117-1.06,4.458-1.927,7.024
			c-0.31,0.937-0.806,2.358-1.48,4.266c-0.678,1.906-1.153,3.346-1.431,4.319c-0.451,1.319-0.677,2.22-0.677,2.704
			c0,1.04,0.643,1.787,1.924,2.237c0.174,0.068,0.332,0.13,0.487,0.188c0.858,0.324,1.41,0.49,1.646,0.49
			c1.118,0,2.31-1.171,3.579-3.509c0.74-1.363,1.508-3.122,2.298-5.282c0.383-1.006,0.626-1.578,0.73-1.717
			c-0.035,0.069,0.051,0.104,0.259,0.104c1.283,0,3,0.452,5.15,1.354c1.803,0.797,3.312,1.613,4.526,2.444
			c1.873,1.25,3.053,2.015,3.538,2.29c0.577,0.296,1.171,0.526,1.782,0.697c0.816,0.225,1.661,0.345,2.536,0.345
			c1.074,0,2.705-0.209,4.89-0.625c0.97-1.493,1.455-2.498,1.455-3.018c0-0.416-0.181-0.798-0.547-1.146
			c-0.363-0.345-0.702-0.693-1.013-1.041c-0.833-1.004-1.84-2.096-3.019-3.277c-0.815-0.731-1.533-1.374-2.156-1.93
			c-0.676-0.604-1.242-1.104-1.692-1.5c4.612-2.498,7.63-4.195,9.051-5.098c1.275-0.811,2.458-1.621,3.56-2.434
			c2.081-1.534,3.848-3.069,5.309-4.607c-0.264-4.472-0.996-8.818-2.153-12.988c-1.49-0.103-3.497-0.154-6.037-0.154
			C438.301,52.148,431.504,52.528,426.753,53.292z M451.725,61.095c-0.142,0.348-0.766,0.92-1.876,1.717
			c-1.994,1.421-4.108,2.715-6.342,3.881c-4.909,2.564-10.387,4.512-16.443,5.846c-0.588,0.139-1.037,0.207-1.353,0.207
			c-0.137,0-0.205-0.12-0.205-0.362c0-0.417,0.326-1.595,0.988-3.539l0.639-2.013l0.401-1.265c0.936-2.81,1.628-4.265,2.08-4.37
			c2.322-0.554,6.762-0.833,13.317-0.833c5.41,0,8.306,0.104,8.688,0.311C451.725,60.749,451.757,60.888,451.725,61.095z"/>
	</g>
	<g>
		<g id="XMLID_1_">
			<g>
				<path fill="#010202" d="M444.587,61.568c0-15.111-6.08-28.803-15.921-38.754c14.583,9.923,24.158,26.647,24.158,45.604
					c0,30.457-24.679,55.135-55.129,55.135c-15.344,0-29.223-6.273-39.215-16.395c8.827,6.012,19.49,9.525,30.979,9.525
					C419.902,116.683,444.587,92.013,444.587,61.568z"/>
				<path fill="#010202" d="M397.693,13.303c-30.442,0-55.108,24.686-55.108,55.116c0,15.104,6.067,28.781,15.895,38.739
					c-14.577-9.911-24.144-26.636-24.144-45.59c0-30.45,24.679-55.129,55.122-55.129c15.34,0,29.209,6.258,39.208,16.375
					C419.84,16.809,409.176,13.303,397.693,13.303z"/>
			</g>
			<g>
				<path fill="none" stroke="#010202" stroke-width="5" stroke-miterlimit="10" d="M428.666,22.814
					c9.841,9.951,15.921,23.642,15.921,38.754c0,30.444-24.685,55.115-55.128,55.115c-11.487,0-22.153-3.513-30.979-9.525
					c-14.577-9.911-24.145-26.636-24.145-45.589c0-30.451,24.679-55.129,55.122-55.129C404.797,6.439,418.666,12.697,428.666,22.814
					z"/>
				<path fill="none" stroke="#010202" stroke-width="5" stroke-miterlimit="10" d="M428.666,22.814
					c14.583,9.923,24.158,26.647,24.158,45.604c0,30.457-24.679,55.135-55.129,55.135c-15.344,0-29.223-6.273-39.215-16.395
					c-9.826-9.958-15.894-23.634-15.894-38.74c0-30.43,24.665-55.115,55.109-55.115C409.176,13.303,419.84,16.809,428.666,22.814z"
					/>
			</g>
		</g>
		<g>
			<path fill="#010202" stroke="#010202" stroke-width="2" stroke-miterlimit="10" d="M464.801,108.238
				c1.018,0.833,0.448,3.21-1.269,5.309l-9.85,12.032c-1.718,2.099-3.934,3.126-4.951,2.294l-16.87-13.811
				c-1.016-0.833-0.451-3.208,1.271-5.307l9.848-12.034c1.718-2.096,3.934-3.122,4.951-2.291L464.801,108.238z"/>
			<path fill="#010202" stroke="#010202" stroke-width="2" stroke-miterlimit="10" d="M451.004,88.484
				c1.016,0.832,0.448,3.209-1.271,5.307l-18.143,22.164c-1.719,2.099-3.937,3.127-4.951,2.294l-1.38-1.128
				c-1.018-0.832-0.448-3.208,1.27-5.305l18.145-22.167c1.716-2.098,3.934-3.123,4.951-2.292L451.004,88.484z"/>
		</g>
		<path fill="#448BCA" stroke="#448BCA" stroke-width="3" stroke-miterlimit="10" d="M351.089,53.884
			c-0.678-4.26-0.531-8.845,0.598-13.464c1.551-6.354,4.711-11.804,8.792-15.843c-10.236,1.668-19.476,10.65-22.519,23.122
			c-1.281,5.248-1.297,10.454-0.274,15.183C341.365,58.439,346.05,55.279,351.089,53.884z"/>
	</g>
	<text transform="matrix(1 0 0 1 452.9648 98.9775)" fill="#999999" font-family="'Arial-BoldMT'" font-size="16.3275">®</text>
</g>
<g>
	<g>
		<path fill="#999999" d="M16.088,21.887c-0.042,0-0.105-0.006-0.188-0.017c-0.083,0-0.146,0-0.187,0
			c-0.6,0-1.345,0.212-2.233,0.636c-0.806,0.413-1.679,0.776-2.62,1.095c-0.228,0.13-0.584,0.294-1.069,0.495
			c-0.114,0.048-0.218,0.07-0.311,0.07c-0.155,0-0.341-0.102-0.559-0.3c-0.237-0.225-0.356-0.472-0.356-0.743
			c0-0.094,0.016-0.175,0.046-0.247c0.022-0.151,0.099-0.466,0.234-0.935c0.082-0.294,0.185-0.638,0.31-1.025
			c0.599-2.132,1.023-3.746,1.27-4.839c0.125-0.646,0.348-1.612,0.667-2.896c0.237-0.86,0.404-1.378,0.496-1.557
			c0.176-0.363,0.553-0.858,1.132-1.481c0.165-0.082,0.295-0.124,0.388-0.124c0.288,0,0.435,0.494,0.435,1.484
			c0,0.39-0.026,0.665-0.079,0.83c-0.216,0.577-0.507,1.443-0.868,2.596c-0.786,2.757-1.204,4.552-1.256,5.389
			c0.093,0,0.253-0.042,0.479-0.124c1.994-0.67,3.416-1.007,4.265-1.007c0.247,0,0.532,0.063,0.851,0.194
			c0.381,0.165,0.574,0.377,0.574,0.636c0,0.282-0.181,0.665-0.543,1.148C16.608,21.646,16.315,21.887,16.088,21.887z"/>
		<path fill="#999999" d="M28.893,21.339c-0.103,0.411-0.34,0.865-0.712,1.361c-0.415,0.563-0.792,0.848-1.132,0.848
			c-0.32,0-0.479-0.235-0.479-0.707c0-0.248,0.046-0.589,0.14-1.024c0.03-0.143,0.045-0.271,0.045-0.39
			c0-0.389-0.244-0.631-0.729-0.724c-0.082-0.012-0.604-0.018-1.566-0.018c-0.568,0-1.307,0.081-2.218,0.246
			c-1.23,0.212-1.974,0.336-2.232,0.371c-0.166,0.023-0.388,0.325-0.667,0.901c-0.321,0.646-0.708,1.096-1.162,1.343
			c-0.156,0.059-0.3,0.087-0.434,0.087c-0.3,0-0.451-0.21-0.451-0.637c0-0.105,0.015-0.212,0.046-0.316
			c0.166-0.755,0.657-1.832,1.473-3.234c0.062-0.283,0.222-0.547,0.479-0.795c1.624-2.58,3.509-4.723,5.66-6.431
			c0.093-0.082,0.382-0.39,0.868-0.918c0.331-0.365,0.684-0.607,1.055-0.724c0.248-0.023,0.621-0.089,1.117-0.194
			c0.413-0.107,0.661-0.16,0.742-0.16c0.414,0,0.622,1.444,0.622,4.329C29.358,17.724,29.202,19.985,28.893,21.339z M26.894,17.383
			c0.164-0.142,0.246-0.56,0.246-1.255c0-0.448-0.029-0.936-0.092-1.466c-0.062-0.471-0.118-0.762-0.164-0.876
			c-0.046-0.109-0.106-0.166-0.178-0.166c-0.394,0-1.274,0.622-2.644,1.863c-1.37,1.244-2.105,2.089-2.209,2.535
			c-0.022,0.07,0.222,0.107,0.728,0.107c0.683,0,1.416-0.055,2.201-0.159C25.88,17.823,26.583,17.629,26.894,17.383z"/>
		<path fill="#999999" d="M51.559,15.846c0,0.07-0.011,0.431-0.031,1.075c-0.021,0.472-0.03,0.861-0.03,1.169
			c0,1.224,0.124,2.108,0.372,2.648c0.092,0.224,0.104,0.465,0.03,0.727c-0.092,0.328-0.345,0.759-0.758,1.289
			c-0.486,0.589-0.884,0.884-1.195,0.884c-0.319,0-0.557-0.712-0.713-2.138c-0.102-1.025-0.154-2.227-0.154-3.605
			c0-0.471,0.008-0.814,0.022-1.034c0.016-0.217,0.034-0.573,0.054-1.068c0-0.07,0.017-0.205,0.046-0.405
			c0.021-0.13,0.021-0.196,0-0.196c-0.083,0-0.997,1.313-2.742,3.941c-0.249,0.4-0.621,0.994-1.118,1.784
			c-0.196,0.495-0.558,1.059-1.084,1.695c-0.611,0.718-1.111,1.078-1.504,1.078c-0.661,0-0.992-1.354-0.992-4.063
			c0-0.471,0.009-1.03,0.031-1.679c0.02-0.695,0.036-1.072,0.046-1.131c-0.6,1.012-1.198,2.237-1.797,3.675
			c-0.167,0.4-0.332,0.729-0.497,0.99c-0.197,0.352-0.518,0.794-0.962,1.324c-0.537,0.637-0.897,0.954-1.084,0.954
			c-0.196,0-0.375-0.137-0.536-0.407c-0.161-0.271-0.241-0.537-0.241-0.794c0-0.189,0.068-0.378,0.203-0.567
			c0.104-0.163,0.211-0.329,0.326-0.493c0.259-0.495,0.656-1.229,1.194-2.209c0.423-0.718,1.023-1.818,1.799-3.303
			c0.279-0.519,0.547-1.035,0.806-1.556c0.311-0.623,0.533-1.17,0.667-1.642c0.123-0.424,0.256-0.751,0.395-0.98
			c0.14-0.228,0.483-0.474,1.031-0.731c0.476-0.234,0.802-0.354,0.977-0.354c0.31,0,0.465,0.17,0.465,0.514
			c0,0.094-0.048,0.396-0.141,0.909c-0.092,0.513-0.153,1.686-0.186,3.525c-0.031,1.778-0.017,2.921,0.045,3.426
			c0.382-0.575,1.153-1.712,2.311-3.41l1.922-2.79c0.662-0.954,1.097-1.557,1.302-1.803c0.207-0.247,0.77-0.577,1.69-0.989
			c0.3,0.022,0.451,0.588,0.451,1.696c0,0.483-0.063,1.164-0.188,2.048C51.646,14.779,51.569,15.445,51.559,15.846z"/>
		<path fill="#999999" d="M67.092,10.977c-0.082,0.284-0.278,0.604-0.588,0.959c-0.361,0.463-0.713,0.694-1.054,0.694
			c-0.115,0-0.283-0.017-0.503-0.044c-0.224-0.03-0.392-0.044-0.504-0.044c-0.672,0-1.536,0.13-2.589,0.389
			c-1.56,0.39-2.433,0.602-2.621,0.637c-0.331,0.059-0.656,0.116-0.976,0.177c-0.373,0.07-0.698,0.176-0.977,0.315
			c-0.114,0.06-0.215,0.237-0.303,0.532c-0.086,0.293-0.131,0.482-0.131,0.565c0,0.104,0.093,0.157,0.279,0.157
			c0.144,0,0.335-0.041,0.573-0.124c0.341-0.116,0.537-0.182,0.59-0.192c1.407-0.319,2.962-0.478,4.667-0.478
			c0.671,0,1.211,0.027,1.621,0.08c0.407,0.052,0.738,0.167,0.991,0.343c0.253,0.179,0.379,0.371,0.379,0.584
			c0,0.048-0.005,0.095-0.015,0.143c-0.083,0.293-0.269,0.624-0.559,0.988c-0.362,0.459-0.713,0.688-1.053,0.688
			c-0.125,0-0.31-0.019-0.559-0.06c-0.248-0.042-0.438-0.062-0.574-0.062c-0.692,0-1.55,0.122-2.574,0.37
			c-1.241,0.284-2.419,0.508-3.535,0.672c-0.33,0.06-0.564,0.12-0.697,0.177c-0.249,0.105-0.415,0.295-0.497,0.564
			c-0.187,0.637-0.279,1.003-0.279,1.097c0,0.187,0.066,0.281,0.202,0.281c0.07,0,0.207-0.028,0.402-0.088
			c2.635-0.776,4.681-1.166,6.139-1.166c0.269,0,0.58,0.076,0.931,0.229c0.443,0.199,0.667,0.43,0.667,0.688
			c0,0.048-0.006,0.095-0.017,0.143c-0.042,0.165-0.154,0.406-0.341,0.725c-0.187,0.319-0.347,0.535-0.481,0.653
			c-0.228,0.201-0.486,0.3-0.774,0.3c-0.052,0-0.125-0.006-0.217-0.018c-0.093-0.012-0.157-0.018-0.188-0.018
			c-0.827,0-1.812,0.225-2.96,0.672c-1.148,0.448-2.259,0.807-3.333,1.078c-0.125,0.034-0.324,0.126-0.596,0.273
			c-0.275,0.147-0.5,0.239-0.675,0.273c-0.167,0-0.445-0.125-0.837-0.371c-0.435-0.259-0.67-0.5-0.712-0.727
			c0.042-0.094,0.104-0.333,0.186-0.715c0.083-0.384,0.145-0.633,0.187-0.751c0.382-1.345,0.641-2.271,0.776-2.777
			c0.277-1.038,0.506-1.958,0.681-2.76c0.125-0.685,0.346-1.705,0.667-3.061c0.113-0.459,0.222-0.924,0.325-1.397
			c0.125-0.341,0.491-0.8,1.101-1.378c0.341-0.141,0.548-0.213,0.62-0.213c0.228,0,0.58,0.194,1.056,0.583
			c1.768-0.518,3.669-0.778,5.705-0.778c0.692,0,1.238,0.026,1.636,0.08c0.397,0.053,0.724,0.169,0.976,0.348
			c0.252,0.177,0.38,0.379,0.38,0.604C67.109,10.864,67.104,10.918,67.092,10.977z"/>
		<path fill="#999999" d="M78.876,13.514h-0.047c-0.072,0.472-0.185,1.159-0.34,2.066c-0.113,0.672-0.229,1.341-0.341,2.013
			c-0.134,0.768-0.285,1.432-0.45,1.998c-0.642,2.226-1.574,3.47-2.798,3.737c-1.226,0.264-3.264,0.396-6.115,0.396
			c-1.272,0-2.239-0.105-2.9-0.316c-0.342-0.12-0.511-0.392-0.511-0.813c0-0.214,0.046-0.454,0.139-0.724
			c0.073-0.236,0.145-0.465,0.217-0.689c0.031-0.118,0.06-0.286,0.085-0.504c0.026-0.217,0.054-0.386,0.086-0.503
			c0.082-0.283,0.324-0.682,0.727-1.201c0.476-0.611,0.877-0.918,1.21-0.918c0.206,0,0.31,0.4,0.31,1.203
			c0,0.576-0.038,0.995-0.109,1.253c-0.083,0.271,0.486,0.407,1.705,0.407c0.3,0,0.656-0.009,1.07-0.027
			c0.413-0.018,0.629-0.025,0.652-0.025c1.156,0,2.232-0.101,3.223-0.301c0.29-0.07,0.522-0.26,0.698-0.565
			c0.083-0.155,0.186-0.448,0.311-0.884c0.672-2.332,1.007-4.023,1.007-5.07c0-0.436-0.107-0.653-0.326-0.653
			c-0.288,0-0.736,0.072-1.34,0.221c-0.604,0.146-1.051,0.22-1.341,0.22c-0.559,0-0.914-0.068-1.07-0.212
			c-0.196-0.177-0.32-0.582-0.372-1.219c-0.009-0.118,0-0.229,0.032-0.335c0.092-0.33,0.362-0.666,0.807-1.006
			c0.413-0.343,0.753-0.514,1.022-0.514c0.071,0,0.19,0.043,0.356,0.124c0.166,0.082,0.48,0.124,0.946,0.124
			c1.229,0,2.383-0.194,3.457-0.583c0.124-0.036,0.238-0.052,0.341-0.052c0.237,0,0.516,0.1,0.836,0.298
			c0.362,0.237,0.542,0.489,0.542,0.762c0,0.341-0.206,0.799-0.62,1.378C79.542,13.218,79.175,13.526,78.876,13.514z"/>
		<path fill="#999999" d="M94.611,15.997c-0.621,2.188-2.035,4.074-4.248,5.664c-2.046,1.458-4.035,2.187-5.969,2.187
			c-1.375,0-2.498-0.429-3.372-1.288c-0.875-0.858-1.372-2.013-1.497-3.459c-0.052-0.446-0.01-0.899,0.125-1.357
			c0.155-0.565,0.458-1.171,0.914-1.818c1.158-1.67,2.786-3.075,4.883-4.216c1.994-1.104,3.813-1.656,5.457-1.656
			c1.138,0,2.08,0.415,2.829,1.242c0.75,0.831,1.124,1.856,1.124,3.08C94.86,14.902,94.777,15.443,94.611,15.997z M92.44,16.428
			c0-0.306-0.072-0.646-0.216-1.024c-0.527-1.447-1.468-2.174-2.822-2.174c-0.806,0-1.814,0.23-3.023,0.689
			c-1.157,0.436-2.191,0.96-3.101,1.572c-0.774,0.518-1.225,0.996-1.349,1.429c-0.083,0.284-0.021,0.638,0.186,1.062
			c0.868,1.825,2.062,2.737,3.58,2.737c1.241,0,2.599-0.364,4.078-1.095C91.552,18.73,92.44,17.666,92.44,16.428z"/>
		<path fill="#999999" d="M108.858,11.995c-0.456,1.613-1.788,3.22-4,4.823c-0.425,0.306-1.323,0.882-2.697,1.729
			c0.258,0.262,0.641,0.648,1.147,1.167c0.352,0.398,0.65,0.77,0.898,1.112c0.093,0.118,0.193,0.235,0.303,0.353
			c0.107,0.118,0.163,0.247,0.163,0.389c0,0.177-0.146,0.52-0.435,1.024c-0.651,0.142-1.137,0.212-1.458,0.212
			c-0.454,0-0.882-0.118-1.286-0.354c-0.146-0.094-0.497-0.352-1.054-0.776c-0.362-0.282-0.812-0.559-1.35-0.831
			c-0.642-0.306-1.151-0.459-1.535-0.459c-0.062,0-0.087-0.012-0.077-0.034c-0.031,0.048-0.104,0.24-0.217,0.583
			c-0.641,1.991-1.224,2.987-1.752,2.987c-0.083,0-0.294-0.079-0.635-0.23c-0.382-0.152-0.574-0.407-0.574-0.76
			c0-0.164,0.068-0.473,0.203-0.919c0.083-0.329,0.224-0.818,0.426-1.467c0.203-0.647,0.349-1.131,0.442-1.447
			c0.258-0.873,0.449-1.667,0.573-2.386c0.104-0.623,0.294-1.548,0.574-2.774c0.042-0.141,0.11-0.36,0.209-0.663
			c0.098-0.299,0.167-0.525,0.209-0.679c0.092-0.308,0.361-0.729,0.807-1.271c0.485-0.602,0.898-0.925,1.24-0.973
			c1.417-0.259,3.441-0.389,6.078-0.389c1.168,0,1.965,0.041,2.387,0.124c1.002,0.201,1.505,0.652,1.505,1.36
			C108.953,11.622,108.92,11.806,108.858,11.995z M106.425,13c0.01-0.069,0-0.117-0.031-0.142c-0.114-0.07-0.978-0.105-2.589-0.105
			c-1.953,0-3.277,0.095-3.969,0.283c-0.135,0.035-0.341,0.53-0.621,1.484l-0.309,1.113c-0.198,0.66-0.295,1.059-0.295,1.201
			c0,0.082,0.019,0.124,0.062,0.124c0.093,0,0.229-0.024,0.404-0.07c2.625-0.66,4.888-1.762,6.79-3.304
			C106.198,13.314,106.384,13.12,106.425,13z"/>
		<path fill="#999999" d="M125.835,11.448c-0.247,0.422-0.444,0.712-0.589,0.865c-0.239,0.247-0.518,0.359-0.838,0.336
			c-0.166-0.013-0.28-0.019-0.341-0.019c-0.176,0-0.646,0.052-1.412,0.158c-0.506,0.07-0.972,0.854-1.395,2.352
			c-0.622,2.189-1.013,3.95-1.179,5.282c-0.052,0.364-0.114,0.67-0.186,0.917c-0.074,0.271-0.294,0.754-0.667,1.448
			c-0.464,0.849-0.821,1.261-1.069,1.236c-0.62-0.163-0.93-0.505-0.93-1.023c0-0.2,0.041-0.478,0.124-0.832
			c0.082-0.258,0.213-0.662,0.395-1.209c0.182-0.547,0.312-0.95,0.396-1.208c0.95-3.346,1.427-5.413,1.427-6.202
			c0-0.154-0.017-0.23-0.046-0.23c-0.199,0-0.593,0.116-1.188,0.345c-0.594,0.229-1.02,0.345-1.278,0.345
			c-0.228,0-0.399-0.206-0.511-0.618c-0.094-0.294-0.141-0.614-0.141-0.955c0-0.118,0.006-0.194,0.017-0.229
			c0.124-0.412,0.438-0.792,0.946-1.14c0.505-0.348,0.934-0.491,1.287-0.432c1.57-0.531,3.26-0.796,5.069-0.796
			c1.571,0,2.356,0.307,2.356,0.919C126.083,10.944,126.001,11.175,125.835,11.448z"/>
		<path fill="#999999" d="M129.075,12.666c-0.197,0.495-0.461,1.235-0.791,2.224c-0.588,2.05-0.946,3.664-1.07,4.841
			c-0.032,0.366-0.083,0.666-0.156,0.9c-0.083,0.307-0.319,0.813-0.712,1.519c-0.443,0.825-0.758,1.237-0.945,1.237
			c-0.155,0-0.354-0.08-0.598-0.239c-0.242-0.158-0.389-0.322-0.44-0.487c-0.031-0.103,0.052-0.503,0.249-1.199
			c0.25-0.885,0.497-1.766,0.744-2.65c0.291-1.025,0.506-1.909,0.651-2.651c0.114-0.624,0.314-1.553,0.604-2.792
			c0.27-0.918,0.408-1.396,0.419-1.431c0.155-0.354,0.532-0.796,1.132-1.326c0.187-0.069,0.334-0.105,0.45-0.105
			c0.176,0,0.311,0.178,0.404,0.53c0.071,0.294,0.108,0.631,0.108,1.007C129.122,12.343,129.106,12.548,129.075,12.666z"/>
		<path fill="#999999" d="M143.06,10.977c-0.083,0.284-0.28,0.604-0.59,0.959c-0.362,0.463-0.714,0.694-1.054,0.694
			c-0.114,0-0.282-0.017-0.504-0.044c-0.222-0.03-0.391-0.044-0.503-0.044c-0.672,0-1.536,0.13-2.59,0.389
			c-1.56,0.39-2.434,0.602-2.619,0.637c-0.331,0.059-0.657,0.116-0.977,0.177c-0.373,0.07-0.697,0.176-0.976,0.315
			c-0.114,0.06-0.216,0.237-0.303,0.532c-0.087,0.293-0.13,0.482-0.13,0.565c0,0.104,0.092,0.157,0.277,0.157
			c0.144,0,0.335-0.041,0.574-0.124c0.341-0.116,0.538-0.182,0.588-0.192c1.406-0.319,2.962-0.478,4.667-0.478
			c0.673,0,1.211,0.027,1.62,0.08s0.739,0.167,0.993,0.343c0.253,0.179,0.378,0.371,0.378,0.584c0,0.048-0.004,0.095-0.014,0.143
			c-0.083,0.293-0.269,0.624-0.558,0.988c-0.362,0.459-0.714,0.688-1.055,0.688c-0.124,0-0.311-0.019-0.559-0.06
			c-0.249-0.042-0.438-0.062-0.573-0.062c-0.694,0-1.551,0.122-2.575,0.37c-1.242,0.284-2.418,0.508-3.535,0.672
			c-0.331,0.06-0.564,0.12-0.697,0.177c-0.248,0.105-0.415,0.295-0.497,0.564c-0.186,0.637-0.279,1.003-0.279,1.097
			c0,0.187,0.067,0.281,0.203,0.281c0.071,0,0.207-0.028,0.402-0.088c2.636-0.776,4.683-1.166,6.141-1.166
			c0.269,0,0.579,0.076,0.93,0.229c0.444,0.199,0.667,0.43,0.667,0.688c0,0.048-0.005,0.095-0.017,0.143
			c-0.04,0.165-0.154,0.406-0.34,0.725c-0.187,0.318-0.348,0.535-0.481,0.653c-0.227,0.201-0.486,0.3-0.775,0.3
			c-0.052,0-0.124-0.006-0.216-0.018c-0.095-0.012-0.157-0.018-0.188-0.018c-0.828,0-1.814,0.225-2.961,0.672
			c-1.148,0.448-2.259,0.807-3.334,1.078c-0.124,0.034-0.323,0.126-0.596,0.273c-0.275,0.147-0.498,0.239-0.674,0.273
			c-0.167,0-0.444-0.125-0.837-0.371c-0.436-0.259-0.672-0.5-0.713-0.727c0.041-0.094,0.104-0.333,0.187-0.715
			c0.083-0.384,0.144-0.633,0.185-0.751c0.383-1.345,0.642-2.271,0.776-2.777c0.278-1.038,0.507-1.958,0.683-2.76
			c0.124-0.685,0.345-1.705,0.667-3.061c0.114-0.459,0.223-0.924,0.324-1.397c0.126-0.341,0.492-0.8,1.102-1.378
			c0.34-0.141,0.547-0.213,0.62-0.213c0.228,0,0.58,0.194,1.054,0.583c1.768-0.518,3.67-0.778,5.706-0.778
			c0.692,0,1.237,0.026,1.636,0.08c0.396,0.053,0.724,0.169,0.977,0.348c0.252,0.177,0.379,0.379,0.379,0.604
			C143.076,10.864,143.069,10.918,143.06,10.977z"/>
		<path fill="#999999" d="M154.269,12.029c-0.488,1.709-0.946,4.116-1.381,7.226c-0.104,0.729-0.222,1.349-0.356,1.855
			c-0.104,0.33-0.283,0.749-0.542,1.254c-0.342,0.626-0.62,0.959-0.838,1.007c-0.176,0.036-0.331,0.054-0.463,0.054
			c-0.342,0-0.601-0.103-0.776-0.301c-0.124-0.165-0.249-0.337-0.372-0.513c-0.187-0.224-0.399-0.542-0.636-0.955
			c-0.29-0.553-0.476-0.889-0.558-1.006c-0.434-0.66-0.931-1.49-1.488-2.491l-1.691-2.968c-0.061,0.224-0.128,0.471-0.201,0.741
			c-0.425,1.46-0.688,2.697-0.791,3.71c-0.042,0.366-0.093,0.673-0.155,0.919c-0.093,0.309-0.335,0.812-0.728,1.521
			c-0.435,0.8-0.745,1.199-0.931,1.199c-0.196,0-0.408-0.082-0.635-0.248c-0.269-0.176-0.403-0.417-0.403-0.723
			c0-0.131,0.042-0.319,0.125-0.565l0.217-0.549c0.02-0.071,0.087-0.358,0.201-0.865c0.29-0.955,0.662-2.379,1.117-4.275
			c0.113-0.636,0.326-1.578,0.635-2.828c0.114-0.472,0.238-0.942,0.373-1.413c0.153-0.34,0.527-0.782,1.116-1.325
			c0.155-0.059,0.32-0.087,0.496-0.087c0.218,0,0.456,0.093,0.713,0.282c0.238,0.176,0.398,0.349,0.482,0.514
			c0.413,0.799,1.136,2.177,2.169,4.131c0.528,0.945,0.9,1.598,1.117,1.962c0.383,0.625,0.666,1.014,0.854,1.167l0.03-0.071
			c0.258-0.895,0.528-2.259,0.813-4.089c0.283-1.83,0.566-3.224,0.846-4.178c0.083-0.306,0.216-0.589,0.402-0.848
			c0.237-0.329,0.491-0.494,0.761-0.494c0.62,0,0.93,0.499,0.93,1.501c0,0.294-0.049,0.593-0.147,0.892
			C154.473,11.473,154.372,11.758,154.269,12.029z"/>
		<path fill="#999999" d="M168.423,13.125c-0.807,1.695-2.083,3.375-3.829,5.035c-1.489,1.389-3.123,2.596-4.9,3.62
			c-0.704,0.4-1.524,0.797-2.465,1.186c-1.148,0.47-1.991,0.706-2.528,0.706c-0.269,0-0.404-0.259-0.404-0.778
			c0-0.188,0.026-0.405,0.079-0.653c0.114-0.353,0.244-0.776,0.387-1.271c0.3-1.049,0.707-2.608,1.226-4.682
			c0.113-0.636,0.319-1.584,0.619-2.844c0.042-0.13,0.107-0.336,0.194-0.619c0.087-0.281,0.146-0.494,0.178-0.637
			c0.103-0.329,0.331-0.706,0.683-1.13c0.393-0.471,0.759-0.748,1.1-0.831c1.21-0.318,2.982-0.478,5.317-0.478
			c1.862,0,3.174,0.188,3.939,0.565c0.517,0.236,0.774,0.671,0.774,1.306C168.794,12.082,168.67,12.583,168.423,13.125z
			 M166.285,13.477c0-0.294-0.332-0.482-0.993-0.563c-0.196-0.012-0.662-0.018-1.396-0.018c-2.511,0-4.082,0.141-4.712,0.424
			c-0.269,0.116-0.496,0.404-0.682,0.865c-0.03,0.093-0.134,0.466-0.308,1.111c-0.663,2.262-1.04,3.894-1.134,4.894
			c0,0.024,0.016,0.036,0.046,0.036c0.126,0,0.321-0.046,0.59-0.143c2.18-0.729,4.331-2.055,6.449-3.974
			C165.571,14.816,166.285,13.937,166.285,13.477z"/>
		<path fill="#999999" d="M178.02,21.339c-0.104,0.411-0.341,0.865-0.713,1.361c-0.415,0.563-0.791,0.848-1.132,0.848
			c-0.321,0-0.48-0.235-0.48-0.707c0-0.248,0.046-0.589,0.14-1.024c0.031-0.143,0.047-0.271,0.047-0.39
			c0-0.389-0.244-0.631-0.729-0.724c-0.083-0.012-0.605-0.018-1.567-0.018c-0.567,0-1.308,0.081-2.218,0.246
			c-1.229,0.212-1.972,0.336-2.232,0.371c-0.165,0.023-0.389,0.325-0.666,0.901c-0.322,0.646-0.709,1.096-1.164,1.343
			c-0.156,0.059-0.3,0.087-0.434,0.087c-0.299,0-0.45-0.21-0.45-0.637c0-0.105,0.017-0.212,0.047-0.316
			c0.165-0.755,0.657-1.832,1.474-3.234c0.06-0.283,0.222-0.547,0.479-0.795c1.623-2.58,3.51-4.723,5.66-6.431
			c0.092-0.082,0.382-0.39,0.867-0.918c0.331-0.365,0.683-0.607,1.055-0.724c0.249-0.023,0.62-0.089,1.116-0.194
			c0.414-0.107,0.661-0.16,0.744-0.16c0.414,0,0.621,1.444,0.621,4.329C178.485,17.724,178.33,19.985,178.02,21.339z M176.02,17.383
			c0.166-0.142,0.249-0.56,0.249-1.255c0-0.448-0.032-0.936-0.093-1.466c-0.062-0.471-0.115-0.762-0.162-0.876
			c-0.047-0.109-0.106-0.166-0.179-0.166c-0.393,0-1.273,0.622-2.643,1.863c-1.37,1.244-2.106,2.089-2.208,2.535
			c-0.021,0.07,0.222,0.107,0.728,0.107c0.684,0,1.417-0.055,2.201-0.159C175.007,17.823,175.711,17.629,176.02,17.383z"/>
		<path fill="#999999" d="M197.663,9.662c0.413-0.069,0.62,0.118,0.62,0.564c0,0.318-0.104,0.725-0.31,1.221
			c-0.188,0.436-0.369,0.766-0.544,0.988c-0.93,1.154-1.87,2.538-2.821,4.151c-0.537,0.896-1.333,2.35-2.387,4.365
			c-0.249,0.494-0.615,1.041-1.102,1.642c-0.61,0.752-1.069,1.147-1.379,1.183c-0.321,0.035-0.595-0.265-0.821-0.899
			c-0.166-0.483-0.26-0.956-0.279-1.413c0-0.824-0.03-2.068-0.093-3.728c0-0.022-0.067-0.631-0.202-1.82
			c-0.104-0.965-0.155-1.642-0.155-2.032c0-0.177,0.01-0.3,0.03-0.371c0.104-0.52,0.374-1.023,0.807-1.518
			c0.434-0.495,0.807-0.741,1.117-0.741c0.259,0,0.402,0.188,0.435,0.564c0,0.059,0.015,0.634,0.046,1.73
			c0.009,0.918,0.025,1.839,0.046,2.756c0.052,1.06,0.156,1.955,0.311,2.686c0.01,0.011,0.015,0.036,0.015,0.069
			c0.548-0.837,1.333-2.102,2.357-3.799c0.422-0.753,0.847-1.5,1.271-2.243c0.496-0.859,0.966-1.59,1.411-2.19
			C196.241,10.544,196.783,10.157,197.663,9.662z"/>
		<path fill="#999999" d="M201.18,12.666c-0.196,0.495-0.459,1.235-0.79,2.224c-0.589,2.05-0.946,3.664-1.069,4.841
			c-0.03,0.366-0.083,0.666-0.155,0.9c-0.083,0.307-0.321,0.813-0.714,1.519c-0.444,0.825-0.759,1.237-0.945,1.237
			c-0.155,0-0.355-0.08-0.598-0.239c-0.244-0.158-0.39-0.322-0.441-0.487c-0.031-0.103,0.051-0.503,0.246-1.199
			c0.249-0.885,0.497-1.766,0.745-2.65c0.29-1.025,0.506-1.909,0.651-2.651c0.113-0.624,0.314-1.553,0.604-2.792
			c0.269-0.918,0.409-1.396,0.418-1.431c0.155-0.354,0.533-0.796,1.131-1.326c0.187-0.069,0.335-0.105,0.45-0.105
			c0.175,0,0.31,0.178,0.402,0.53c0.074,0.294,0.108,0.631,0.108,1.007C201.229,12.343,201.212,12.548,201.18,12.666z"/>
		<path fill="#999999" d="M215.305,11.995c-0.456,1.613-1.788,3.22-4,4.823c-0.425,0.306-1.325,0.882-2.699,1.729
			c0.258,0.262,0.642,0.648,1.147,1.167c0.352,0.398,0.652,0.77,0.899,1.112c0.093,0.118,0.193,0.235,0.304,0.353
			c0.107,0.118,0.162,0.247,0.162,0.389c0,0.177-0.146,0.52-0.434,1.024c-0.652,0.142-1.137,0.212-1.458,0.212
			c-0.456,0-0.882-0.118-1.287-0.354c-0.145-0.094-0.497-0.352-1.055-0.776c-0.362-0.282-0.812-0.559-1.349-0.831
			c-0.642-0.306-1.151-0.459-1.535-0.459c-0.062,0-0.089-0.012-0.078-0.034c-0.03,0.048-0.104,0.24-0.217,0.583
			c-0.641,1.991-1.224,2.987-1.75,2.987c-0.083,0-0.294-0.079-0.637-0.23c-0.381-0.152-0.573-0.407-0.573-0.76
			c0-0.164,0.067-0.473,0.201-0.919c0.083-0.329,0.225-0.818,0.426-1.467c0.201-0.647,0.348-1.131,0.44-1.447
			c0.258-0.873,0.452-1.667,0.574-2.386c0.104-0.623,0.294-1.548,0.574-2.774c0.042-0.141,0.111-0.36,0.208-0.663
			c0.098-0.299,0.168-0.525,0.209-0.679c0.093-0.308,0.362-0.729,0.806-1.271c0.486-0.602,0.9-0.925,1.242-0.973
			c1.416-0.259,3.441-0.389,6.077-0.389c1.167,0,1.963,0.041,2.387,0.124c1.002,0.201,1.504,0.652,1.504,1.36
			C215.398,11.622,215.367,11.806,215.305,11.995z M212.872,13c0.01-0.069,0-0.117-0.03-0.142c-0.113-0.07-0.977-0.105-2.591-0.105
			c-1.952,0-3.275,0.095-3.968,0.283c-0.133,0.035-0.341,0.53-0.62,1.484l-0.309,1.113c-0.197,0.66-0.296,1.059-0.296,1.201
			c0,0.082,0.021,0.124,0.062,0.124c0.094,0,0.228-0.024,0.403-0.07c2.625-0.66,4.888-1.762,6.791-3.304
			C212.644,13.314,212.83,13.12,212.872,13z"/>
		<path fill="#999999" d="M224.948,11.448c-0.248,0.422-0.444,0.712-0.588,0.865c-0.238,0.247-0.518,0.359-0.838,0.336
			c-0.165-0.013-0.278-0.019-0.341-0.019c-0.174,0-0.645,0.052-1.411,0.158c-0.505,0.07-0.97,0.854-1.394,2.352
			c-0.62,2.189-1.014,3.95-1.178,5.282c-0.052,0.364-0.112,0.67-0.186,0.917c-0.072,0.271-0.294,0.754-0.667,1.448
			c-0.466,0.849-0.822,1.261-1.071,1.236c-0.62-0.163-0.93-0.505-0.93-1.023c0-0.2,0.041-0.478,0.124-0.832
			c0.083-0.258,0.214-0.662,0.395-1.209c0.181-0.547,0.313-0.95,0.396-1.208c0.951-3.346,1.426-5.413,1.426-6.202
			c0-0.154-0.014-0.23-0.045-0.23c-0.196,0-0.593,0.116-1.188,0.345c-0.594,0.229-1.02,0.345-1.279,0.345
			c-0.227,0-0.397-0.206-0.512-0.618c-0.092-0.294-0.14-0.614-0.14-0.955c0-0.118,0.006-0.194,0.016-0.229
			c0.124-0.412,0.439-0.792,0.946-1.14c0.507-0.348,0.935-0.491,1.288-0.432c1.572-0.531,3.261-0.796,5.069-0.796
			c1.571,0,2.357,0.307,2.357,0.919C225.197,10.944,225.114,11.175,224.948,11.448z"/>
		<path fill="#999999" d="M235.212,13.161c-0.312,1.059-0.6,2.279-0.869,3.657c-0.279,1.472-0.45,2.667-0.511,3.586
			c-0.033,0.364-0.095,0.704-0.188,1.016c-0.093,0.312-0.306,0.804-0.635,1.474c-0.395,0.766-0.672,1.149-0.837,1.149
			c-0.229,0.012-0.45-0.053-0.666-0.195c-0.248-0.153-0.382-0.364-0.403-0.636c-0.022-0.177,0.072-0.612,0.279-1.307
			c0.052-0.188,0.07-0.307,0.061-0.353c-0.011-0.071-0.079-0.105-0.203-0.105c-0.703,0-2.005,0.353-3.906,1.06
			c-1.364,0.529-2.733,1.064-4.108,1.606c-0.187-0.141-0.375-0.342-0.566-0.602c-0.19-0.258-0.271-0.465-0.24-0.618
			c0.074-0.259,0.207-0.582,0.402-0.972c0.249-0.576,0.393-0.912,0.435-1.007c0.404-0.93,0.982-2.342,1.736-4.24
			c0.445-1.271,0.682-1.961,0.714-2.065c0.298-0.791,0.601-1.468,0.898-2.033c0.167-0.307,0.629-0.726,1.396-1.253
			c0.403-0.083,0.604,0.33,0.604,1.235c0,0.282-0.021,0.501-0.062,0.652c-0.063,0.212-0.14,0.401-0.233,0.567
			c-0.393,0.668-0.872,1.695-1.441,3.072c-0.547,1.32-0.935,2.361-1.163,3.127c-0.031,0.094-0.062,0.224-0.093,0.389
			c0.124,0,0.351-0.063,0.682-0.193c1.23-0.447,2.093-0.761,2.59-0.936c0.96-0.329,1.824-0.583,2.588-0.759
			c0.29-0.059,0.478-0.136,0.566-0.231c0.087-0.093,0.184-0.31,0.288-0.653c0.153-0.553,0.287-1.241,0.401-2.066
			c0.155-1.226,0.243-1.914,0.264-2.067c0.093-0.52,0.249-1.154,0.466-1.908c0.083-0.306,0.484-0.848,1.208-1.626
			c0.166-0.081,0.294-0.123,0.387-0.123c0.188,0,0.326,0.207,0.419,0.619c0.094,0.352,0.14,0.741,0.14,1.165
			c0,0.237-0.019,0.413-0.055,0.531c-0.036,0.118-0.096,0.289-0.178,0.52C235.299,12.868,235.243,13.043,235.212,13.161z"/>
		<path fill="#999999" d="M246.002,21.339c-0.104,0.411-0.34,0.865-0.712,1.361c-0.413,0.563-0.789,0.848-1.133,0.848
			c-0.318,0-0.48-0.235-0.48-0.707c0-0.248,0.046-0.589,0.14-1.024c0.03-0.143,0.046-0.271,0.046-0.39
			c0-0.389-0.243-0.631-0.729-0.724c-0.083-0.012-0.605-0.018-1.565-0.018c-0.57,0-1.308,0.081-2.217,0.246
			c-1.231,0.212-1.974,0.336-2.232,0.371c-0.166,0.023-0.388,0.325-0.667,0.901c-0.32,0.646-0.708,1.096-1.163,1.343
			c-0.155,0.059-0.299,0.087-0.435,0.087c-0.3,0-0.45-0.21-0.45-0.637c0-0.105,0.015-0.212,0.046-0.316
			c0.166-0.755,0.656-1.832,1.474-3.234c0.062-0.283,0.222-0.547,0.48-0.795c1.624-2.58,3.508-4.723,5.659-6.431
			c0.094-0.082,0.382-0.39,0.87-0.918c0.332-0.365,0.682-0.607,1.054-0.724c0.25-0.023,0.62-0.089,1.116-0.194
			c0.414-0.107,0.662-0.16,0.744-0.16c0.414,0,0.621,1.444,0.621,4.329C246.468,17.724,246.312,19.985,246.002,21.339z
			 M244.003,17.383c0.165-0.142,0.249-0.56,0.249-1.255c0-0.448-0.031-0.936-0.094-1.466c-0.062-0.471-0.116-0.762-0.162-0.876
			c-0.047-0.109-0.105-0.166-0.178-0.166c-0.394,0-1.273,0.622-2.643,1.863c-1.371,1.244-2.106,2.089-2.21,2.535
			c-0.021,0.07,0.223,0.107,0.729,0.107c0.682,0,1.416-0.055,2.202-0.159C242.989,17.823,243.693,17.629,244.003,17.383z"/>
		<path fill="#999999" d="M256.56,20.086c-0.042,0.142-0.14,0.359-0.294,0.652c-0.188,0.354-0.341,0.584-0.466,0.689
			c-0.207,0.201-0.518,0.3-0.93,0.3c-0.663,0-1.545,0.219-2.653,0.654c-1.734,0.694-2.635,1.054-2.696,1.078
			c-0.248,0.116-0.629,0.275-1.147,0.477c-0.102,0.036-0.191,0.054-0.264,0.054c-0.217,0-0.439-0.119-0.666-0.353
			c-0.229-0.234-0.342-0.482-0.342-0.743c-0.019-0.129-0.003-0.282,0.047-0.459c0.031-0.105,0.084-0.268,0.163-0.485
			c0.077-0.218,0.132-0.386,0.162-0.504c0.382-1.333,0.642-2.25,0.775-2.756c0.28-1.048,0.507-1.972,0.682-2.773
			c0.136-0.684,0.363-1.707,0.683-3.074c0.228-0.825,0.388-1.324,0.482-1.502c0.176-0.317,0.573-0.768,1.193-1.36
			c0.156-0.082,0.274-0.123,0.356-0.123c0.155,0,0.28,0.184,0.374,0.55c0.082,0.305,0.123,0.659,0.123,1.059
			c0,0.305-0.026,0.529-0.078,0.671l-0.045,0.142c-0.178,0.482-0.43,1.208-0.762,2.173c-0.516,1.826-0.948,3.727-1.301,5.706
			c0.103,0,0.288-0.042,0.559-0.123c2.108-0.671,3.705-1.007,4.791-1.007c0.298,0,0.574,0.059,0.822,0.177
			c0.309,0.141,0.464,0.358,0.464,0.654C256.592,19.915,256.58,19.991,256.56,20.086z"/>
		<path fill="#999999" d="M81.355,34.323c-0.805,1.697-2.083,3.375-3.829,5.037c-1.487,1.39-3.122,2.596-4.899,3.624
			c-0.703,0.399-1.526,0.793-2.464,1.183c-1.148,0.471-1.99,0.706-2.527,0.706c-0.27,0-0.404-0.258-0.404-0.776
			c0-0.188,0.025-0.405,0.077-0.653c0.114-0.352,0.244-0.778,0.388-1.271c0.299-1.05,0.707-2.609,1.224-4.683
			c0.114-0.636,0.321-1.582,0.622-2.843c0.04-0.128,0.106-0.336,0.193-0.618c0.087-0.283,0.147-0.494,0.178-0.637
			c0.104-0.329,0.33-0.706,0.682-1.132c0.394-0.468,0.759-0.746,1.1-0.829c1.209-0.319,2.983-0.477,5.319-0.477
			c1.86,0,3.173,0.188,3.938,0.567c0.517,0.235,0.775,0.67,0.775,1.306C81.728,33.283,81.604,33.784,81.355,34.323z M79.216,34.679
			c0-0.297-0.332-0.485-0.994-0.565c-0.196-0.014-0.661-0.02-1.394-0.02c-2.513,0-4.084,0.143-4.713,0.424
			c-0.269,0.117-0.496,0.407-0.682,0.866c-0.031,0.094-0.135,0.465-0.31,1.111c-0.662,2.262-1.039,3.895-1.132,4.896
			c0,0.021,0.015,0.033,0.046,0.033c0.125,0,0.32-0.045,0.588-0.141c2.181-0.729,4.332-2.055,6.451-3.975
			C78.503,36.014,79.216,35.139,79.216,34.679z"/>
		<path fill="#999999" d="M94.472,32.176c-0.082,0.284-0.278,0.603-0.589,0.96c-0.362,0.463-0.713,0.694-1.054,0.694
			c-0.115,0-0.284-0.017-0.504-0.044c-0.221-0.03-0.392-0.045-0.503-0.045c-0.672,0-1.536,0.131-2.59,0.39
			c-1.561,0.389-2.435,0.602-2.62,0.635c-0.331,0.06-0.656,0.119-0.975,0.178c-0.374,0.07-0.699,0.178-0.978,0.316
			c-0.114,0.061-0.215,0.236-0.302,0.53c-0.088,0.295-0.13,0.485-0.13,0.567c0,0.104,0.092,0.159,0.278,0.159
			c0.145,0,0.336-0.044,0.574-0.126c0.341-0.115,0.537-0.182,0.589-0.193c1.405-0.316,2.961-0.477,4.667-0.477
			c0.671,0,1.211,0.026,1.62,0.08c0.408,0.051,0.74,0.168,0.993,0.344c0.252,0.178,0.379,0.373,0.379,0.583
			c0,0.05-0.005,0.096-0.016,0.142c-0.083,0.295-0.268,0.626-0.558,0.99c-0.362,0.458-0.713,0.688-1.054,0.688
			c-0.125,0-0.311-0.022-0.559-0.061c-0.248-0.042-0.438-0.063-0.574-0.063c-0.692,0-1.55,0.124-2.574,0.372
			c-1.241,0.284-2.419,0.508-3.534,0.67c-0.332,0.061-0.564,0.12-0.697,0.178c-0.249,0.105-0.415,0.293-0.498,0.565
			c-0.186,0.636-0.278,1.001-0.278,1.097c0,0.186,0.067,0.281,0.201,0.281c0.073,0,0.207-0.031,0.403-0.09
			c2.637-0.776,4.683-1.165,6.141-1.165c0.269,0,0.579,0.076,0.93,0.23c0.445,0.199,0.666,0.43,0.666,0.687
			c0,0.049-0.003,0.097-0.016,0.142c-0.041,0.165-0.155,0.407-0.34,0.726c-0.186,0.319-0.347,0.536-0.48,0.653
			c-0.228,0.202-0.485,0.301-0.775,0.301c-0.053,0-0.125-0.005-0.218-0.017c-0.092-0.014-0.153-0.02-0.186-0.02
			c-0.826,0-1.813,0.225-2.96,0.672c-1.149,0.446-2.259,0.808-3.334,1.078c-0.124,0.035-0.322,0.125-0.596,0.271
			c-0.274,0.146-0.5,0.238-0.674,0.274c-0.166,0-0.445-0.125-0.837-0.372c-0.437-0.259-0.672-0.501-0.713-0.726
			c0.042-0.094,0.103-0.333,0.185-0.715c0.083-0.386,0.146-0.634,0.188-0.753c0.382-1.346,0.642-2.268,0.774-2.777
			c0.28-1.038,0.507-1.957,0.684-2.761c0.123-0.683,0.346-1.703,0.667-3.059c0.113-0.461,0.221-0.926,0.325-1.397
			c0.125-0.342,0.492-0.802,1.101-1.378c0.34-0.143,0.546-0.214,0.62-0.214c0.228,0,0.58,0.194,1.054,0.585
			c1.768-0.52,3.669-0.78,5.706-0.78c0.692,0,1.238,0.025,1.636,0.08c0.398,0.054,0.723,0.168,0.977,0.348
			c0.251,0.178,0.379,0.379,0.379,0.602C94.489,32.062,94.481,32.118,94.472,32.176z"/>
		<path fill="#999999" d="M113.819,34.218c-0.092,0.295-0.284,0.637-0.573,1.024c-0.351,0.438-0.65,0.654-0.898,0.654
			c-0.156,0-0.456-0.256-0.9-0.766c-0.445-0.513-0.889-0.771-1.333-0.771c-0.455,0-0.987,0.087-1.597,0.266
			c-0.848,0.26-1.887,0.853-3.118,1.783c-1.333,1.015-2.097,1.855-2.294,2.526c-0.051,0.213-0.061,0.436-0.032,0.673
			c0.136,0.802,0.549,1.408,1.242,1.818c0.62,0.354,1.405,0.53,2.357,0.53c0.714,0,1.415-0.1,2.108-0.302
			c0.506-0.164,1.204-0.451,2.093-0.864c0.155-0.083,0.293-0.123,0.419-0.123c0.289,0,0.434,0.205,0.434,0.618
			c0,0.141-0.021,0.284-0.062,0.424c-0.332,1.142-1.292,2.024-2.884,2.65c-1.189,0.459-2.353,0.69-3.489,0.69
			c-1.188,0-2.232-0.272-3.131-0.814c-1.106-0.646-1.66-1.571-1.66-2.774c0-0.401,0.067-0.817,0.204-1.253
			c0.464-1.638,1.383-3.123,2.76-4.453c3.151-3.052,5.807-4.577,7.968-4.577c0.631,0,1.105,0.241,1.426,0.726
			c0.208,0.272,0.507,0.702,0.898,1.291C113.923,33.465,113.943,33.808,113.819,34.218z"/>
		<path fill="#999999" d="M128.549,37.198c-0.62,2.185-2.036,4.075-4.248,5.664c-2.047,1.456-4.037,2.186-5.969,2.186
			c-1.375,0-2.499-0.43-3.374-1.288c-0.872-0.857-1.372-2.011-1.494-3.459c-0.052-0.446-0.012-0.9,0.123-1.359
			c0.154-0.562,0.46-1.168,0.916-1.816c1.157-1.669,2.784-3.075,4.883-4.217c1.994-1.103,3.812-1.656,5.458-1.656
			c1.137,0,2.079,0.415,2.828,1.244c0.75,0.829,1.126,1.855,1.126,3.079C128.798,36.102,128.714,36.644,128.549,37.198z
			 M126.377,37.627c0-0.306-0.072-0.646-0.216-1.022c-0.528-1.449-1.47-2.175-2.822-2.175c-0.806,0-1.814,0.229-3.023,0.691
			c-1.158,0.434-2.191,0.958-3.102,1.57c-0.775,0.518-1.224,0.995-1.349,1.431c-0.083,0.283-0.021,0.635,0.187,1.06
			c0.868,1.824,2.061,2.737,3.58,2.737c1.241,0,2.601-0.366,4.079-1.095C125.488,39.931,126.377,38.865,126.377,37.627z"/>
		<path fill="#999999" d="M142.44,37.045c0,0.07-0.01,0.43-0.031,1.078c-0.022,0.471-0.032,0.858-0.032,1.167
			c0,1.225,0.125,2.107,0.374,2.649c0.092,0.224,0.103,0.465,0.029,0.726c-0.091,0.328-0.347,0.76-0.758,1.288
			c-0.486,0.589-0.884,0.884-1.195,0.884c-0.319,0-0.558-0.713-0.711-2.139c-0.104-1.023-0.155-2.223-0.155-3.601
			c0-0.472,0.006-0.818,0.023-1.035c0.014-0.219,0.034-0.575,0.054-1.069c0-0.071,0.017-0.204,0.046-0.405
			c0.021-0.13,0.021-0.196,0-0.196c-0.083,0-0.998,1.314-2.744,3.94c-0.248,0.401-0.621,0.995-1.115,1.784
			c-0.196,0.496-0.559,1.06-1.086,1.695c-0.61,0.72-1.112,1.078-1.504,1.078c-0.662,0-0.993-1.355-0.993-4.063
			c0-0.471,0.01-1.03,0.031-1.68c0.021-0.691,0.037-1.069,0.047-1.128c-0.6,1.013-1.2,2.234-1.798,3.674
			c-0.166,0.401-0.332,0.729-0.497,0.988c-0.197,0.354-0.517,0.797-0.962,1.326c-0.538,0.637-0.899,0.954-1.084,0.954
			c-0.196,0-0.375-0.135-0.536-0.407c-0.159-0.27-0.241-0.536-0.241-0.793c0-0.19,0.068-0.377,0.203-0.565
			c0.104-0.165,0.211-0.329,0.325-0.494c0.259-0.496,0.656-1.23,1.194-2.208c0.424-0.718,1.023-1.821,1.798-3.305
			c0.279-0.518,0.546-1.036,0.805-1.554c0.312-0.626,0.533-1.173,0.667-1.643c0.124-0.424,0.255-0.75,0.395-0.979
			c0.139-0.231,0.483-0.478,1.03-0.735c0.475-0.234,0.802-0.353,0.976-0.353c0.311,0,0.465,0.171,0.465,0.513
			c0,0.094-0.046,0.397-0.141,0.909c-0.092,0.513-0.155,1.688-0.186,3.523c-0.032,1.78-0.016,2.924,0.047,3.428
			c0.381-0.576,1.152-1.713,2.309-3.41l1.923-2.791c0.662-0.954,1.096-1.557,1.304-1.804c0.205-0.247,0.77-0.575,1.689-0.988
			c0.3,0.023,0.45,0.588,0.45,1.697c0,0.481-0.063,1.164-0.186,2.047C142.526,35.979,142.45,36.646,142.44,37.045z"/>
		<path fill="#999999" d="M148.889,33.868c-0.196,0.493-0.46,1.234-0.79,2.224c-0.59,2.048-0.946,3.664-1.071,4.841
			c-0.032,0.366-0.083,0.665-0.154,0.9c-0.083,0.306-0.321,0.812-0.713,1.518c-0.445,0.825-0.76,1.238-0.945,1.238
			c-0.155,0-0.353-0.08-0.597-0.238c-0.244-0.16-0.391-0.322-0.442-0.486c-0.031-0.106,0.052-0.507,0.249-1.201
			c0.248-0.884,0.496-1.766,0.743-2.649c0.291-1.025,0.507-1.909,0.652-2.652c0.112-0.622,0.315-1.554,0.605-2.79
			c0.269-0.919,0.407-1.396,0.416-1.432c0.156-0.354,0.534-0.798,1.132-1.326c0.188-0.07,0.337-0.105,0.45-0.105
			c0.175,0,0.31,0.178,0.403,0.53c0.073,0.295,0.108,0.631,0.108,1.007C148.936,33.539,148.92,33.748,148.889,33.868z"/>
		<path fill="#999999" d="M162.052,34.218c-0.094,0.295-0.286,0.637-0.574,1.024c-0.352,0.438-0.651,0.654-0.899,0.654
			c-0.154,0-0.455-0.256-0.9-0.766c-0.443-0.513-0.888-0.771-1.333-0.771c-0.454,0-0.985,0.087-1.596,0.266
			c-0.848,0.26-1.887,0.853-3.116,1.783c-1.333,1.015-2.097,1.855-2.294,2.526c-0.053,0.213-0.062,0.436-0.031,0.673
			c0.134,0.802,0.548,1.408,1.24,1.818c0.621,0.354,1.406,0.53,2.356,0.53c0.713,0,1.417-0.1,2.109-0.302
			c0.506-0.164,1.204-0.451,2.093-0.864c0.154-0.083,0.294-0.123,0.417-0.123c0.291,0,0.435,0.205,0.435,0.618
			c0,0.141-0.021,0.284-0.062,0.424c-0.333,1.142-1.292,2.024-2.884,2.65c-1.189,0.459-2.352,0.69-3.489,0.69
			c-1.188,0-2.233-0.272-3.133-0.814c-1.107-0.646-1.659-1.571-1.659-2.774c0-0.401,0.066-0.817,0.202-1.253
			c0.464-1.638,1.384-3.123,2.759-4.453c3.152-3.052,5.808-4.577,7.969-4.577c0.63,0,1.105,0.241,1.428,0.726
			c0.207,0.272,0.506,0.702,0.899,1.291C162.155,33.465,162.174,33.808,162.052,34.218z"/>
		<path fill="#999999" d="M174.191,34.323c-0.342,0.473-0.594,0.708-0.76,0.708c-0.113,0-0.252-0.094-0.418-0.282
			c-0.217-0.246-0.393-0.418-0.528-0.512c-0.277-0.188-0.608-0.286-0.991-0.286c-1.158,0-3.091,0.986-5.799,2.952
			c0.465,0.096,1.256,0.213,2.372,0.353c1.229,0.143,2.294,0.43,3.194,0.866c1.375,0.635,1.912,1.46,1.613,2.474
			c-0.114,0.436-0.383,0.906-0.806,1.412c-0.889,1.061-2.207,1.943-3.954,2.651c-1.54,0.612-2.909,0.919-4.108,0.919
			c-0.549,0-1.035-0.166-1.458-0.495c-0.465-0.377-0.699-0.872-0.699-1.484c0-0.213,0.03-0.439,0.094-0.681
			c0.061-0.242,0.231-0.561,0.511-0.963c0.311-0.46,0.558-0.688,0.744-0.688c0.175,0,0.321,0.114,0.436,0.338
			c0.165,0.34,0.284,0.552,0.356,0.636c0.216,0.234,0.522,0.352,0.915,0.352c0.671,0,1.473-0.123,2.403-0.372
			c0.972-0.249,1.793-0.564,2.467-0.954c-0.652-0.352-1.495-0.624-2.528-0.812c-0.291-0.046-1.204-0.164-2.745-0.352
			c-1.447-0.19-2.372-0.433-2.774-0.726c-0.176-0.131-0.264-0.299-0.264-0.512c0-0.107,0.022-0.23,0.063-0.372
			c0.082-0.281,0.258-0.624,0.527-1.022c0.269-0.401,0.527-0.69,0.775-0.866c0.815-0.614,2.04-1.531,3.675-2.757
			c0.898-0.684,1.978-1.354,3.238-2.016c1.51-0.788,2.641-1.183,3.396-1.183c0.456,0,0.852,0.204,1.194,0.609
			c0.341,0.405,0.511,0.886,0.511,1.439c0,0.214-0.029,0.426-0.085,0.644C174.699,33.56,174.511,33.89,174.191,34.323z"/>
		<path fill="#999999" d="M195.539,32.176c-0.083,0.284-0.28,0.603-0.59,0.96c-0.36,0.463-0.712,0.694-1.054,0.694
			c-0.112,0-0.28-0.017-0.503-0.044c-0.223-0.03-0.391-0.045-0.503-0.045c-0.672,0-1.536,0.131-2.59,0.39
			c-1.56,0.389-2.433,0.602-2.62,0.635c-0.33,0.06-0.656,0.119-0.976,0.178c-0.372,0.07-0.697,0.178-0.976,0.316
			c-0.115,0.061-0.214,0.236-0.303,0.53c-0.087,0.295-0.131,0.485-0.131,0.567c0,0.104,0.094,0.159,0.28,0.159
			c0.145,0,0.334-0.044,0.572-0.126c0.342-0.115,0.538-0.182,0.589-0.193c1.406-0.316,2.961-0.477,4.667-0.477
			c0.671,0,1.211,0.026,1.621,0.08c0.407,0.051,0.738,0.168,0.992,0.344c0.252,0.178,0.379,0.373,0.379,0.583
			c0,0.05-0.005,0.096-0.015,0.142c-0.083,0.295-0.27,0.626-0.558,0.99c-0.363,0.458-0.714,0.688-1.055,0.688
			c-0.125,0-0.31-0.022-0.557-0.061c-0.249-0.042-0.44-0.063-0.574-0.063c-0.693,0-1.55,0.124-2.574,0.372
			c-1.24,0.284-2.419,0.508-3.536,0.67c-0.33,0.061-0.562,0.12-0.698,0.178c-0.249,0.105-0.413,0.293-0.496,0.565
			c-0.187,0.636-0.28,1.001-0.28,1.097c0,0.186,0.069,0.281,0.203,0.281c0.071,0,0.207-0.031,0.403-0.09
			c2.636-0.776,4.682-1.165,6.139-1.165c0.269,0,0.58,0.076,0.931,0.23c0.444,0.199,0.667,0.43,0.667,0.687
			c0,0.049-0.006,0.097-0.016,0.142c-0.042,0.165-0.155,0.407-0.341,0.726c-0.186,0.319-0.348,0.536-0.48,0.653
			c-0.228,0.202-0.486,0.301-0.775,0.301c-0.052,0-0.125-0.005-0.218-0.017c-0.092-0.014-0.155-0.02-0.186-0.02
			c-0.828,0-1.815,0.225-2.962,0.672c-1.146,0.446-2.258,0.808-3.333,1.078c-0.124,0.035-0.323,0.125-0.597,0.271
			c-0.273,0.146-0.498,0.238-0.675,0.274c-0.165,0-0.444-0.125-0.837-0.372c-0.434-0.259-0.671-0.501-0.712-0.726
			c0.042-0.094,0.104-0.333,0.187-0.715c0.083-0.386,0.146-0.634,0.187-0.753c0.382-1.346,0.64-2.268,0.775-2.777
			c0.279-1.038,0.506-1.957,0.683-2.761c0.125-0.683,0.345-1.703,0.666-3.059c0.113-0.461,0.223-0.926,0.325-1.397
			c0.125-0.342,0.49-0.802,1.101-1.378c0.339-0.143,0.547-0.214,0.619-0.214c0.228,0,0.58,0.194,1.054,0.585
			c1.769-0.52,3.67-0.78,5.706-0.78c0.693,0,1.238,0.025,1.636,0.08c0.397,0.054,0.724,0.168,0.977,0.348
			c0.252,0.178,0.379,0.379,0.379,0.602C195.553,32.062,195.549,32.118,195.539,32.176z"/>
		<path fill="#999999" d="M206.749,33.23c-0.487,1.707-0.947,4.115-1.381,7.224c-0.103,0.729-0.222,1.349-0.355,1.856
			c-0.104,0.33-0.285,0.747-0.543,1.253c-0.341,0.624-0.621,0.959-0.838,1.007c-0.176,0.034-0.33,0.054-0.464,0.054
			c-0.341,0-0.6-0.102-0.776-0.301c-0.123-0.166-0.248-0.336-0.372-0.513c-0.186-0.224-0.399-0.541-0.637-0.954
			c-0.289-0.556-0.475-0.892-0.556-1.007c-0.436-0.659-0.931-1.49-1.489-2.491l-1.69-2.968c-0.062,0.224-0.128,0.469-0.202,0.741
			c-0.423,1.46-0.687,2.698-0.79,3.711c-0.042,0.366-0.092,0.671-0.155,0.919c-0.093,0.307-0.335,0.812-0.729,1.52
			c-0.434,0.8-0.744,1.201-0.93,1.201c-0.196,0-0.408-0.083-0.636-0.249c-0.269-0.176-0.402-0.418-0.402-0.726
			c0-0.126,0.042-0.314,0.124-0.562l0.217-0.547c0.021-0.071,0.089-0.36,0.202-0.866c0.29-0.954,0.662-2.379,1.115-4.276
			c0.114-0.633,0.326-1.577,0.636-2.826c0.114-0.472,0.237-0.942,0.372-1.413c0.156-0.341,0.527-0.783,1.117-1.326
			c0.154-0.059,0.32-0.087,0.496-0.087c0.218,0,0.454,0.095,0.713,0.281c0.237,0.178,0.398,0.35,0.48,0.514
			c0.413,0.799,1.136,2.181,2.17,4.134c0.526,0.942,0.898,1.596,1.116,1.961c0.382,0.624,0.667,1.015,0.853,1.166l0.032-0.071
			c0.257-0.893,0.527-2.258,0.812-4.088c0.285-1.832,0.566-3.224,0.844-4.178c0.083-0.306,0.218-0.588,0.404-0.85
			c0.238-0.328,0.49-0.494,0.758-0.494c0.622,0,0.931,0.5,0.931,1.501c0,0.296-0.048,0.593-0.147,0.894
			C206.951,32.673,206.851,32.958,206.749,33.23z"/>
		<path fill="#999999" d="M227.863,33.989c-0.403,1.65-0.604,3.492-0.604,5.529c0,1.179,0.099,2.051,0.294,2.616
			c0.074,0.211,0.067,0.446-0.015,0.706c-0.104,0.354-0.346,0.776-0.728,1.273c-0.455,0.575-0.854,0.862-1.195,0.862
			c-0.547,0-0.822-1.218-0.822-3.655c0-0.907,0.068-2.35,0.202-4.328c0-0.049,0.005-0.143,0.016-0.284
			c-0.072,0.096-0.414,0.596-1.021,1.503c-0.362,0.528-0.844,1.282-1.443,2.262c-0.238,0.436-0.615,1.063-1.132,1.889
			c-0.113,0.281-0.314,0.694-0.604,1.236c-0.578,0.93-1.198,1.395-1.859,1.395c-0.589,0-0.884-1.146-0.884-3.443
			c0-0.165,0.037-1.209,0.109-3.129c-0.901,1.722-1.426,2.877-1.581,3.463c-0.021,0.061-0.047,0.166-0.079,0.318
			c-0.031,0.153-0.062,0.266-0.093,0.334c-0.083,0.319-0.372,0.803-0.868,1.449c-0.58,0.754-1.048,1.132-1.411,1.132
			c-0.217,0-0.393-0.127-0.525-0.379c-0.137-0.255-0.202-0.511-0.202-0.769c0-0.201,0.098-0.462,0.294-0.776
			c0.134-0.225,0.588-1.066,1.364-2.528c1.819-3.402,2.832-5.448,3.039-6.13c0.01-0.022,0.046-0.158,0.109-0.404
			c0.145-0.461,0.293-0.796,0.448-1.01c0.176-0.246,0.465-0.469,0.869-0.67c0.062-0.023,0.366-0.152,0.915-0.39
			c0.341,0.024,0.511,0.208,0.511,0.55c0,0.115-0.027,0.328-0.078,0.636c-0.072,0.398-0.147,1.327-0.217,2.782
			c-0.074,1.456-0.109,2.617-0.109,3.488c0,0.272,0.005,0.483,0.016,0.638l0.048-0.106c0.537-0.729,1.308-1.837,2.309-3.32
			c0.445-0.721,0.895-1.445,1.35-2.176c0.526-0.812,1.022-1.5,1.488-2.068c0.196-0.246,0.76-0.6,1.688-1.057
			c0.384,0.187,0.574,0.625,0.574,1.306C228.034,33.099,227.977,33.518,227.863,33.989z"/>
		<path fill="#999999" d="M243.026,32.176c-0.083,0.284-0.279,0.603-0.59,0.96c-0.362,0.463-0.713,0.694-1.054,0.694
			c-0.113,0-0.281-0.017-0.504-0.044c-0.222-0.03-0.39-0.045-0.504-0.045c-0.67,0-1.534,0.131-2.587,0.39
			c-1.562,0.389-2.435,0.602-2.621,0.635c-0.331,0.06-0.656,0.119-0.978,0.178c-0.371,0.07-0.698,0.178-0.976,0.316
			c-0.115,0.061-0.214,0.236-0.303,0.53c-0.087,0.295-0.131,0.485-0.131,0.567c0,0.104,0.094,0.159,0.278,0.159
			c0.145,0,0.336-0.044,0.574-0.126c0.341-0.115,0.538-0.182,0.589-0.193c1.405-0.316,2.961-0.477,4.667-0.477
			c0.672,0,1.212,0.026,1.62,0.08c0.409,0.051,0.738,0.168,0.992,0.344c0.254,0.178,0.379,0.373,0.379,0.583
			c0,0.05-0.004,0.096-0.014,0.142c-0.083,0.295-0.269,0.626-0.557,0.99c-0.363,0.458-0.715,0.688-1.056,0.688
			c-0.124,0-0.31-0.022-0.557-0.061c-0.249-0.042-0.44-0.063-0.575-0.063c-0.692,0-1.55,0.124-2.573,0.372
			c-1.24,0.284-2.418,0.508-3.534,0.67c-0.332,0.061-0.565,0.12-0.699,0.178c-0.249,0.105-0.414,0.293-0.497,0.565
			c-0.186,0.636-0.28,1.001-0.28,1.097c0,0.186,0.067,0.281,0.202,0.281c0.073,0,0.206-0.031,0.404-0.09
			c2.635-0.776,4.681-1.165,6.139-1.165c0.27,0,0.581,0.076,0.93,0.23c0.444,0.199,0.667,0.43,0.667,0.687
			c0,0.049-0.006,0.097-0.016,0.142c-0.042,0.165-0.156,0.407-0.34,0.726c-0.188,0.317-0.349,0.536-0.481,0.653
			c-0.228,0.202-0.487,0.301-0.775,0.301c-0.052,0-0.125-0.005-0.219-0.017c-0.093-0.014-0.154-0.02-0.185-0.02
			c-0.827,0-1.814,0.225-2.961,0.672c-1.148,0.446-2.26,0.808-3.334,1.078c-0.125,0.035-0.324,0.125-0.598,0.271
			c-0.273,0.146-0.497,0.238-0.673,0.274c-0.165,0-0.445-0.125-0.838-0.372c-0.434-0.259-0.672-0.501-0.712-0.726
			c0.042-0.094,0.104-0.333,0.186-0.715c0.083-0.386,0.145-0.634,0.186-0.753c0.382-1.346,0.642-2.268,0.776-2.777
			c0.279-1.038,0.505-1.957,0.681-2.761c0.125-0.683,0.348-1.703,0.667-3.059c0.114-0.461,0.224-0.926,0.326-1.397
			c0.124-0.342,0.49-0.802,1.101-1.378c0.341-0.143,0.547-0.214,0.62-0.214c0.228,0,0.58,0.194,1.054,0.585
			c1.769-0.52,3.67-0.78,5.706-0.78c0.693,0,1.239,0.025,1.637,0.08c0.396,0.054,0.722,0.168,0.976,0.348
			c0.254,0.178,0.38,0.379,0.38,0.602C243.04,32.062,243.036,32.118,243.026,32.176z"/>
		<path fill="#999999" d="M253.6,32.011c-0.134,0.471-0.506,1.1-1.117,1.888c-0.206,0.272-0.48,0.547-0.822,0.832
			c-0.289,0.249-0.583,0.488-0.883,0.726c-0.868,0.776-1.338,1.302-1.41,1.572c-0.083,0.293,0.33,1.306,1.24,3.039
			c0.403,0.458,0.822,1.006,1.255,1.642c0.031,0.153,0.016,0.331-0.045,0.53c-0.125,0.445-0.353,0.89-0.682,1.326
			c-0.444,0.6-0.905,0.899-1.38,0.899c-0.382,0-0.807-0.413-1.271-1.235c-0.3-0.53-0.651-1.297-1.056-2.295
			c-0.34-0.837-0.526-1.255-0.556-1.255c-0.092,0-0.256,0.141-0.49,0.424c-0.231,0.282-0.472,0.578-0.72,0.884
			c-0.372,0.504-0.926,1.177-1.659,2.014c-1.364,1.318-2.321,2-2.868,2.049l-0.234-0.161c-0.114-0.307-0.168-0.6-0.168-0.883
			c0-0.225,0.036-0.437,0.107-0.638l0.047-0.103c0.083-0.211,0.294-0.477,0.635-0.796c0.34-0.316,1.178-1.194,2.511-2.632
			c0.124-0.119,0.677-0.672,1.66-1.662c0.217-0.223,0.341-0.382,0.373-0.477c0.052-0.177-0.118-0.75-0.512-1.714
			c-0.403-1.036-0.605-1.767-0.605-2.189c0-0.107,0.012-0.207,0.032-0.303c0.092-0.305,0.358-0.729,0.79-1.271
			c0.486-0.601,0.875-0.9,1.164-0.9c0.29,0,0.6,0.624,0.931,1.871c0.331,1.25,0.538,1.874,0.62,1.874
			c0.031,0,0.13-0.105,0.295-0.318c0.258-0.316,0.45-0.54,0.573-0.671c0.382-0.424,0.77-0.846,1.164-1.271
			c0.557-0.602,0.986-0.989,1.286-1.166c0.167-0.084,0.651-0.23,1.459-0.441c0.257,0.096,0.387,0.276,0.387,0.547
			C253.646,31.828,253.63,31.916,253.6,32.011z"/>
		<path fill="#999999" d="M258.111,33.868c-0.198,0.493-0.462,1.234-0.791,2.224c-0.59,2.048-0.946,3.664-1.07,4.841
			c-0.032,0.366-0.083,0.665-0.156,0.9c-0.083,0.306-0.32,0.812-0.713,1.518c-0.444,0.825-0.759,1.238-0.945,1.238
			c-0.155,0-0.355-0.08-0.597-0.238c-0.243-0.16-0.39-0.322-0.441-0.486c-0.032-0.106,0.052-0.507,0.248-1.201
			c0.247-0.884,0.496-1.766,0.743-2.649c0.29-1.025,0.506-1.909,0.651-2.652c0.115-0.622,0.316-1.554,0.605-2.79
			c0.27-0.919,0.408-1.396,0.417-1.432c0.156-0.354,0.532-0.798,1.133-1.326c0.187-0.07,0.335-0.105,0.45-0.105
			c0.176,0,0.31,0.178,0.403,0.53c0.072,0.295,0.109,0.631,0.109,1.007C258.157,33.539,258.141,33.748,258.111,33.868z"/>
		<path fill="#999999" d="M271.272,34.218c-0.092,0.295-0.284,0.637-0.574,1.024c-0.352,0.438-0.651,0.654-0.898,0.654
			c-0.156,0-0.457-0.256-0.9-0.766c-0.443-0.513-0.889-0.771-1.333-0.771c-0.456,0-0.985,0.087-1.598,0.266
			c-0.848,0.26-1.887,0.853-3.115,1.783c-1.333,1.015-2.1,1.855-2.295,2.526c-0.052,0.213-0.062,0.436-0.03,0.673
			c0.133,0.802,0.547,1.408,1.24,1.818c0.621,0.354,1.405,0.53,2.355,0.53c0.713,0,1.417-0.1,2.109-0.302
			c0.506-0.164,1.204-0.451,2.093-0.864c0.155-0.083,0.296-0.123,0.419-0.123c0.291,0,0.435,0.205,0.435,0.618
			c0,0.141-0.021,0.284-0.061,0.424c-0.333,1.142-1.293,2.024-2.885,2.65c-1.188,0.459-2.351,0.69-3.488,0.69
			c-1.189,0-2.233-0.272-3.133-0.814c-1.105-0.646-1.659-1.571-1.659-2.774c0-0.401,0.068-0.817,0.201-1.253
			c0.467-1.638,1.386-3.123,2.761-4.453c3.153-3.052,5.809-4.577,7.97-4.577c0.63,0,1.106,0.241,1.426,0.726
			c0.207,0.272,0.505,0.702,0.899,1.291C271.376,33.465,271.397,33.808,271.272,34.218z"/>
		<path fill="#999999" d="M286.001,37.198c-0.621,2.185-2.036,4.075-4.248,5.664c-2.044,1.456-4.036,2.186-5.968,2.186
			c-1.375,0-2.499-0.43-3.372-1.288c-0.874-0.857-1.372-2.011-1.497-3.459c-0.052-0.446-0.01-0.9,0.125-1.359
			c0.155-0.562,0.459-1.168,0.914-1.816c1.158-1.669,2.785-3.075,4.884-4.217c1.995-1.103,3.812-1.656,5.457-1.656
			c1.137,0,2.08,0.415,2.83,1.244c0.749,0.829,1.123,1.855,1.123,3.079C286.25,36.102,286.167,36.644,286.001,37.198z
			 M283.832,37.627c0-0.306-0.074-0.646-0.218-1.022c-0.527-1.449-1.468-2.175-2.821-2.175c-0.808,0-1.815,0.229-3.024,0.691
			c-1.157,0.434-2.19,0.958-3.101,1.57c-0.776,0.518-1.224,0.995-1.35,1.431c-0.082,0.283-0.021,0.635,0.186,1.06
			c0.869,1.824,2.062,2.737,3.583,2.737c1.24,0,2.598-0.366,4.078-1.095C282.942,39.931,283.832,38.865,283.832,37.627z"/>
	</g>
	<g>
		<path fill="#999999" d="M243.513,29.057c-0.254,0.056-0.607,0.155-1.058,0.298c-0.853,0.34-1.429,0.66-1.729,0.957
			c-0.087,0.096-0.181,0.162-0.284,0.198c-0.123,0.053-0.414,0.094-0.875,0.122c-0.525,0.039-0.87,0.014-1.034-0.074
			c-0.136-0.074-0.3-0.192-0.486-0.355c-0.188-0.164-0.291-0.282-0.31-0.355c-0.011-0.047,0.128-0.129,0.414-0.246
			c0.361-0.15,0.723-0.3,1.085-0.45c0.422-0.172,0.756-0.337,1.004-0.493c0.202-0.134,0.53-0.32,0.987-0.557
			c0.387-0.15,0.586-0.229,0.6-0.234c0.196-0.033,0.599,0.01,1.213,0.135c0.176,0.067,0.312,0.127,0.413,0.181
			c0.155,0.083,0.244,0.201,0.269,0.351c0.016,0.123-0.007,0.243-0.068,0.356C243.607,28.98,243.559,29.036,243.513,29.057z"/>
	</g>
	<g>
		<path fill="#999999" d="M128.864,29.057c-0.254,0.056-0.607,0.155-1.058,0.298c-0.853,0.34-1.429,0.66-1.729,0.957
			c-0.087,0.096-0.182,0.162-0.284,0.198c-0.123,0.053-0.414,0.094-0.875,0.122c-0.525,0.039-0.87,0.014-1.034-0.074
			c-0.137-0.074-0.3-0.192-0.486-0.355c-0.188-0.164-0.291-0.282-0.31-0.355c-0.011-0.047,0.128-0.129,0.414-0.246
			c0.361-0.15,0.723-0.3,1.085-0.45c0.422-0.172,0.756-0.337,1.004-0.493c0.202-0.134,0.53-0.32,0.986-0.557
			c0.387-0.15,0.587-0.229,0.6-0.234c0.196-0.033,0.599,0.01,1.213,0.135c0.176,0.067,0.312,0.127,0.413,0.181
			c0.155,0.083,0.244,0.201,0.269,0.351c0.016,0.123-0.007,0.243-0.068,0.356C128.958,28.98,128.91,29.036,128.864,29.057z"/>
	</g>
</g>
</svg>
