<?xml version="1.0" encoding="utf-8"?>
<!-- Generator: Adobe Illustrator 15.0.2, SVG Export Plug-In . SVG Version: 6.00 Build 0)  -->
<!DOCTYPE svg PUBLIC "-//W3C//DTD SVG 1.1//EN" "http://www.w3.org/Graphics/SVG/1.1/DTD/svg11.dtd">
<svg version="1.1" id="Layer_1" xmlns="http://www.w3.org/2000/svg" xmlns:xlink="http://www.w3.org/1999/xlink" x="0px" y="0px"
	 width="1404.905px" height="337.334px" viewBox="0 0 1404.905 337.334" enable-background="new 0 0 1404.905 337.334"
	 xml:space="preserve">
<g>
	<g>
		<path fill="none" d="M540.992,166.899c-0.235-0.501-0.539-0.751-0.905-0.751c-2.001,0-6.485,2.774-13.457,8.325
			c-0.571,0.761-0.931,1.401-1.067,1.923c-0.107,0.316,1.129,0.473,3.708,0.473c3.472,0,7.209-0.237,11.211-0.712
			c0.62-0.071,1.213-0.143,1.789-0.221c-0.058-1.602-0.205-3.312-0.446-5.134C541.508,168.7,541.231,167.398,540.992,166.899z"/>
		<path fill="#F0AD4F" d="M526.632,174.474c6.972-5.551,11.456-8.325,13.457-8.325c0.367,0,0.668,0.249,0.905,0.751
			c0.238,0.499,0.515,1.801,0.831,3.906c0.241,1.82,0.388,3.53,0.446,5.133c0.375-0.049,0.747-0.102,1.103-0.154
			c0.069-5.655,0.576-11.208,1.495-16.619c-2.157,1.379-4.84,3.344-8.058,5.904C531.651,169.178,528.26,172.311,526.632,174.474z"/>
		<g>
			<path fill="#EE9D28" d="M93.242,199.211c-7.352,2.403-14.875,3.607-22.568,3.607c-7.833,0-14.29-1.478-19.374-4.43
				c-5.839-3.438-8.758-8.452-8.758-15.047c0-2.748,0.481-5.734,1.443-8.966c2.321-7.073,6.375-13.738,12.144-20
				c-1.482,1.234-2.98,2.514-4.5,3.851c-8.863,7.831-14.806,16.351-17.828,25.556c-0.961,3.23-1.442,6.218-1.442,8.966
				c0,6.596,2.919,11.609,8.758,15.044c5.083,2.955,11.543,4.434,19.375,4.434c7.693,0,15.214-1.204,22.567-3.608
				c6.977-2.342,12.082-5.484,15.326-9.419c-0.254-0.555-0.491-1.123-0.701-1.706C96.295,198.104,94.822,198.681,93.242,199.211z"/>
			<path fill="#EE9D28" d="M110.76,145.266c-2.749-2.988-5.532-4.483-8.348-4.483c-6.181,0-12.641,2.062-19.374,6.185
				c-11.501,7.069-18.806,12.81-21.922,17.22c3.251-2.394,7.157-4.996,11.742-7.813c6.732-4.122,13.189-6.184,19.373-6.184
				c2.816,0,5.598,1.496,8.347,4.482c2.748,2.989,4.705,4.482,5.873,4.482c1.581,0,3.607-1.303,6.08-3.915
				c1.998-2.121,3.307-3.959,3.942-5.514C115.291,149.604,113.391,148.128,110.76,145.266z"/>
			<path fill="#EE9D28" d="M172.185,169.667c0-1.369-0.369-2.893-1.104-4.578c-2.683-6.472-7.473-9.709-14.365-9.709
				c-4.106,0-9.237,1.026-15.393,3.077c-5.895,1.947-11.157,4.29-15.787,7.025c-3.947,2.316-6.235,4.448-6.867,6.395
				c-0.13,0.391-0.182,0.817-0.171,1.272c3.831-2.001,8.041-3.765,12.642-5.286c6.156-2.052,11.286-3.078,15.392-3.078
				c6.893,0,11.682,3.236,14.365,9.709c0.736,1.684,1.105,3.21,1.105,4.579c0,1.233-0.237,2.428-0.689,3.586
				C168.554,178.939,172.185,174.608,172.185,169.667z"/>
			<path fill="#EE9D28" d="M107.067,175.542c0.791-2.521,2.342-5.229,4.658-8.118c0.38-0.481,0.772-0.958,1.172-1.429
				c-4.451,3.283-8.24,6.891-11.354,10.836c-1.321,1.648-2.386,3.236-3.211,4.767c2.7-0.95,5.384-1.916,8.06-2.9
				C106.493,177.653,106.715,176.6,107.067,175.542z"/>
			<path fill="#EE9D28" d="M131.221,202.817c-6.999,0-12.721-1.919-17.167-5.754c-2.375-2.047-4.201-4.474-5.487-7.272
				c-2.509,3.043-6.141,5.608-10.882,7.699c0.211,0.583,0.447,1.152,0.701,1.706c1.286,2.798,3.111,5.223,5.486,7.272
				c4.446,3.834,10.168,5.755,17.168,5.755c9.837,0,19.968-3.259,30.388-9.777c5.869-3.695,10.626-7.762,14.293-12.187
				c-1.303,0.949-2.674,1.877-4.111,2.783C151.191,199.561,141.061,202.817,131.221,202.817z"/>
			<path fill="#EE9D28" d="M192.527,184.033c0-2.104,0.052-4.604,0.159-7.5c0.104-3.103,0.184-4.785,0.237-5.05
				c-3.053,4.525-6.106,9.998-9.156,16.417c-0.464,0.985-0.926,1.865-1.39,2.659c-0.019,1.022-0.029,1.994-0.029,2.878
				c0,12.104,1.682,18.154,5.049,18.154c2,0,4.551-1.605,7.657-4.814c1.637-1.733,2.958-3.349,3.968-4.848
				c-0.507,0.164-0.992,0.259-1.442,0.259C194.211,202.187,192.527,196.135,192.527,184.033z"/>
			<path fill="#EE9D28" d="M168.098,200.688c-0.815-1.211-1.224-2.394-1.224-3.553c0-0.841,0.344-1.683,1.026-2.526
				c0.527-0.735,1.08-1.473,1.658-2.208c1.317-2.211,3.341-5.501,6.078-9.869c2.157-3.206,5.21-8.128,9.155-14.759
				c1.421-2.314,2.789-4.63,4.105-6.946c1.41-2.492,2.443-4.694,3.14-6.643c-0.753,0.258-1.636,0.604-2.666,1.052
				c-2.509,1.039-4.167,2.027-4.994,2.962c0.078,0.745,0.122,1.507,0.122,2.288c0,2.365-0.421,4.783-1.262,7.252
				c-2.583,7.996-7.88,15.094-15.885,21.295c-0.692,1.086-1.329,2.059-1.897,2.907c-2.736,4.365-4.761,7.655-6.077,9.863
				c-0.578,0.738-1.13,1.476-1.658,2.211c-0.684,0.844-1.025,1.686-1.025,2.526c0,1.157,0.408,2.34,1.223,3.551
				c0.816,1.21,1.725,1.818,2.725,1.818c0.946,0,2.787-1.422,5.523-4.265c1.917-2.006,3.375-3.726,4.386-5.163
				C169.659,202.381,168.84,201.785,168.098,200.688z"/>
			<path fill="#EE9D28" d="M230.573,192.4c-0.528-4.58-0.79-9.948-0.79-16.104c0-2.104,0.04-3.644,0.118-4.617
				c0.08-0.974,0.17-2.565,0.277-4.775c0-0.315,0.08-0.92,0.237-1.815c0.105-0.578,0.105-0.867,0-0.867
				c-0.36,0-3.855,4.337-10.461,12.987c-0.087,1.746-0.166,3.04-0.232,3.876c-0.079,0.973-0.118,2.514-0.118,4.616
				c0,6.157,0.263,11.523,0.788,16.102c0.79,6.368,2,9.552,3.631,9.552c1.578,0,3.604-1.314,6.078-3.947
				c1.988-2.237,3.239-4.069,3.772-5.507C232.406,201.492,231.306,198.328,230.573,192.4z"/>
			<path fill="#EE9D28" d="M244.575,199.583c-0.157-0.474,0.264-2.264,1.264-5.369c1.262-3.946,2.526-7.893,3.789-11.839
				c1.473-4.578,2.578-8.525,3.314-11.838c0.578-2.79,1.604-6.946,3.079-12.473c0.383-1.147,0.713-2.138,0.992-2.977
				c-0.296-0.265-0.625-0.403-0.992-0.403c-0.58,0-1.342,0.155-2.288,0.473c-3.052,2.368-4.973,4.341-5.762,5.919
				c-0.052,0.158-0.763,2.289-2.13,6.395c-1.474,5.524-2.5,9.685-3.078,12.471c-0.141,0.632-0.3,1.293-0.467,1.97
				c0.274,3.068,0.834,5.445,1.695,7.095c0.475,1.002,0.526,2.08,0.159,3.236c-0.474,1.475-1.764,3.395-3.867,5.763
				c-1.442,1.535-2.729,2.606-3.866,3.246c-0.252,0.792-0.504,1.58-0.758,2.371c-1,3.104-1.42,4.893-1.262,5.367
				c0.262,0.737,1.011,1.459,2.25,2.171c1.235,0.71,2.249,1.065,3.038,1.065c0.947,0,2.551-1.844,4.815-5.525
				c1.205-1.899,2.117-3.473,2.749-4.726c-0.142-0.072-0.273-0.137-0.42-0.222C245.589,201.043,244.839,200.315,244.575,199.583z"/>
			<path fill="#EE9D28" d="M310.315,155.222c-2.316,0-5.024,0.395-8.13,1.184c-4.315,1.158-9.604,3.815-15.864,7.973
				c-5.883,3.922-9.589,7.271-11.124,10.045c0.31-0.211,0.618-0.422,0.941-0.638c6.262-4.157,11.55-6.815,15.864-7.974
				c3.105-0.79,5.814-1.184,8.13-1.184c2.262,0,4.524,1.146,6.789,3.435c2.262,2.288,3.79,3.433,4.578,3.433
				c1.263,0,2.789-0.973,4.579-2.92c1.473-1.736,2.446-3.263,2.921-4.578c0.429-1.254,0.51-2.359,0.254-3.32
				c-0.624-0.526-1.337-1.196-2.151-2.019C314.841,156.366,312.578,155.222,310.315,155.222z"/>
			<path fill="#EE9D28" d="M285.769,202.977c-6.052,0-11.366-1.211-15.944-3.633c-5.631-2.894-8.445-7.024-8.445-12.391
				c0-1.789,0.343-3.659,1.025-5.604c1.588-4.901,4.222-9.498,7.89-13.786c-1.324,1.058-2.661,2.145-4.021,3.302
				c-1.801,1.528-3.444,3.105-4.941,4.726c-1.127,4.262-1.871,7.894-2.232,10.891c-0.158,1.633-0.423,2.974-0.79,4.024
				c-0.421,1.37-1.632,3.631-3.632,6.791c-1.009,1.64-1.879,2.895-2.627,3.806c1.221,3.125,3.749,5.676,7.591,7.648
				c4.579,2.421,9.892,3.632,15.944,3.632c5.789,0,11.709-1.026,17.76-3.078c7.705-2.654,12.501-6.354,14.401-11.097
				c-1.293,0.604-2.7,1.167-4.22,1.691C297.476,201.948,291.557,202.977,285.769,202.977z"/>
			<path fill="#EE9D28" d="M327.416,183.243c0.894,0,1.63,0.501,2.21,1.499c0.842,1.528,1.447,2.475,1.816,2.843
				c0.337,0.318,0.717,0.584,1.134,0.807c2.698,0.303,4.455,0.512,5.259,0.624c0.143,0.024,0.277,0.052,0.419,0.074
				c2.943-0.178,6.297-0.703,10.079-1.585c4.944-1.105,9.128-2.525,12.548-4.262c-3.314-1.58-7.603-2.786-12.863-3.632
				c-1.475-0.209-6.132-0.736-13.971-1.578c-7.367-0.841-12.077-1.92-14.129-3.236c-0.895-0.576-1.342-1.341-1.342-2.287
				c0-0.473,0.106-1.026,0.317-1.658c0.201-0.603,0.517-1.27,0.933-1.99c-1.697,1.115-3.191,2.101-4.483,2.951
				c-1.264,0.788-2.581,2.079-3.947,3.865c-1.369,1.791-2.262,3.315-2.684,4.578c-0.209,0.632-0.314,1.186-0.314,1.658
				c0,0.946,0.446,1.71,1.341,2.289c0.451,0.288,1.035,0.564,1.739,0.829c0.863-0.337,1.76-0.693,2.708-1.081
				c0.79-0.367,1.5-0.553,2.131-0.553c1.473,0,2.211,0.923,2.211,2.764c0,0.18-0.028,0.36-0.046,0.542
				c1.33,0.218,2.792,0.422,4.388,0.615c0.235-0.32,0.484-0.65,0.76-1C325.205,184.271,326.468,183.243,327.416,183.243z"/>
			<path fill="#EE9D28" d="M369.645,150.566c-5.895,0-15.736,4.395-29.521,13.18c1.214,0.218,2.874,0.462,4.962,0.733
				c6.134-2.998,10.935-4.508,14.376-4.508c1.946,0,3.63,0.421,5.051,1.262c0.684,0.422,1.578,1.184,2.682,2.29
				c0.842,0.842,1.552,1.262,2.132,1.262c0.841,0,2.13-1.052,3.868-3.156c1.63-1.946,2.591-3.406,2.88-4.381
				c0.29-0.973,0.436-1.934,0.436-2.881c0-0.393-0.029-0.773-0.073-1.15c-0.681-0.624-1.268-1.095-1.745-1.389
				C373.275,150.989,371.59,150.566,369.645,150.566z"/>
			<path fill="#EE9D28" d="M331.52,202.503c-2.79,0-5.263-0.736-7.421-2.209c-1.313-0.936-2.248-2.039-2.833-3.296
				c-0.002-0.003-0.004-0.006-0.006-0.008c-0.37-0.368-0.974-1.314-1.816-2.842c-0.58-0.999-1.317-1.499-2.21-1.499
				c-0.946,0-2.209,1.025-3.789,3.077c-1.419,1.791-2.289,3.224-2.603,4.302c-0.318,1.081-0.476,2.092-0.476,3.039
				c0,2.736,1.185,4.945,3.553,6.63c2.158,1.473,4.63,2.212,7.419,2.212c6.104,0,13.076-1.37,20.917-4.108
				c8.892-3.156,15.6-7.102,20.127-11.838c1.165-1.221,2.091-2.396,2.795-3.525c-3.582,2.227-7.826,4.215-12.742,5.96
				C344.597,201.135,337.625,202.503,331.52,202.503z"/>
			<path fill="#EE9D28" d="M420.801,191.681c-4.238,2.286-9.251,4.541-15.036,6.763c-7.333,2.825-12.581,4.238-15.744,4.238
				c-2.218,0-3.329-0.91-3.329-2.725c0-0.944,0.27-2.021,0.808-3.231c1.079-2.488,3.062-8.509,5.953-18.062
				c2.691-8.746,4.475-14.835,5.35-18.266c0.805-3.768,2.185-9.388,4.139-16.854c1.047-3.228,2.203-6.022,3.473-8.387
				c-0.042,0.01-0.092,0.021-0.135,0.031c-5.651,1.48-10.159,7.401-13.521,17.761c-1.954,7.468-3.333,13.086-4.139,16.854
				c-0.875,3.429-2.658,9.52-5.347,18.268c-2.892,9.554-4.877,15.573-5.955,18.062c-0.538,1.21-0.807,2.288-0.807,3.229
				c0,1.816,1.109,2.726,3.329,2.726c3.162,0,8.411-1.412,15.744-4.237c5.787-2.22,10.798-4.477,15.037-6.762
				c13.505-7.318,25.911-16.491,37.221-27.51c0.022-0.093,0.045-0.187,0.066-0.284C439.427,180.353,430.391,186.485,420.801,191.681
				z"/>
			<path fill="#EE9D28" d="M460.967,144.148c0-2.018-4.34-3.026-13.018-3.026c-3.632,0-8.949,0.136-15.945,0.403
				c-9.419,0.404-14.415,0.874-14.983,1.413c-0.527,0.493-1.63,3.309-3.312,8.431c2.187-0.153,4.887-0.301,8.116-0.439
				c6.993-0.268,12.31-0.403,15.942-0.403c8.681,0,13.017,1.009,13.017,3.027c0,1.635-1.542,4.111-4.609,7.414
				c0.357-0.291,0.714-0.577,1.067-0.875C456.394,152.288,460.967,146.974,460.967,144.148z"/>
			<path fill="#EE9D28" d="M500.795,172.725c-3.527,0-7.895,0.554-13.105,1.658c-6.314,1.263-12.312,2.263-17.997,2.999
				c-1.685,0.265-2.868,0.527-3.55,0.79c-1.262,0.473-2.104,1.314-2.527,2.526c-0.947,2.841-1.42,4.473-1.42,4.894
				c0,0.341,0.073,0.595,0.183,0.798c2.984-0.424,6.056-0.919,9.21-1.483c10.412-2.435,18.732-3.656,24.942-3.656
				c0.862,0,1.824,0.154,2.856,0.426c0.775-0.502,1.559-1.187,2.354-2.07c1.474-1.63,2.42-3.104,2.843-4.421
				c0.051-0.209,0.076-0.419,0.076-0.63c0-0.527-0.206-1.027-0.604-1.505c-0.116-0.019-0.221-0.028-0.341-0.047
				C502.45,172.818,501.478,172.725,500.795,172.725z"/>
			<path fill="#EE9D28" d="M507.188,151.81c-3.421,0-7.815,0.579-13.182,1.736c-7.947,1.736-12.392,2.684-13.34,2.842
				c-1.685,0.265-3.342,0.528-4.972,0.789c-1.896,0.316-3.553,0.79-4.973,1.421c-0.582,0.265-1.095,1.055-1.54,2.368
				c-0.449,1.316-0.671,2.157-0.671,2.524c0,0.474,0.473,0.711,1.42,0.711c0.734,0,1.71-0.184,2.921-0.553
				c1.737-0.525,2.735-0.814,2.999-0.868c7.155-1.421,15.075-2.131,23.759-2.131c1.985,0,3.737,0.042,5.27,0.12
				c0.86-0.517,1.736-1.264,2.623-2.259c1.579-1.589,2.577-3.017,3-4.288c0.052-0.265,0.078-0.504,0.078-0.716
				c0-0.516-0.173-1.005-0.516-1.468c-0.106-0.01-0.203-0.02-0.314-0.034C508.621,151.876,507.764,151.81,507.188,151.81z"/>
			<path fill="#EE9D28" d="M462.355,201.14c-0.631,0.158-1.646,0.566-3.039,1.224c-1.394,0.657-2.54,1.065-3.434,1.224
				c-0.842,0-2.263-0.553-4.263-1.66c-2.208-1.158-3.418-2.237-3.63-3.239c0.212-0.421,0.528-1.49,0.949-3.2
				c0.421-1.713,0.736-2.831,0.947-3.358c1.944-6.009,3.263-10.142,3.946-12.41c1.421-4.634,2.579-8.744,3.473-12.327
				c0.191-0.93,0.436-2.015,0.722-3.222c-3.281,3.196-6.654,6.238-10.116,9.122c-0.023,0.097-0.045,0.191-0.069,0.283
				c-0.284,1.207-0.528,2.293-0.72,3.222c-0.895,3.584-2.051,7.694-3.472,12.329c-0.683,2.267-2.001,6.402-3.947,12.409
				c-0.209,0.525-0.525,1.645-0.946,3.356c-0.421,1.711-0.738,2.78-0.948,3.203c0.21,1.001,1.42,2.079,3.63,3.238
				c1.999,1.107,3.419,1.659,4.261,1.659c0.895-0.157,2.041-0.566,3.435-1.224c1.393-0.657,2.407-1.065,3.039-1.223
				c5.473-1.212,11.129-2.815,16.972-4.814c5.838-1.999,10.865-2.999,15.074-2.999c0.159,0,0.472,0.026,0.947,0.078
				c0.474,0.053,0.842,0.078,1.106,0.078c1.473,0,2.788-0.444,3.947-1.342c0.682-0.525,1.499-1.5,2.445-2.922
				c0.947-1.419,1.526-2.497,1.736-3.235c0.053-0.21,0.08-0.419,0.08-0.633c0-0.495-0.223-0.967-0.64-1.414
				c-4.097,0.082-8.927,1.068-14.517,2.981C473.483,198.326,467.826,199.93,462.355,201.14z"/>
			<path fill="#EE9D28" d="M502.355,198.654c0-0.473,0.079-0.947,0.238-1.42c0.842-3.367,3.343-8.184,7.499-14.443
				c0.315-1.264,1.132-2.448,2.446-3.554c3.619-5.046,7.497-9.721,11.63-14.021c-7.153,5.857-13.663,12.642-19.534,20.357
				c-0.014,0.138-0.018,0.275-0.051,0.414c-0.212,0.736-0.789,1.815-1.738,3.236s-1.765,2.394-2.447,2.92
				c-0.256,0.198-0.519,0.363-0.788,0.516c-3.97,6.032-6.376,10.699-7.2,13.982c-0.156,0.473-0.238,0.948-0.238,1.42
				c0,1.895,0.766,2.842,2.292,2.842c0.683,0,1.42-0.132,2.209-0.395c2.314-1.105,4.287-3.106,5.919-6
				c0.74-1.344,1.402-2.344,1.986-3.017C503.103,201.462,502.355,200.519,502.355,198.654z"/>
			<path fill="#EE9D28" d="M538.824,188.315c-2.895,0-6.659,0.368-11.288,1.104c-6.264,0.948-10.051,1.5-11.365,1.657
				c-0.842,0.105-1.974,1.449-3.396,4.024c-1.238,2.197-2.674,3.877-4.309,5.043c1.983-0.282,4.942-0.723,8.889-1.319
				c4.629-0.735,8.391-1.104,11.287-1.104c4.891,0,7.549,0.023,7.972,0.077c2.473,0.421,3.708,1.5,3.708,3.236
				c0,0.524-0.076,1.105-0.234,1.736c-0.473,1.947-0.711,3.472-0.711,4.578c0,2.104,0.814,3.157,2.447,3.157
				c1.73,0,3.646-1.257,5.744-3.769c-1.729-5.938-2.95-12.09-3.616-18.408C542.668,188.32,540.958,188.315,538.824,188.315z"/>
		</g>
		<path fill="none" d="M332.576,188.393c0.958,0.511,2.13,0.771,3.521,0.771c0.689,0,1.413-0.028,2.157-0.073
			c-0.142-0.023-0.276-0.05-0.419-0.072C337.03,188.903,335.273,188.696,332.576,188.393z"/>
		<path fill="none" d="M437.767,150.527c-3.632,0-8.949,0.136-15.944,0.403c-3.231,0.139-5.928,0.286-8.114,0.439
			c-0.156,0.469-0.312,0.95-0.476,1.458c-4.778,14.668-7.433,24.825-7.973,30.478c0.472-0.066,1.277-0.303,2.421-0.709
			c13.468-4.379,26.299-11.595,38.493-21.627c3.067-3.304,4.608-5.78,4.608-7.415C450.784,151.536,446.447,150.527,437.767,150.527z
			"/>
		<path fill="none" d="M463.222,186.854c0.369,0,1.054-0.13,2.053-0.394c2.189-0.566,4.288-1.082,6.316-1.554
			c-3.155,0.564-6.224,1.058-9.211,1.483C462.547,186.686,462.815,186.854,463.222,186.854z"/>
		<path fill="none" d="M160.898,174.494c-2.683-6.473-7.473-9.709-14.365-9.709c-4.105,0-9.235,1.026-15.392,3.078
			c-4.6,1.521-8.811,3.285-12.642,5.286c0.025,1.005,0.392,2.157,1.119,3.464c4.419,8.157,10.498,12.232,18.234,12.232
			c6.314,0,13.232-1.629,20.758-4.893c0.955-0.421,1.848-0.854,2.704-1.294c0.452-1.158,0.689-2.353,0.689-3.586
			C162.004,177.704,161.635,176.178,160.898,174.494z"/>
		<path fill="#F0AD4F" d="M217.233,166.431l9.788-12.472c0.387-0.49,0.757-0.956,1.113-1.403c-2.383,1.088-3.951,2.011-4.665,2.759
			c-1.054,1.104-3.265,3.787-6.63,8.051l-9.788,12.472c-0.632,0.812-1.238,1.592-1.825,2.347c0.052,1.515,0.134,2.679,0.246,3.479
			C207.419,179.087,211.34,174.009,217.233,166.431z"/>
		<path fill="#D3332E" stroke="#EFEEEE" stroke-width="3" stroke-miterlimit="10" d="M183.237,167.738
			c0.841-2.469,1.262-4.887,1.262-7.252c0-0.782-0.043-1.543-0.122-2.288c-0.467-4.468-2.332-8.292-5.602-11.467
			c-3.816-3.705-8.616-5.557-14.404-5.557c-8.367,0-17.631,2.469-27.785,7.409c-9.994,4.77-17.891,10.572-23.691,17.411
			c-0.4,0.473-0.791,0.948-1.173,1.429c-2.315,2.89-3.866,5.597-4.657,8.118c-0.354,1.058-0.575,2.111-0.675,3.155
			c0.836-0.309,1.678-0.608,2.512-0.92c2.198,0,3.298,1.237,3.298,3.712c0,0.822-0.104,1.579-0.309,2.266
			c-0.7,2.188-1.811,4.198-3.327,6.037c1.286,2.799,3.112,5.225,5.487,7.272c4.446,3.835,10.168,5.754,17.167,5.754
			c9.839,0,19.969-3.258,30.389-9.772c1.438-0.907,2.807-1.835,4.111-2.784c0.558-0.404,1.1-0.812,1.631-1.228
			C175.356,182.832,180.654,175.733,183.237,167.738z M161.313,182.659c-0.855,0.439-1.749,0.872-2.705,1.294
			c-7.525,3.265-14.444,4.893-20.757,4.893c-7.736,0-13.814-4.075-18.234-12.232c-0.727-1.306-1.093-2.459-1.119-3.464
			c-0.011-0.455,0.041-0.882,0.171-1.272c0.632-1.946,2.92-4.077,6.867-6.395c4.629-2.735,9.893-5.078,15.787-7.025
			c6.157-2.051,11.287-3.077,15.393-3.077c6.892,0,11.681,3.236,14.365,9.709c0.736,1.686,1.104,3.209,1.104,4.578
			C172.185,174.608,168.554,178.939,161.313,182.659z"/>
		<path fill="#D3332E" stroke="#EFEEEE" stroke-width="3" stroke-miterlimit="10" d="M240.281,198.004
			c2.103-2.368,3.393-4.288,3.867-5.763c0.368-1.157,0.317-2.236-0.159-3.236c-0.86-1.648-1.421-4.025-1.695-7.095
			c-0.128-1.433-0.2-3.002-0.2-4.745c0-1.367,0.051-3.105,0.158-5.211c0.105-2.892,0.158-4.498,0.158-4.814
			c0.05-1.788,0.445-4.761,1.184-8.917c0.631-3.947,0.947-6.999,0.947-9.158c0-4.946-0.762-7.473-2.289-7.577
			c-4.684,1.844-7.55,3.315-8.604,4.422c-0.93,0.978-2.773,3.196-5.518,6.645c-0.355,0.448-0.725,0.914-1.112,1.404l-9.787,12.471
			c-5.895,7.58-9.814,12.658-11.761,15.233c-0.111-0.803-0.193-1.965-0.245-3.479c-0.096-2.762-0.093-6.7,0.01-11.832
			c0.157-8.209,0.473-13.458,0.946-15.747c0.473-2.288,0.711-3.642,0.711-4.064c0-1.524-0.788-2.289-2.368-2.289
			c-0.896,0-2.553,0.526-4.973,1.579c-2.789,1.159-4.538,2.249-5.248,3.276c-0.711,1.024-1.381,2.485-2.014,4.379
			c-0.073,0.225-0.17,0.468-0.252,0.698c-0.697,1.948-1.729,4.15-3.14,6.643c-1.315,2.316-2.684,4.632-4.105,6.946
			c-3.946,6.632-6.998,11.551-9.155,14.76c-2.738,4.368-4.761,7.655-6.078,9.867c-0.578,0.736-1.13,1.474-1.658,2.209
			c-0.683,0.843-1.026,1.687-1.026,2.527c0,1.156,0.409,2.339,1.224,3.552c0.741,1.099,1.56,1.694,2.452,1.795
			c0.089,0.009,0.179,0.021,0.271,0.021c0.947,0,2.789-1.42,5.525-4.262c2.26-2.368,3.892-4.342,4.893-5.922
			c0.377-0.519,0.756-1.112,1.136-1.76c0.464-0.794,0.926-1.674,1.39-2.659c3.049-6.419,6.103-11.892,9.156-16.417
			c-0.054,0.265-0.133,1.947-0.237,5.05c-0.106,2.896-0.159,5.396-0.159,7.5c0,12.102,1.684,18.153,5.053,18.153
			c0.451,0,0.935-0.093,1.442-0.258c1.741-0.562,3.811-2.073,6.214-4.557c2.682-2.842,4.523-5.367,5.524-7.577
			c2.526-3.524,4.42-6.183,5.682-7.974c1.257-1.657,2.421-3.186,3.51-4.61c6.606-8.652,10.101-12.988,10.461-12.988
			c0.105,0,0.105,0.289,0,0.867c-0.156,0.896-0.237,1.5-0.237,1.815c-0.106,2.211-0.198,3.803-0.277,4.775
			c-0.079,0.974-0.118,2.514-0.118,4.617c0,6.156,0.263,11.524,0.79,16.104c0.734,5.926,1.833,9.091,3.3,9.5
			c0.107,0.029,0.218,0.048,0.331,0.048c0.659,0,1.399-0.241,2.212-0.699C237.553,200.61,238.839,199.538,240.281,198.004z"/>
		<path fill="#D3332E" stroke="#EFEEEE" stroke-width="3" stroke-miterlimit="10" d="M258.31,190.505
			c0.368-1.051,0.632-2.392,0.789-4.024c0.36-2.997,1.106-6.628,2.233-10.891c0.852-3.218,1.921-6.797,3.214-10.737
			c1.683-4.42,3.024-7.734,4.026-9.945c0.159-0.524,0.237-1.445,0.237-2.761c0-1.684-0.185-3.184-0.552-4.501
			c-0.473-1.578-1.157-2.367-2.053-2.367c-0.58,0-1.341,0.158-2.288,0.475c-3.051,2.367-4.972,4.342-5.76,5.919
			c-0.04,0.113-0.42,1.256-1.141,3.417c-0.28,0.839-0.608,1.829-0.991,2.977c-1.474,5.526-2.501,9.684-3.079,12.473
			c-0.738,3.313-1.843,7.261-3.315,11.839c-1.263,3.947-2.526,7.894-3.789,11.839c-1,3.105-1.421,4.894-1.263,5.367
			c0.263,0.735,1.014,1.461,2.249,2.172c0.147,0.083,0.28,0.147,0.42,0.221c1.042,0.554,1.923,0.845,2.618,0.845
			c0.526,0,1.26-0.586,2.188-1.718c0.747-0.909,1.618-2.166,2.627-3.806C256.678,194.136,257.888,191.875,258.31,190.505z"/>
		<path fill="#D3332E" stroke="#EFEEEE" stroke-width="3" stroke-miterlimit="10" d="M316.314,183.399
			c-0.63,0-1.341,0.186-2.131,0.554c-0.948,0.386-1.844,0.742-2.708,1.079c-3.254,1.275-5.91,2.207-7.947,2.787
			c-3.526,0.896-7.104,1.342-10.735,1.342c-4.841,0-8.84-0.788-11.998-2.365c-3.526-1.843-5.631-4.551-6.314-8.13
			c-0.157-1.055-0.107-2.053,0.158-3.001c0.133-0.399,0.322-0.814,0.559-1.243c1.535-2.775,5.24-6.123,11.124-10.045
			c6.262-4.156,11.55-6.813,15.864-7.973c3.104-0.788,5.814-1.185,8.13-1.185c2.263,0,4.525,1.146,6.788,3.435
			c0.813,0.823,1.527,1.493,2.152,2.019c1.109,0.938,1.92,1.415,2.427,1.415c1.263,0,2.788-0.974,4.578-2.921
			c1.473-1.736,2.449-3.264,2.922-4.577c0.631-1.842,0.525-3.368-0.317-4.578c-1.999-2.631-3.525-4.55-4.579-5.762
			c-1.63-2.157-4.051-3.235-7.26-3.235c-10.999,0-24.522,6.814-40.57,20.442c-2.308,1.96-4.356,3.996-6.162,6.105
			c-3.667,4.288-6.301,8.883-7.89,13.786c-0.684,1.945-1.025,3.815-1.025,5.604c0,5.366,2.814,9.497,8.445,12.391
			c4.578,2.421,9.892,3.633,15.944,3.633c5.789,0,11.707-1.028,17.759-3.079c1.521-0.523,2.927-1.089,4.22-1.693
			c5.605-2.618,9.093-6.001,10.462-10.147c0.148-0.45,0.226-0.901,0.27-1.353c0.018-0.18,0.045-0.361,0.045-0.542
			C318.524,184.322,317.786,183.399,316.314,183.399z"/>
		<path fill="#D3332E" stroke="#EFEEEE" stroke-width="3" stroke-miterlimit="10" d="M368.458,169.193
			c-4.576-1.946-9.997-3.236-16.258-3.867c-2.768-0.308-5.133-0.589-7.114-0.847c-2.088-0.271-3.747-0.516-4.962-0.733
			c13.786-8.787,23.626-13.18,29.521-13.18c1.945,0,3.63,0.421,5.05,1.262c0.476,0.294,1.062,0.764,1.744,1.389
			c0.296,0.272,0.605,0.565,0.941,0.901c0.84,0.843,1.55,1.263,2.131,1.263c0.84,0,2.131-1.052,3.868-3.157
			c1.631-1.946,2.59-3.408,2.88-4.382c0.29-0.972,0.435-1.933,0.435-2.88c0-2.474-0.869-4.618-2.604-6.432
			c-1.737-1.815-3.763-2.724-6.077-2.724c-3.841,0-9.604,1.765-17.287,5.288c-6.418,2.948-11.918,5.947-16.496,9
			c-8.314,5.473-14.551,9.576-18.708,12.312c-1.261,0.788-2.578,2.079-3.945,3.867c-0.715,0.936-1.294,1.796-1.751,2.587
			c-0.415,0.721-0.732,1.388-0.933,1.99c-0.21,0.632-0.315,1.186-0.315,1.658c0,0.947,0.446,1.711,1.341,2.287
			c2.053,1.316,6.762,2.396,14.129,3.236c7.84,0.842,12.496,1.369,13.971,1.578c5.26,0.846,9.55,2.052,12.863,3.632
			c-3.42,1.736-7.603,3.158-12.547,4.262c-3.782,0.882-7.136,1.405-10.08,1.585c-0.743,0.045-1.468,0.074-2.156,0.074
			c-1.393,0-2.562-0.264-3.521-0.772c-0.418-0.223-0.799-0.488-1.135-0.807c-0.367-0.369-0.975-1.314-1.816-2.843
			c-0.579-0.999-1.315-1.499-2.21-1.499c-0.948,0-2.209,1.026-3.789,3.078c-0.275,0.349-0.525,0.678-0.759,1
			c-0.972,1.331-1.592,2.433-1.845,3.302c-0.317,1.079-0.474,2.091-0.474,3.038c0,1.217,0.249,2.326,0.717,3.336
			c0.586,1.256,1.522,2.36,2.833,3.296c2.158,1.472,4.63,2.209,7.421,2.209c6.104,0,13.076-1.368,20.917-4.105
			c4.917-1.745,9.16-3.732,12.743-5.96c2.897-1.803,5.36-3.762,7.385-5.878c2.157-2.264,3.525-4.368,4.105-6.316
			C378.195,175.718,375.458,172.036,368.458,169.193z"/>
		<path fill="#D3332E" stroke="#EFEEEE" stroke-width="3" stroke-miterlimit="10" d="M502.845,189.224
			c0.949-1.421,1.526-2.5,1.738-3.236c0.033-0.138,0.037-0.275,0.051-0.413c0.007-0.074,0.025-0.147,0.025-0.221
			c0-1.156-1.13-2.182-3.394-3.076c-0.657-0.253-1.277-0.442-1.879-0.602c-1.032-0.271-1.991-0.426-2.856-0.426
			c-6.209,0-14.53,1.222-24.942,3.656c-2.028,0.472-4.127,0.987-6.315,1.554c-1,0.264-1.685,0.394-2.053,0.394
			c-0.407,0-0.677-0.168-0.842-0.465c-0.113-0.204-0.183-0.457-0.183-0.798c0-0.42,0.474-2.052,1.42-4.893
			c0.421-1.212,1.264-2.054,2.527-2.527c0.682-0.264,1.865-0.525,3.55-0.79c5.685-0.736,11.683-1.737,17.997-2.999
			c5.21-1.105,9.576-1.658,13.105-1.658c0.682,0,1.655,0.094,2.921,0.276c0.122,0.019,0.225,0.029,0.341,0.047
			c1.086,0.15,1.927,0.229,2.499,0.229c1.736,0,3.522-1.026,5.367-3.079c1.473-1.629,2.42-3.104,2.842-4.421
			c0.051-0.209,0.077-0.418,0.077-0.63c0-0.947-0.644-1.815-1.932-2.606c-1.292-0.787-2.975-1.302-5.054-1.537
			c-0.869-0.099-1.869-0.178-2.976-0.235c-1.533-0.079-3.285-0.12-5.27-0.12c-8.684,0-16.603,0.71-23.759,2.13
			c-0.264,0.054-1.262,0.344-2.999,0.869c-1.211,0.369-2.187,0.553-2.921,0.553c-0.948,0-1.42-0.237-1.42-0.711
			c0-0.368,0.222-1.208,0.671-2.524c0.445-1.314,0.958-2.105,1.54-2.369c1.419-0.631,3.076-1.104,4.973-1.42
			c1.63-0.262,3.287-0.525,4.972-0.79c0.948-0.157,5.392-1.104,13.34-2.841c5.366-1.158,9.76-1.736,13.182-1.736
			c0.576,0,1.433,0.066,2.563,0.196c0.113,0.014,0.209,0.024,0.316,0.034c0.97,0.108,1.729,0.165,2.25,0.165
			c1.738,0,3.524-1.034,5.369-3.098c1.579-1.589,2.577-3.019,2.999-4.289c0.051-0.265,0.078-0.502,0.078-0.716
			c0-1.004-0.646-1.905-1.934-2.699c-1.292-0.795-2.948-1.311-4.973-1.55c-2.028-0.238-4.802-0.356-8.328-0.356
			c-10.368,0-20.049,1.158-29.047,3.476c-0.452-0.323-0.871-0.604-1.279-0.869c-1.819,4.334-4.776,8.816-8.887,13.449
			c-2.692,2.991-5.46,5.86-8.292,8.618c-0.283,1.206-0.527,2.292-0.721,3.222c-0.894,3.582-2.05,7.692-3.472,12.328
			c-0.685,2.267-2.001,6.401-3.947,12.409c-0.209,0.526-0.524,1.646-0.947,3.358c-0.419,1.71-0.735,2.778-0.947,3.2
			c0.212,1,1.42,2.079,3.63,3.238c1.999,1.107,3.419,1.661,4.262,1.661c0.895-0.16,2.041-0.566,3.433-1.224
			c1.394-0.658,2.407-1.065,3.039-1.224c5.473-1.209,11.13-2.815,16.971-4.814c5.587-1.913,10.42-2.899,14.517-2.981
			c0.185-0.004,0.375-0.018,0.561-0.018c0.159,0,0.472,0.027,0.947,0.078c0.475,0.054,0.839,0.08,1.105,0.08
			c1.15,0,2.198-0.281,3.158-0.827c0.27-0.152,0.535-0.318,0.791-0.517C501.083,191.616,501.896,190.644,502.845,189.224z"/>
		<path fill="#D3332E" stroke="#EFEEEE" stroke-width="3" stroke-miterlimit="10" d="M512.776,195.102
			c1.42-2.577,2.552-3.919,3.393-4.024c1.316-0.158,5.104-0.71,11.364-1.657c4.632-0.735,8.394-1.104,11.289-1.104
			c2.135,0,3.846,0.005,5.127,0.014c-0.389-3.701-0.592-7.458-0.592-11.267c0-0.426,0.009-0.853,0.016-1.278
			c-0.357,0.053-0.727,0.104-1.104,0.154c-0.573,0.076-1.167,0.149-1.789,0.22c-4,0.474-7.737,0.714-11.208,0.714
			c-2.58,0-3.815-0.159-3.71-0.475c0.138-0.52,0.498-1.162,1.069-1.923c1.63-2.163,5.019-5.295,10.179-9.403
			c3.217-2.562,5.898-4.525,8.058-5.905c0.865-5.094,2.096-10.062,3.661-14.881c-0.951,0.553-1.87,1.257-2.76,2.12
			c-2.476,2.367-3.947,3.736-4.421,4.104c-6.151,4.29-11.88,9.191-17.181,14.709c-4.134,4.3-8.011,8.975-11.63,14.021
			c-1.314,1.104-2.13,2.288-2.446,3.553c-4.157,6.261-6.657,11.077-7.499,14.442c-0.159,0.474-0.238,0.948-0.238,1.422
			c0,1.865,0.747,2.808,2.224,2.836c0.023,0,0.042,0.005,0.067,0.005c0.685,0,1.42-0.132,2.208-0.395
			c0.559-0.267,1.096-0.587,1.612-0.957C510.102,198.979,511.538,197.3,512.776,195.102z"/>
		<path fill="#D3332E" stroke="#EFEEEE" stroke-width="3" stroke-miterlimit="10" d="M42.542,183.341
			c0,6.595,2.919,11.608,8.758,15.046c5.084,2.953,11.541,4.431,19.374,4.431c7.693,0,15.215-1.203,22.568-3.607
			c1.581-0.53,3.053-1.108,4.443-1.72c4.742-2.091,8.375-4.656,10.882-7.699c1.516-1.84,2.627-3.851,3.327-6.038
			c0.206-0.688,0.309-1.442,0.309-2.266c0-2.474-1.1-3.711-3.298-3.711c-0.834,0.312-1.675,0.612-2.512,0.919
			c-2.676,0.986-5.36,1.952-8.06,2.902c-1.114,0.392-2.221,0.79-3.34,1.176c-4.672,1.615-9.344,2.423-14.015,2.423
			c-5.771,0-10.547-1.065-14.324-3.195c-4.122-2.268-6.562-5.668-7.316-10.203c-0.275-1.648-0.173-3.262,0.309-4.842
			c0.276-0.856,0.769-1.781,1.469-2.771c3.118-4.41,10.421-10.15,21.923-17.221c6.733-4.121,13.192-6.184,19.374-6.184
			c2.815,0,5.599,1.495,8.348,4.483c2.63,2.862,4.531,4.339,5.713,4.458c0.052,0.005,0.11,0.024,0.159,0.024
			c1.579,0,3.607-1.305,6.08-3.915c2.199-2.336,3.57-4.328,4.124-5.977c0.204-0.687,0.308-1.373,0.308-2.062
			c0-1.443-1.1-3.674-3.296-6.698l-4.328-5.977c-1.856-1.786-4.365-2.68-7.523-2.68c-13.466,0-30.194,8.795-50.187,26.38
			c-2.053,1.814-3.942,3.667-5.681,5.556c-5.77,6.263-9.823,12.928-12.145,20C43.023,177.607,42.542,180.593,42.542,183.341z"/>
		<path fill="#D3332E" stroke="#EFEEEE" stroke-width="3" stroke-miterlimit="10" d="M398.804,160.398
			c-0.875,3.429-2.659,9.519-5.35,18.266c-2.891,9.553-4.875,15.573-5.953,18.062c-0.537,1.211-0.808,2.288-0.808,3.231
			c0,1.814,1.11,2.725,3.329,2.725c3.163,0,8.41-1.413,15.744-4.238c5.785-2.222,10.798-4.477,15.036-6.763
			c9.589-5.194,18.624-11.328,27.106-18.388c3.464-2.884,6.835-5.927,10.115-9.122c2.832-2.758,5.598-5.627,8.292-8.618
			c4.112-4.632,7.068-9.115,8.888-13.448c0.292-0.7,0.567-1.399,0.8-2.091c0.809-2.288,1.21-4.475,1.21-6.561
			c0.067-6.929-7.031-10.395-21.294-10.395c-19.172,0-32.325,0.909-39.456,2.726c-3.893,1.019-7.244,4.144-10.049,9.374
			c-1.27,2.365-2.428,5.16-3.474,8.387C400.987,151.011,399.609,156.631,398.804,160.398z M446.175,160.97
			c-12.194,10.032-25.023,17.248-38.491,21.627c-1.145,0.406-1.951,0.643-2.422,0.709c0.54-5.652,3.195-15.81,7.972-30.478
			c0.164-0.508,0.322-0.988,0.476-1.458c1.682-5.122,2.784-7.938,3.312-8.431c0.567-0.539,5.564-1.009,14.983-1.413
			c6.997-0.268,12.313-0.403,15.945-0.403c8.68,0,13.018,1.009,13.018,3.027c0,2.825-4.574,8.139-13.725,15.944
			C446.889,160.393,446.529,160.678,446.175,160.97z"/>
		<g>
			<path fill="#EE9D28" d="M552.72,163.443c0-2.407-0.191-5.035-0.571-7.885c-0.378-2.532-0.712-4.1-0.998-4.702
				c-0.283-0.6-0.65-0.903-1.092-0.903c-1.883,0-5.607,2.058-11.149,6.146c0.01,2.238,0.076,4.466,0.203,6.676
				c0.235,0.812,0.496,2.174,0.787,4.103c0.291,2.191,0.465,4.249,0.537,6.175c5.482-0.728,9.073-1.686,10.763-2.866
				C552.212,169.425,552.72,167.179,552.72,163.443z"/>
			<path fill="#EE9D28" d="M549.203,199.534c0-1.33,0.287-3.164,0.858-5.509c0.189-0.759,0.283-1.454,0.283-2.09
				c0-2.087-1.486-3.387-4.463-3.895c-0.253-0.03-1.187-0.053-2.794-0.073c1.676,6.373,3.832,12.554,6.425,18.495
				c0.703-1.15,1.224-2.248,1.562-3.303C549.837,202.75,549.203,201.547,549.203,199.534z"/>
			<path fill="#EE9D28" d="M577.126,202.906c-1.52,0.632-3.861,1.486-7.031,2.566c-0.631,0.188-1.169,0.284-1.611,0.284
				c-1.33,0-2.69-0.634-4.085-1.9c-1.392-1.268-2.088-2.595-2.088-3.988c-0.127-0.697-0.033-1.521,0.281-2.47
				c0.19-0.57,0.523-1.441,1-2.613c0.475-1.172,0.807-2.074,0.999-2.706c2.342-7.154,3.923-12.096,4.747-14.82
				c1.708-5.633,3.102-10.602,4.179-14.91c0.82-3.673,2.215-9.181,4.178-16.527c0.506-1.608,0.956-2.979,1.352-4.13
				c-0.35-0.393-0.735-0.602-1.161-0.602c-0.505,0-1.234,0.222-2.183,0.662c-3.8,3.169-6.238,5.605-7.315,7.315
				c-0.445,0.742-1.144,2.56-2.089,5.422c0,0.171,0.002,0.328,0.002,0.5c0,17.035-0.949,29.191-2.849,36.473
				c-0.635,2.218-2.091,4.653-4.369,7.314c-2.448,2.937-4.687,4.441-6.719,4.54c-0.01,0.028-0.017,0.055-0.025,0.08
				c-0.19,0.635-0.522,1.537-0.999,2.705c-0.421,1.043-0.724,1.832-0.919,2.396c1.282,2.804,2.661,5.552,4.135,8.242
				c0.564,0.219,1.123,0.333,1.676,0.333c0.442,0,0.979-0.094,1.616-0.284c3.164-1.077,5.507-1.933,7.028-2.563
				c0.379-0.127,5.89-2.061,16.527-5.794c6.775-2.342,12.19-3.516,16.241-3.516c2.533,0,4.433-0.536,5.701-1.613
				c0.76-0.569,1.708-1.806,2.847-3.707c0.952-1.581,1.551-2.755,1.807-3.513c0.122-0.507,0.189-0.918,0.189-1.237
				c0-0.416-0.071-0.803-0.203-1.16c-3.795,0.297-8.564,1.434-14.332,3.427C583.017,200.85,577.507,202.778,577.126,202.906z"/>
			<path fill="#EE9D28" d="M686.956,144.018c-4.115,0-9.401,0.697-15.861,2.089c-9.562,2.09-14.912,3.229-16.053,3.422
				c-2.026,0.315-4.021,0.632-5.985,0.947c-2.277,0.38-4.272,0.95-5.982,1.71c-0.699,0.318-1.313,1.269-1.851,2.848
				c-0.539,1.584-0.809,2.599-0.809,3.041c0,0.57,0.572,0.855,1.71,0.855c0.888,0,2.056-0.221,3.514-0.664
				c2.09-0.633,3.293-0.982,3.61-1.043c8.61-1.712,18.142-2.566,28.592-2.566c2.386,0,4.496,0.05,6.341,0.146
				c1.038-0.619,2.089-1.521,3.156-2.718c1.899-1.912,3.101-3.632,3.61-5.16c0.065-0.318,0.092-0.606,0.092-0.861
				c0-0.622-0.208-1.208-0.615-1.766c-0.13-0.015-0.247-0.025-0.381-0.04C688.682,144.097,687.654,144.018,686.956,144.018z"/>
			<path fill="#EE9D28" d="M633.008,203.383c-0.761,0.187-1.98,0.678-3.656,1.468c-1.681,0.794-3.057,1.284-4.133,1.476
				c-1.015,0-2.725-0.667-5.129-1.998c-2.661-1.396-4.114-2.693-4.368-3.901c0.254-0.505,0.631-1.791,1.139-3.849
				c0.507-2.062,0.888-3.409,1.142-4.045c2.342-7.226,3.926-12.201,4.748-14.928c1.708-5.581,3.104-10.523,4.178-14.835
				c0.76-3.679,2.121-9.162,4.085-16.454c0.426-1.517,0.82-3.071,1.223-4.614c-0.338-0.084-0.659-0.138-0.938-0.138
				c-0.444,0-1.71,0.381-3.799,1.142c-3.737,3.107-5.984,5.58-6.745,7.416c-0.634,2.537-1.298,5.04-1.993,7.514
				c-1.965,7.29-3.323,12.774-4.086,16.45c-0.396,1.587-0.836,3.257-1.313,5.014c1.519,0.08,2.932,0.375,4.226,0.912
				c1.899,0.762,2.848,1.934,2.848,3.517c0,0.319-0.064,0.728-0.186,1.233c-0.257,0.762-0.858,1.935-1.805,3.514
				c-1.141,1.901-2.091,3.137-2.852,3.706c-1.266,1.078-3.167,1.615-5.699,1.615c-0.274,0-0.569,0.021-0.86,0.029
				c-0.846,2.67-1.936,6.063-3.284,10.228c-0.254,0.632-0.632,1.981-1.139,4.04c-0.507,2.06-0.887,3.345-1.139,3.853
				c0.251,1.204,1.706,2.506,4.366,3.899c2.404,1.331,4.114,1.997,5.129,1.997c1.077-0.191,2.452-0.682,4.13-1.474
				c1.679-0.792,2.9-1.281,3.659-1.471c6.584-1.457,13.392-3.39,20.42-5.794c7.031-2.405,13.075-3.608,18.143-3.608
				c0.188,0,0.569,0.029,1.139,0.094c0.572,0.065,1.012,0.095,1.33,0.095c1.771,0,3.356-0.537,4.75-1.616
				c0.823-0.631,1.804-1.802,2.943-3.513c1.142-1.71,1.837-3.008,2.088-3.896c0.064-0.254,0.095-0.505,0.095-0.761
				c0-0.599-0.265-1.163-0.766-1.702c-4.929,0.099-10.745,1.286-17.469,3.589C646.399,199.991,639.594,201.925,633.008,203.383z"/>
			<path fill="#EE9D28" d="M679.263,169.188c-4.243,0-9.498,0.664-15.766,1.995c-7.598,1.517-14.817,2.722-21.655,3.607
				c-2.03,0.317-3.454,0.635-4.274,0.951c-1.52,0.57-2.534,1.584-3.039,3.041c-1.141,3.417-1.71,5.383-1.71,5.886
				c0,0.412,0.085,0.716,0.219,0.961c3.598-0.514,7.296-1.108,11.092-1.79c12.524-2.926,22.537-4.396,30.006-4.396
				c1.04,0,2.192,0.183,3.437,0.512c0.932-0.604,1.874-1.425,2.831-2.489c0.288-0.318,0.55-0.631,0.806-0.938
				c0.392-1.913,0.923-4.253,1.596-7.006c-0.009-0.002-0.018-0.002-0.025-0.004C681.257,169.297,680.083,169.188,679.263,169.188z"
				/>
			<path fill="#EE9D28" d="M731.29,176.406c0.822,0.725,1.856,1.642,3.088,2.741c0.444-0.268,0.845-0.515,1.187-0.731
				c8.248-5.241,14.489-10.494,18.75-15.76c-2.012,1.482-4.169,2.961-6.498,4.442C745.22,168.746,739.709,171.849,731.29,176.406z"
				/>
			<path fill="#EE9D28" d="M720.746,193.22c-2.218-1.52-4.97-3.009-8.263-4.465c-3.928-1.644-7.061-2.471-9.405-2.471
				c-0.379,0-0.537-0.062-0.473-0.188c-0.191,0.254-0.633,1.3-1.332,3.136c-1.445,3.943-2.844,7.154-4.197,9.644
				c0.988,0.336,2.037,0.732,3.155,1.201c3.292,1.456,6.047,2.943,8.263,4.462c3.421,2.279,5.571,3.672,6.458,4.179
				c2.472,1.267,5.098,1.9,7.884,1.9c1.962,0,4.941-0.379,8.927-1.14c1.774-2.725,2.662-4.562,2.662-5.51
				c0-0.761-0.333-1.456-0.998-2.09c-0.664-0.632-1.281-1.265-1.854-1.896c-0.354-0.432-0.728-0.868-1.116-1.312
				c-1.113-0.313-2.197-0.73-3.25-1.27C726.319,196.893,724.167,195.498,720.746,193.22z"/>
			<path fill="#EE9D28" d="M683.133,199.961c0-0.885,0.416-2.53,1.239-4.938c0.504-1.772,1.374-4.402,2.609-7.886
				c1.235-3.481,2.139-6.075,2.706-7.787c1.584-4.688,2.755-8.96,3.516-12.823c0.079-0.414,0.166-0.855,0.258-1.318
				c-0.251,0.308-0.516,0.618-0.804,0.938c-2.218,2.468-4.368,3.704-6.458,3.704c-0.759,0-1.888-0.111-3.395-0.329
				c-0.671,2.753-1.204,5.092-1.596,7.005c-0.094,0.466-0.179,0.905-0.258,1.318c-0.193,0.984-0.415,1.992-0.662,3.031
				c2.407,1.027,3.626,2.197,3.626,3.507c0,0.255-0.032,0.509-0.092,0.761c-0.256,0.887-0.952,2.187-2.09,3.894
				c-1.139,1.71-2.121,2.883-2.944,3.515c-0.751,0.581-1.563,0.992-2.427,1.261c-0.459,1.317-1.003,2.864-1.633,4.646
				c-1.235,3.483-2.102,6.112-2.612,7.885c-0.82,2.407-1.235,4.051-1.235,4.938c0,1.899,1.173,3.261,3.516,4.085
				c2.088,0.821,3.386,1.234,3.893,1.234c2.817,0,5.897-4.07,9.244-12.212c-0.279-0.105-0.569-0.218-0.887-0.342
				C684.307,203.224,683.133,201.86,683.133,199.961z"/>
			<path fill="#EE9D28" d="M717.042,146.772c-0.823,0.191-2.089,2.85-3.797,7.979l-0.733,2.308
				c4.296-0.324,9.827-0.486,16.595-0.486c6.31,0,10.738,0.078,13.301,0.232c4.078-2.13,7.939-4.492,11.581-7.087
				c2.027-1.456,3.168-2.501,3.421-3.135c0.062-0.379,0-0.631-0.19-0.759c-0.699-0.38-5.985-0.569-15.862-0.569
				C729.391,145.254,721.283,145.762,717.042,146.772z"/>
			<path fill="#EE9D28" d="M693.843,156.934c0.517,0.317,0.936,0.645,1.282,0.98c0.468-1.905,0.993-3.996,1.593-6.297
				c0.251-0.762,0.677-1.948,1.281-3.564c0.603-1.613,1.028-2.83,1.282-3.656c0.08-0.234,0.194-0.489,0.318-0.749
				c-0.011,0.002-0.022,0.003-0.033,0.005c-2.09,0.254-4.621,1.994-7.597,5.224c-2.368,2.531-3.917,4.583-4.657,6.156
				c0.15,0.019,0.309,0.031,0.454,0.048C690.264,155.367,692.29,155.985,693.843,156.934z"/>
		</g>
		<g>
			<path fill="#D3332E" stroke="#EFEEEE" stroke-width="4" stroke-miterlimit="10" d="M559.083,198.776
				c2.28-2.661,3.734-5.097,4.369-7.314c1.899-7.281,2.849-19.438,2.849-36.473c0-0.172-0.002-0.33-0.002-0.5
				c-0.027-15.171-1.293-22.77-3.797-22.77c-0.509,0-2.028,0.287-4.559,0.855c-3.039,0.571-5.318,0.918-6.837,1.045
				c-2.28,0.633-4.435,1.932-6.459,3.893c-2.628,2.518-4.313,4.092-5.066,4.731c-0.448,4.346-0.679,8.756-0.679,13.221
				c0,0.212,0.007,0.424,0.009,0.636c5.542-4.089,9.266-6.146,11.149-6.146c0.442,0,0.809,0.302,1.092,0.902
				c0.283,0.604,0.618,2.172,0.998,4.702c0.38,2.85,0.569,5.478,0.569,7.885c0,3.735-0.506,5.981-1.521,6.745
				c-1.688,1.18-5.279,2.137-10.761,2.865c-0.108,0.015-0.214,0.027-0.321,0.043c0.698,5.062,1.696,10.024,2.971,14.874
				c1.607,0.019,2.539,0.042,2.792,0.072c2.976,0.509,4.465,1.807,4.465,3.896c0,0.635-0.094,1.331-0.285,2.091
				c-0.569,2.343-0.856,4.18-0.856,5.51c0,2.01,0.633,3.213,1.872,3.625c0.321,0.106,0.671,0.173,1.074,0.173
				c0.069,0,0.143-0.018,0.212-0.02C554.396,203.217,556.633,201.713,559.083,198.776z"/>
			<path fill="#D3332E" stroke="#EFEEEE" stroke-width="4" stroke-miterlimit="10" d="M615.594,191.982
				c0.76-0.567,1.711-1.804,2.85-3.707c0.949-1.579,1.548-2.752,1.805-3.513c0.124-0.505,0.186-0.915,0.186-1.233
				c0-1.582-0.947-2.755-2.846-3.515c-1.294-0.538-2.707-0.835-4.228-0.914c-0.268-0.016-0.531-0.036-0.807-0.036
				c-6.648,0-16.434,1.805-29.35,5.413c-1.646,0.447-2.785,0.667-3.417,0.667c2.151-10.638,4.811-20.866,7.978-30.68
				c2.026-5.191,3.576-9.086,4.655-11.684l0.283-0.757c0.315-0.762,0.474-1.964,0.474-3.61c0-2.152-0.252-4.051-0.759-5.7
				c-0.569-1.96-1.33-2.942-2.282-2.942c-0.507,0-1.233,0.222-2.184,0.662c-3.797,3.17-6.235,5.605-7.312,7.315
				c-0.364,0.605-0.897,1.925-1.594,3.942c-0.398,1.151-0.848,2.521-1.352,4.13c-1.962,7.347-3.357,12.854-4.18,16.527
				c-1.077,4.308-2.469,9.276-4.177,14.91c-0.824,2.725-2.408,7.666-4.75,14.82c-0.191,0.632-0.521,1.534-0.998,2.706
				c-0.475,1.172-0.807,2.043-0.998,2.613c-0.316,0.948-0.41,1.772-0.283,2.47c0,1.394,0.695,2.721,2.088,3.988
				c1.395,1.267,2.754,1.9,4.085,1.9c0.442,0,0.982-0.096,1.613-0.284c3.167-1.08,5.509-1.935,7.029-2.566
				c0.38-0.126,5.889-2.056,16.526-5.793c5.768-1.993,10.537-3.13,14.332-3.427c0.361-0.029,0.708-0.044,1.051-0.059
				c0.289-0.01,0.583-0.029,0.86-0.029C612.427,193.599,614.326,193.062,615.594,191.982z"/>
			<path fill="#D3332E" stroke="#EFEEEE" stroke-width="4" stroke-miterlimit="10" d="M681.734,189.038
				c1.139-1.707,1.834-3.007,2.088-3.894c0.063-0.253,0.094-0.507,0.094-0.76c0-1.31-1.221-2.48-3.628-3.508
				c-0.152-0.065-0.292-0.134-0.454-0.197c-0.792-0.303-1.54-0.529-2.264-0.724c-1.243-0.327-2.395-0.512-3.435-0.512
				c-7.469,0-17.481,1.47-30.006,4.396c-2.444,0.572-4.975,1.192-7.606,1.875c-1.207,0.316-2.029,0.473-2.472,0.473
				c-0.491,0-0.816-0.2-1.014-0.558c-0.134-0.245-0.221-0.551-0.221-0.962c0-0.505,0.569-2.47,1.71-5.888
				c0.504-1.455,1.521-2.469,3.038-3.04c0.821-0.315,2.245-0.632,4.273-0.95c6.841-0.887,14.058-2.09,21.656-3.607
				c6.27-1.331,11.525-1.994,15.768-1.994c0.82,0,1.994,0.108,3.516,0.33c0.006,0.002,0.013,0.002,0.025,0.004
				c1.504,0.22,2.634,0.329,3.393,0.329c2.089,0,4.242-1.235,6.46-3.704c0.288-0.32,0.55-0.631,0.804-0.938
				c0.404-1.979,0.961-4.418,1.665-7.296c-0.346-0.336-0.766-0.663-1.282-0.98c-1.553-0.948-3.58-1.566-6.079-1.852
				c-0.146-0.017-0.302-0.029-0.454-0.048c-0.938-0.095-1.98-0.173-3.129-0.233c-1.845-0.097-3.955-0.146-6.341-0.146
				c-10.45,0-19.982,0.855-28.592,2.566c-0.316,0.061-1.52,0.411-3.61,1.042c-1.458,0.444-2.628,0.665-3.514,0.665
				c-1.139,0-1.71-0.285-1.71-0.855c0-0.442,0.27-1.456,0.809-3.041c0.538-1.58,1.155-2.53,1.851-2.848
				c1.71-0.76,3.706-1.33,5.982-1.71c1.964-0.315,3.958-0.632,5.985-0.948c1.141-0.191,6.491-1.331,16.053-3.422
				c6.46-1.391,11.744-2.088,15.861-2.088c0.698,0,1.727,0.078,3.087,0.238c0.133,0.015,0.251,0.025,0.377,0.039
				c1.168,0.129,2.083,0.197,2.709,0.197c2.091,0,4.241-1.242,6.459-3.727c1.899-1.911,3.101-3.633,3.61-5.162
				c0.064-0.318,0.094-0.604,0.094-0.86c0-1.21-0.776-2.292-2.329-3.248c-1.551-0.956-3.545-1.575-5.981-1.863
				c-2.437-0.287-5.779-0.431-10.021-0.431c-12.474,0-24.124,1.396-34.952,4.184c-2.914-2.09-5.064-3.138-6.459-3.138
				c-0.442,0-1.708,0.381-3.799,1.142c-3.737,3.106-5.982,5.579-6.743,7.416c-0.247,0.979-0.517,1.931-0.77,2.897
				c-0.404,1.544-0.798,3.097-1.226,4.614c-1.962,7.292-3.322,12.775-4.085,16.454c-1.074,4.312-2.469,9.253-4.178,14.833
				c-0.822,2.729-2.406,7.704-4.748,14.93c-0.254,0.635-0.632,1.983-1.139,4.045c-0.508,2.058-0.885,3.344-1.139,3.85
				c0.254,1.206,1.706,2.506,4.366,3.9c2.407,1.331,4.115,1.997,5.129,1.997c1.077-0.189,2.456-0.683,4.133-1.474
				c1.676-0.793,2.896-1.281,3.656-1.471c6.586-1.456,13.394-3.389,20.422-5.793c6.722-2.302,12.538-3.49,17.466-3.589
				c0.224-0.005,0.457-0.021,0.673-0.021c0.192,0,0.569,0.03,1.139,0.093c0.572,0.065,1.012,0.095,1.332,0.095
				c0.812,0,1.586-0.126,2.322-0.354c0.865-0.27,1.676-0.679,2.427-1.259C679.613,191.92,680.593,190.75,681.734,189.038z"/>
			<path fill="#D3332E" stroke="#EFEEEE" stroke-width="4" stroke-miterlimit="10" d="M711.819,132.336
				c-2.09,0.255-4.624,1.995-7.598,5.224c-2.335,2.497-3.868,4.524-4.622,6.09c-0.124,0.26-0.238,0.514-0.318,0.749
				c-0.254,0.824-0.68,2.042-1.282,3.655c-0.604,1.617-1.03,2.803-1.281,3.564c-0.6,2.301-1.125,4.392-1.593,6.298
				c-0.703,2.877-1.261,5.316-1.665,7.296c-0.094,0.462-0.18,0.903-0.26,1.317c-0.758,3.864-1.932,8.14-3.514,12.823
				c-0.569,1.711-1.471,4.304-2.706,7.787c-1.238,3.484-2.105,6.113-2.612,7.887c-0.822,2.406-1.236,4.052-1.236,4.938
				c0,1.899,1.174,3.262,3.514,4.084c0.317,0.125,0.607,0.237,0.887,0.342c1.57,0.594,2.578,0.894,3.008,0.894
				c2.041,0,4.217-2.14,6.534-6.407c1.353-2.49,2.752-5.7,4.197-9.644c0.699-1.837,1.141-2.882,1.332-3.135
				c-0.064,0.126,0.094,0.188,0.473,0.188c2.342,0,5.477,0.827,9.405,2.471c3.292,1.456,6.044,2.945,8.263,4.465
				c3.418,2.28,5.573,3.675,6.461,4.18c1.053,0.539,2.137,0.959,3.25,1.27c1.492,0.413,3.034,0.63,4.631,0.63
				c1.962,0,4.941-0.381,8.929-1.142c1.771-2.721,2.66-4.558,2.66-5.507c0-0.762-0.332-1.457-0.998-2.091
				c-0.666-0.632-1.284-1.265-1.851-1.899c-1.52-1.834-3.359-3.829-5.51-5.984c-1.489-1.337-2.799-2.511-3.941-3.526
				c-1.232-1.101-2.266-2.016-3.088-2.741c8.419-4.559,13.931-7.658,16.527-9.306c2.329-1.481,4.486-2.96,6.498-4.443
				c3.8-2.801,7.024-5.604,9.694-8.412c-0.484-8.166-1.821-16.1-3.931-23.715c-2.722-0.188-6.386-0.282-11.026-0.282
				C732.904,130.248,720.494,130.942,711.819,132.336z M757.411,146.583c-0.256,0.634-1.397,1.679-3.421,3.135
				c-3.642,2.594-7.503,4.957-11.581,7.087c-8.963,4.679-18.965,8.237-30.019,10.673c-1.076,0.253-1.896,0.38-2.471,0.38
				c-0.25,0-0.377-0.221-0.377-0.663c0-0.76,0.599-2.914,1.805-6.46l1.167-3.676l0.733-2.309c1.708-5.129,2.974-7.787,3.797-7.979
				c4.241-1.011,12.349-1.519,24.316-1.519c9.877,0,15.166,0.19,15.862,0.568C757.411,145.951,757.473,146.204,757.411,146.583z"/>
		</g>
		<g>
			<g id="XMLID_1_">
				<g>
					<path fill="#010202" d="M751.47,157.763c0-28.749-11.567-54.797-30.288-73.729c27.743,18.879,45.958,50.697,45.958,86.759
						c0,57.943-46.949,104.896-104.879,104.896c-29.194,0-55.596-11.936-74.606-31.193c16.792,11.438,37.08,18.121,58.937,18.121
						C704.508,262.616,751.47,215.682,751.47,157.763z"/>
					<path fill="#010202" d="M662.256,65.938c-57.917,0-104.842,46.964-104.842,104.855c0,28.737,11.542,54.759,30.239,73.702
						c-27.732-18.854-45.931-50.673-45.931-86.732c0-57.931,46.949-104.882,104.868-104.882c29.183,0,55.569,11.906,74.591,31.153
						C704.39,72.609,684.102,65.938,662.256,65.938z"/>
				</g>
				<g>
					<path fill="none" stroke="#010202" stroke-width="10" stroke-miterlimit="10" d="M721.182,84.034
						c18.721,18.932,30.288,44.978,30.288,73.729c0,57.919-46.962,104.855-104.879,104.855c-21.856,0-42.147-6.686-58.937-18.121
						c-27.732-18.855-45.931-50.674-45.931-86.733c0-57.931,46.949-104.881,104.868-104.881
						C675.77,52.881,702.156,64.787,721.182,84.034z"/>
					<path fill="none" stroke="#010202" stroke-width="10" stroke-miterlimit="10" d="M721.182,84.034
						c27.743,18.879,45.958,50.697,45.958,86.759c0,57.943-46.949,104.896-104.879,104.896c-29.194,0-55.596-11.936-74.606-31.193
						c-18.695-18.945-30.237-44.966-30.237-73.702c0-57.892,46.923-104.855,104.843-104.855
						C684.102,65.938,704.39,72.609,721.182,84.034z"/>
				</g>
			</g>
			<g>
				<path fill="#010202" stroke="#010202" stroke-width="2" stroke-miterlimit="10" d="M789.926,246.55
					c1.934,1.583,0.854,6.107-2.416,10.099l-18.737,22.889c-3.267,3.993-7.486,5.949-9.417,4.367l-32.097-26.272
					c-1.934-1.587-0.855-6.104,2.418-10.098l18.734-22.893c3.269-3.989,7.485-5.942,9.42-4.361L789.926,246.55z"/>
				<path fill="#010202" stroke="#010202" stroke-width="2" stroke-miterlimit="10" d="M763.677,208.97
					c1.934,1.581,0.854,6.103-2.415,10.095l-34.518,42.169c-3.269,3.992-7.486,5.949-9.417,4.363l-2.625-2.148
					c-1.934-1.583-0.853-6.104,2.413-10.093l34.52-42.172c3.266-3.992,7.485-5.945,9.419-4.362L763.677,208.97z"/>
			</g>
			<path fill="#448BCA" stroke="#448BCA" stroke-width="3" stroke-miterlimit="10" d="M573.593,143.143
				c-1.291-8.103-1.012-16.826,1.134-25.615c2.953-12.09,8.965-22.457,16.729-30.141c-19.475,3.175-37.051,20.262-42.841,43.988
				c-2.437,9.986-2.466,19.888-0.521,28.887C555.093,151.811,564.005,145.796,573.593,143.143z"/>
		</g>
	</g>
	<g>
		<g>
			<g>
				
					<image overflow="visible" opacity="0.75" width="1569" height="748" xlink:href="DCAFF3CE.png"  transform="matrix(0.24 0 0 0.24 764.2544 21.2695)">
				</image>
				<g>
					<path fill="#FFFFFF" d="M1115.61,103.989c0,39.609-76.189,71.721-170.176,71.721c-30.338,0-58.823-3.347-83.487-9.21h-0.005
						c-52.87,6.167-90.256,3.313-82.986,2.996c7.266-0.312,27.173-9.479,26.855-24.494c-0.721-0.432-1.427-0.867-2.124-1.309
						c-17.963-11.37-28.433-25.021-28.433-39.704c0-39.608,76.194-71.72,170.18-71.72
						C1039.421,32.27,1115.61,64.381,1115.61,103.989z"/>
					<path fill="none" stroke="#000000" stroke-width="6" stroke-miterlimit="10" d="M1115.61,103.989
						c0,39.609-76.189,71.721-170.176,71.721c-30.338,0-58.823-3.347-83.487-9.21h-0.005c-52.87,6.167-90.256,3.313-82.986,2.996
						c7.266-0.312,27.173-9.479,26.855-24.494c-0.721-0.432-1.427-0.867-2.124-1.309c-17.963-11.37-28.433-25.021-28.433-39.704
						c0-39.608,76.194-71.72,170.18-71.72C1039.421,32.27,1115.61,64.381,1115.61,103.989z"/>
				</g>
			</g>
			<text transform="matrix(0.8385 0 0 1 820.1392 84.606)"><tspan x="0" y="0" fill="#010202" font-family="'SmackAttackBB-Bold'" font-size="26.9457">La mejor tienda </tspan><tspan x="-5.915" y="32.335" fill="#010202" font-family="'SmackAttackBB-Bold'" font-size="26.9457">virtual de comics</tspan><tspan x="56.949" y="64.669" fill="#010202" font-family="'SmackAttackBB-Bold'" font-size="26.9457"> en mexico</tspan></text>
		</g>
		<g>
			<g>
				
					<image overflow="visible" opacity="0.75" width="1325" height="645" xlink:href="DCAFF3C8.png"  transform="matrix(0.24 0 0 0.24 822.7432 154.001)">
				</image>
				<g>
					<path fill="#FFFFFF" d="M833.743,224.396c0,32.803,63.096,59.396,140.931,59.396c25.124,0,48.715-2.771,69.141-7.626h0.004
						c43.786,5.107,74.747,2.743,68.725,2.479c-6.016-0.257-22.502-7.849-22.238-20.284c0.596-0.358,1.18-0.719,1.756-1.083
						c14.877-9.417,23.549-20.72,23.549-32.882c0-32.803-63.101-59.396-140.936-59.396S833.743,191.594,833.743,224.396z"/>
					<path fill="none" stroke="#000000" stroke-width="6" stroke-miterlimit="10" d="M833.743,224.396
						c0,32.803,63.096,59.396,140.931,59.396c25.124,0,48.715-2.771,69.141-7.626h0.004c43.786,5.107,74.747,2.743,68.725,2.479
						c-6.016-0.257-22.502-7.849-22.238-20.284c0.596-0.358,1.18-0.719,1.756-1.083c14.877-9.417,23.549-20.72,23.549-32.882
						c0-32.803-63.101-59.396-140.936-59.396S833.743,191.594,833.743,224.396z"/>
				</g>
			</g>
			<text transform="matrix(0.8385 0 0 1 870.5586 220.8999)"><tspan x="0" y="0" fill="#010202" font-family="'SmackAttackBB-Bold'" font-size="26.9457">envios a todo</tspan><tspan x="66.299" y="32.334" fill="#010202" font-family="'SmackAttackBB-Bold'" font-size="26.9457">el pais</tspan></text>
		</g>
		<g>
			<g>
				
					<image overflow="visible" opacity="0.75" width="1374" height="666" xlink:href="DCAFF3C7.png"  transform="matrix(0.24 0 0 0.24 1067.8838 72.1328)">
				</image>
				<g>
					<path fill="#FFFFFF" d="M1078.884,145.014c0,34.175,65.736,61.882,146.828,61.882c26.176,0,50.752-2.889,72.033-7.947h0.006
						c45.615,5.32,77.873,2.859,71.6,2.585c-6.268-0.27-23.443-8.179-23.17-21.134c0.621-0.373,1.23-0.748,1.832-1.129
						c15.5-9.811,24.533-21.588,24.533-34.257c0-34.175-65.742-61.881-146.834-61.881S1078.884,110.839,1078.884,145.014z"/>
					<path fill="none" stroke="#000000" stroke-width="6" stroke-miterlimit="10" d="M1078.884,145.014
						c0,34.175,65.736,61.882,146.828,61.882c26.176,0,50.752-2.889,72.033-7.947h0.006c45.615,5.32,77.873,2.859,71.6,2.585
						c-6.268-0.27-23.443-8.179-23.17-21.134c0.621-0.373,1.23-0.748,1.832-1.129c15.5-9.811,24.533-21.588,24.533-34.257
						c0-34.175-65.742-61.881-146.834-61.881S1078.884,110.839,1078.884,145.014z"/>
				</g>
			</g>
			<text transform="matrix(0.8385 0 0 1 1148.9629 136.772)"><tspan x="0" y="0" fill="#010202" font-family="'SmackAttackBB-Bold'" font-size="26.9457">felicidad</tspan><tspan x="-27.646" y="32.335" fill="#010202" font-family="'SmackAttackBB-Bold'" font-size="26.9457">garantizada</tspan></text>
		</g>
		<g>
			<g>
				
					<image overflow="visible" opacity="0.75" width="1206" height="595" xlink:href="DCAFF3D6.png"  transform="matrix(0.24 0 0 0.24 1104.6104 187.3457)">
				</image>
				<g>
					<path fill="#FFFFFF" d="M1368.831,251.706c0,29.468-56.684,53.358-126.607,53.358c-22.57,0-43.764-2.49-62.115-6.853h-0.004
						c-39.334,4.589-67.148,2.464-61.74,2.229c5.404-0.232,20.215-7.053,19.979-18.224c-0.535-0.322-1.059-0.646-1.578-0.974
						c-13.367-8.459-21.154-18.614-21.154-29.538c0-29.47,56.688-53.36,126.613-53.36
						C1312.147,198.346,1368.831,222.236,1368.831,251.706z"/>
					<path fill="none" stroke="#000000" stroke-width="6" stroke-miterlimit="10" d="M1368.831,251.706
						c0,29.468-56.684,53.358-126.607,53.358c-22.57,0-43.764-2.49-62.115-6.853h-0.004c-39.334,4.589-67.148,2.464-61.74,2.229
						c5.404-0.232,20.215-7.053,19.979-18.224c-0.535-0.322-1.059-0.646-1.578-0.974c-13.367-8.459-21.154-18.614-21.154-29.538
						c0-29.47,56.688-53.36,126.613-53.36C1312.147,198.346,1368.831,222.236,1368.831,251.706z"/>
				</g>
			</g>
			<text transform="matrix(0.8385 0 0 1 1152.9395 249.2969)"><tspan x="0" y="0" fill="#010202" font-family="'SmackAttackBB-Bold'" font-size="26.9457">Precios de </tspan><tspan x="41.509" y="32.335" fill="#010202" font-family="'SmackAttackBB-Bold'" font-size="26.9457">Locura</tspan></text>
		</g>
		
			<text transform="matrix(0.6749 0.4976 -0.5934 0.8049 929.6797 196.0264)" fill="#010202" font-family="'SmackAttackBB-Bold'" font-size="26.9457">,</text>
		
			<text transform="matrix(0.6749 0.4976 -0.5934 0.8049 957.4014 128.0869)" fill="#010202" font-family="'SmackAttackBB-Bold'" font-size="26.9457">,</text>
		
			<text transform="matrix(0.6749 0.4976 -0.5934 0.8049 1006.4326 97.2637)" fill="#010202" font-family="'SmackAttackBB-Bold'" font-size="26.9457">,</text>
		
			<text transform="matrix(0.6749 0.4976 -0.5934 0.8049 1008.8599 230.6738)" fill="#010202" font-family="'SmackAttackBB-Bold'" font-size="26.9457">,</text>
	</g>
</g>
</svg>
