<?xml version="1.0" encoding="utf-8"?>
<!-- Generator: Adobe Illustrator 15.0.2, SVG Export Plug-In . SVG Version: 6.00 Build 0)  -->
<!DOCTYPE svg PUBLIC "-//W3C//DTD SVG 1.1//EN" "http://www.w3.org/Graphics/SVG/1.1/DTD/svg11.dtd">
<svg version="1.1" id="Layer_1" xmlns="http://www.w3.org/2000/svg" xmlns:xlink="http://www.w3.org/1999/xlink" x="0px" y="0px"
	 width="216.667px" height="26px" viewBox="0 0 216.667 26" enable-background="new 0 0 216.667 26" xml:space="preserve">
<g>
	<path fill="#B2B2B2" stroke="#575756" stroke-miterlimit="10" d="M13.129,3.307c1.403,0,2.625,0.401,3.664,1.203l2.379,7.793
		c-0.037,0.219-0.109,0.538-0.219,0.957c-0.638,2.552-1.941,4.804-3.91,6.754c-2.151,2.133-4.466,3.199-6.945,3.199
		c-1.623,0-2.99-0.528-4.102-1.586L2,14.9c0.037-0.364,0.128-0.911,0.273-1.641c0.656-2.57,1.959-4.821,3.91-6.754
		C8.316,4.373,10.631,3.307,13.129,3.307z M11.734,12.631c-0.602,0-1.249,0.301-1.941,0.902c-0.547,0.474-1.012,1.021-1.395,1.641
		c-0.492,0.82-0.72,1.567-0.684,2.242c0.018,0.82,0.41,1.23,1.176,1.23c0.583,0,1.221-0.292,1.914-0.875
		c0.565-0.492,1.039-1.048,1.422-1.668c0.492-0.802,0.72-1.54,0.684-2.215C12.874,13.05,12.481,12.631,11.734,12.631z"/>
	<path fill="#B2B2B2" stroke="#575756" stroke-miterlimit="10" d="M17.145,21.271l1.586-8.859c-0.292,0.128-0.711,0.337-1.258,0.629
		l0.82-4.32c0.328-1.805,0.602-3.245,0.82-4.32c2.588-0.583,5.195-0.93,7.82-1.039c0.784-0.036,1.504-0.055,2.16-0.055
		c1.513,0,2.661,0.091,3.445,0.273l-0.766,6.699c-2.024,0.109-3.336,0.191-3.938,0.246c-1.495,0.11-2.808,0.265-3.938,0.466
		l-0.355,2.054l4.651-0.651l0.791,4.779l-6.383,0.929l-0.936,5.223c-0.767-0.328-1.525-0.666-2.274-1.013L17.145,21.271z"/>
	<path fill="#B2B2B2" stroke="#575756" stroke-miterlimit="10" d="M33.262,4.4c2.588-0.565,5.204-0.902,7.848-1.012
		c0.784-0.036,1.504-0.055,2.16-0.055c1.513,0,2.652,0.091,3.418,0.273l-0.766,6.699c-1.987,0.109-3.309,0.191-3.964,0.246
		c-1.495,0.127-2.816,0.282-3.965,0.464l-0.301,1.666l4.621-0.652l0.464,3.58l-5.769,0.848l-0.352,2.079
		c2.551-0.201,5.002-0.666,7.353-1.396c0.328,1.075,0.829,2.57,1.503,4.484c-3.263,1.094-7.046,1.595-11.348,1.504
		c-0.183-0.474-0.429-1.203-0.738-2.188l-1.941-0.875l1.395-7.629c-0.292,0.128-0.711,0.337-1.258,0.629
		C31.967,11.136,32.514,8.247,33.262,4.4z"/>
	<path fill="#B2B2B2" stroke="#575756" stroke-miterlimit="10" d="M46.875,12.549c-0.511,0.128-0.93,0.219-1.258,0.273
		c0.237-1.075,0.547-2.516,0.93-4.32l0.93-4.32c1.841-0.383,3.855-0.72,6.043-1.012c0.893-0.127,1.777-0.191,2.652-0.191
		c1.258,0,2.479,0.128,3.664,0.383l1.477,7.983c-1.495,1.932-3.837,3.874-7.027,5.824l6.667,1.022l-1.965,4.749l-8.922-1.259
		l-0.329,1.829l-4.476-1.992L46.875,12.549z M51.951,11.513l-0.57,3.173c0.652-0.255,1.322-0.611,2.011-1.068
		c0.923-0.62,1.386-1.159,1.386-1.615c0-0.438-0.417-0.657-1.25-0.657C53.11,11.346,52.585,11.402,51.951,11.513z"/>
	<path fill="#B2B2B2" stroke="#575756" stroke-miterlimit="10" d="M69.935,10.64l-2.318,12.438l-4.488-2.052l1.777-9.653
		c-2.005,0.511-3.555,1.085-4.648,1.723c0.346-1.914,0.884-4.794,1.613-8.641c2.588-0.583,5.204-0.93,7.848-1.039
		c0.784-0.036,1.504-0.055,2.16-0.055c1.513,0,2.652,0.091,3.418,0.273l-0.762,6.699C73.519,10.408,71.985,10.51,69.935,10.64z"/>
	<path fill="#B2B2B2" stroke="#575756" stroke-miterlimit="10" d="M81.09,19.768l-5.353,0.901l-1.294,2.925l-3.907-2.816
		l7.957-18.401l1.969,1.422l-0.027-0.82l4.84,0.766l0.738,18.867l-4.84-0.793L81.09,19.768z M78.497,14.216l2.374-0.358
		l-0.193-4.686L78.497,14.216z"/>
	<path fill="#B2B2B2" stroke="#575756" stroke-miterlimit="10" d="M94.988,4.811c2.57-0.583,5.022-0.975,7.355-1.176
		c1.477-0.109,2.734-0.164,3.773-0.164c0.583,0,1.103,0.019,1.559,0.055l2.242,6.59c-3.828,5.159-8.586,9.524-14.273,13.098
		l-2.379-1.641l1.312-8.395c-0.474,0.109-0.912,0.219-1.312,0.328C93.63,11.574,94.204,8.675,94.988,4.811z M99.12,15.995
		c1.257-1.058,2.204-2.07,2.841-3.036c0.146-0.237,0.219-0.428,0.219-0.574c0-0.346-0.347-0.52-1.039-0.52
		c-0.347,0-0.775,0.046-1.286,0.137L99.12,15.995z"/>
	<path fill="#B2B2B2" stroke="#575756" stroke-miterlimit="10" d="M109.723,4.4c2.588-0.565,5.204-0.902,7.848-1.012
		c0.784-0.036,1.504-0.055,2.16-0.055c1.513,0,2.652,0.091,3.418,0.273l-0.766,6.699c-1.987,0.109-3.309,0.191-3.964,0.246
		c-1.495,0.127-2.816,0.282-3.965,0.464l-0.301,1.666l4.621-0.652l0.464,3.58l-5.769,0.848l-0.352,2.079
		c2.551-0.201,5.002-0.666,7.353-1.396c0.328,1.075,0.829,2.57,1.503,4.484c-3.263,1.094-7.046,1.595-11.348,1.504
		c-0.183-0.474-0.429-1.203-0.738-2.188l-1.941-0.875l1.395-7.629c-0.292,0.128-0.711,0.337-1.258,0.629
		C108.428,11.136,108.975,8.247,109.723,4.4z"/>
	<path fill="#B2B2B2" stroke="#575756" stroke-miterlimit="10" d="M127.323,14.275c2.69-0.513,5.463-0.815,8.316-0.906l-0.93,7.273
		c-0.803-0.091-2.57,0.2-5.304,0.875c-2.625,0.675-3.992,1.112-4.102,1.312l-4.074-1.859l3.146-17.5l4.496,2.029L127.323,14.275z"/>
	<path fill="#B2B2B2" stroke="#575756" stroke-miterlimit="10" d="M142.253,21.271l1.586-8.859
		c-0.291,0.128-0.711,0.337-1.258,0.629l0.82-4.32c0.328-1.805,0.602-3.245,0.82-4.32c2.588-0.583,5.195-0.93,7.82-1.039
		c0.783-0.036,1.504-0.055,2.16-0.055c1.514,0,2.662,0.091,3.445,0.273l-0.766,6.699c-2.023,0.109-3.336,0.191-3.938,0.246
		c-1.496,0.11-2.809,0.265-3.938,0.466l-0.355,2.054l4.65-0.651l0.791,4.779l-6.383,0.929l-0.936,5.223
		c-0.768-0.328-1.525-0.666-2.273-1.013L142.253,21.271z"/>
	<path fill="#B2B2B2" stroke="#575756" stroke-miterlimit="10" d="M158.272,3.279l4.494,2.028l-3.23,17.744L155.046,21
		L158.272,3.279z"/>
	<path fill="#B2B2B2" stroke="#575756" stroke-miterlimit="10" d="M163.573,3.389l7.676,7.62l1.334-7.627l4.498,2.002l-3.227,17.72
		l-7.895-6.497l-1.105,6.495l-4.453-2.018L163.573,3.389z"/>
	<path fill="#B2B2B2" stroke="#575756" stroke-miterlimit="10" d="M177.569,4.811c2.57-0.583,5.021-0.975,7.355-1.176
		c1.477-0.109,2.734-0.164,3.773-0.164c0.584,0,1.104,0.019,1.559,0.055l2.242,6.59c-3.828,5.159-8.586,9.524-14.273,13.098
		l-2.379-1.641l1.312-8.395c-0.475,0.109-0.912,0.219-1.312,0.328C176.212,11.574,176.786,8.675,177.569,4.811z M181.702,15.995
		c1.256-1.058,2.203-2.07,2.84-3.036c0.146-0.237,0.219-0.428,0.219-0.574c0-0.346-0.346-0.52-1.039-0.52
		c-0.346,0-0.775,0.046-1.285,0.137L181.702,15.995z"/>
	<path fill="#B2B2B2" stroke="#575756" stroke-miterlimit="10" d="M192.304,4.4c2.588-0.565,5.205-0.902,7.848-1.012
		c0.783-0.036,1.504-0.055,2.16-0.055c1.514,0,2.652,0.091,3.418,0.273l-0.766,6.699c-1.986,0.109-3.309,0.191-3.965,0.246
		c-1.494,0.127-2.816,0.282-3.965,0.464l-0.301,1.666l4.621-0.652l0.465,3.58l-5.77,0.848l-0.352,2.079
		c2.551-0.201,5.002-0.666,7.354-1.396c0.326,1.075,0.828,2.57,1.502,4.484c-3.264,1.094-7.045,1.595-11.348,1.504
		c-0.182-0.474-0.428-1.203-0.738-2.188l-1.941-0.875l1.395-7.629c-0.291,0.128-0.711,0.337-1.258,0.629
		C191.009,11.136,191.556,8.247,192.304,4.4z"/>
	<path fill="#B2B2B2" stroke="#575756" stroke-miterlimit="10" d="M204.739,18.03l5.252,2.371l-0.875,4.37l-5.277-2.353
		L204.739,18.03z M206.382,1.229l6.809,3.309l-3.336,13.398l-5.223-2.406L206.382,1.229z"/>
</g>
</svg>
