<?xml version="1.0" encoding="utf-8"?>
<!-- Generator: Adobe Illustrator 15.0.2, SVG Export Plug-In  -->
<!DOCTYPE svg PUBLIC "-//W3C//DTD SVG 1.1//EN" "http://www.w3.org/Graphics/SVG/1.1/DTD/svg11.dtd" [
	<!ENTITY ns_flows "http://ns.adobe.com/Flows/1.0/">
]>
<svg version="1.1"
	 xmlns="http://www.w3.org/2000/svg" xmlns:xlink="http://www.w3.org/1999/xlink" xmlns:a="http://ns.adobe.com/AdobeSVGViewerExtensions/3.0/"
	 x="0px" y="0px" width="567px" height="303px" viewBox="0 0 567 303" overflow="visible" enable-background="new 0 0 567 303"
	 xml:space="preserve">
<defs>
</defs>
<path fill-rule="evenodd" clip-rule="evenodd" fill="#0C0F05" d="M444.136,89.186c-2.061-1.939-8.1,0.1-7-5
	c-4.258-0.591-6.614,0.719-10,1c-1.769-1.481,1.878-5.168-3-5c7.81-2.154,22.043,8.21,29,1c0.333,0,0.667,0,1,0
	C458.031,87.46,445.262,84.702,444.136,89.186z"/>
<path fill-rule="evenodd" clip-rule="evenodd" fill="#0C0F05" d="M101.136,97.186c2.441,11.387,10.791,21.656,10,33
	c-7.933-10.4-12.182-24.484-15-40c4.372-0.705,2.131,5.202,5,6C101.136,96.52,101.136,96.853,101.136,97.186z"/>
<path fill-rule="evenodd" clip-rule="evenodd" fill="#0C0F05" d="M86.136,129.186c-1.976-7.129-12.798-15.726-9-22
	c2.426,5.907,5.537,11.13,9,16c3.234-3.952-0.85-9.112-1-13c2.754,6.246,7.528,10.472,8,19c-3.454-0.787-4.399,0.935-5,3
	c-1.322-0.012-0.914-1.753-2-2C86.136,129.853,86.136,129.52,86.136,129.186z"/>
<path fill-rule="evenodd" clip-rule="evenodd" fill="#0C0F05" d="M103.136,148.186c0.616-3.051,4.488-2.845,3-8
	c2.242,1.425,1.909,5.425,4,7c2.356,0.022,2.944-1.723,6-1c1.108-6.774-4.652-6.682-4-13c3.702-0.036,1.117,6.216,5,6
	c0,0.333,0,0.667,0,1c-1.069,3.736,2.483,2.85,2,6c-1.259,2.741-6.204,1.796-7,5c-0.333,0-0.667,0-1,0c-2.509,1.157-3.349,3.984-7,4
	C105.726,153.612,104.417,149.831,103.136,148.186z"/>
<path fill-rule="evenodd" clip-rule="evenodd" fill="#0C0F05" d="M212.136,217.186c2.256-5.559-4.749-17.461-9-23
	c2.523-2.779,6.534,1.408,7,4c6.581,4.419,3.223,18.776,8,25c10.941-0.392,17.571-5.096,30-4c-1.008,1.992-2.498,3.502-4,5
	c-4.242-2.587-11.087,3.861-14-1c-4.574,6.156-7.75,1.521-16,4C215.438,221.884,211.239,222.083,212.136,217.186z"/>
<path fill-rule="evenodd" clip-rule="evenodd" fill="#0C0F05" d="M117.136,226.186c0.483-3.149-3.069-2.264-2-6
	c5.833,8.456,15.116,17.818,16,28c8.324,6.009,10.227,18.439,16,27c-3.555,1.555-0.604-3.396-3-3
	C134.363,257.626,125.385,242.27,117.136,226.186z"/>
<path fill-rule="evenodd" clip-rule="evenodd" fill="#0C0F05" d="M148.136,260.186c-1.237-2.763-2.92-5.08-3-9
	c1.427,0.239,1.687,1.646,3,2c0.333,0,0.667,0,1,0c-0.587,11.254,10.132,11.201,10,22c9.771,1.07,17.068,2.97,25,0
	c0.102,1.122-1.454,1.557,0,2c0.424,4.091-6.793,0.54-7,4c-0.667,0-1.333,0-2,0c-10.174,0.692-13.334,2.643-23,1
	c-0.815-4.148,6.165-0.502,7-3c-0.251-6.082-5.285-7.381-7-12C151.382,264.273,149.762,262.227,148.136,260.186z"/>
<path fill-rule="evenodd" clip-rule="evenodd" fill="#0C0F05" d="M218.136,268.186c2.288-0.637,6.032-1.983,8,0
	c-1.115,4.552-5.325,6.008-11,6c-0.224-0.776-0.027-1.973-1-2c-7.443,4.23-19.48,5.242-29,6c-0.102-1.122,1.454-1.557,0-2
	c0.783-3.551,7.217-1.449,8-5C203.854,273.794,209.83,271.876,218.136,268.186z"/>
<path fill-rule="evenodd" clip-rule="evenodd" fill="#656C42" d="M91.136,14.186c37.436-1.564,73.404-4.596,108-9
	C166.137,11.325,126.197,16.066,91.136,14.186z"/>
<path fill-rule="evenodd" clip-rule="evenodd" fill="#656C42" d="M435.136,193.186c-1.808,8.526-8.331,12.336-14,17
	c4.386,8.17-1.553,16.739-12,16c1.893-3.107,6.923-3.077,10-5c0.259-4.408,1.598-7.735,1-13c16.718-4.199,13.409-26.134,11-40
	c8.912-0.912,6.238,9.762,13,11c0.858,6.43-3.072,44.584,2,36c0.024,3.69-0.447,6.886-4,7c-1.033-19.3,4.092-44.759-9-52
	c-4.403,1.584,0.551,6.176,2,8C434.435,184.124,437.604,188.429,435.136,193.186z"/>
<path fill-rule="evenodd" clip-rule="evenodd" fill="#8A9156" d="M223.136,31.186c0.17-2.837-3.382-1.952-2-6c1.667,0,3.333,0,5,0
	c-1.163-1.837-5.307-0.693-4-5c2.09-0.423,2.648,0.686,4,1c-2.045-1.621,0.045-7.379-2-9c-1.255,0.396,1.755,5.804-4,4
	c-0.729-2.729,1.987-2.013,2-4c-3.72,0.34-3.617,3.788-4,5c-2.134,0.467-1.905-1.429-2-3c-5.693,1.307-12.138,1.862-14,7
	c-0.934-0.733-1.515-1.818-2-3c-4.45,0.217-2.845,6.488-7,7c1.978-2.925,0.352-3.245,3-5c-1.472-1.973-8.367-1.708-5,2
	c-1.89-0.443-6.027,1.36-5-2c-1.622-0.715-1.622,4.715,0,4c-2.063-4.673-14.083-4.396-19,1c-2.182,0.182-3.182-0.818-3-3
	c-7.182,4.624-19.114-0.561-23,6c-0.178-2.647-6.242-8.634-8-1c-6.628-6.878-17.723,4.122-26-3c9.94-0.695,19.739,0.094,32-2
	c1.314-1.283,3.686-1.283,5,0c2.88-0.12,1.735-4.264,5-4c0.777,0.89,1.075,2.258,1,4c13.777-6.193,32.574,1.445,40-11
	c2.931,0.847-0.598,3.22,0,5c17.13-4.378,28.514-0.854,35-13c3.932,1.97,1.907,4.528,7,6c0.351,5.351-1.774,8.226-3,12
	c-2.741,25.981-3.286,41.278,0,70c-0.396,8.396,2.826,13.174,3,21c-1.759-0.241-2.279-1.721-2-4c-4.662,4.451-7.639-5.938-8-12
	c5.226-0.103,4.764,3.261,4,7c0.247,1.086,1.988,0.678,2,2c4.062-3.485-4.637-7.94-1-11c-0.56-2.259-1.56,1.212-3-1
	c3.692-4.946-2.861-10.898,1-13c-0.147-2.231-2.52,1.298-5,0c-0.86-0.807-0.594-2.739-2-3c0.389-5.726-1.221-8.961,1-16
	c1.336,0.997,1.964,2.703,4,3c-0.098-3.235-4.532-2.134-3-7c1.313-1.2,1.573-0.39,3,0c-0.083-1.583,0.481-3.814-1-4
	c-0.421-1.912-0.362-4.304-3-4c-0.776-3.443,0.557-4.776,4-4"/>
<path fill-rule="evenodd" clip-rule="evenodd" fill="#B5C060" d="M223.136,45.186c-3.443-0.776-4.776,0.557-4,4
	c-3.338-1.004-3.279,1.388-3,4c-2.279,0.279-3.759-0.241-4-2c-1.872,1.128-4.817,1.183-4,5c3.672,3.606,7.093-1.524,10-2
	c-0.529,0.804-1.043,1.624-1,3c3.008,1.008,1.772-2.228,2-4c1.71-0.21,2.59,1.705,3,0c1.481,0.186,0.917,2.417,1,4
	c-1.427-0.39-1.687-1.2-3,0c-1.532,4.866,2.902,3.765,3,7c-2.036-0.297-2.664-2.003-4-3c0-1,0-2,0-3c-6.604,1.354-12.488,0.137-15,7
	c0.226,1.274,2.985,1.311,3,0c-2.249,2.337-7.609,7.819-16,9c-1.507-6.375,0.529-17.323,6-20c0.083,1.583-0.481,3.814,1,4
	c3.151-2.575-2.496-4.771-1-9c2.069-1.055,3.149-5.732,6-3c-2.41-4.912,2.607-7.904,4-12c-1.66-0.397-8.904-1.77-9,1
	c-0.162,1.172-1.823,0.843-3,1"/>
<path fill-rule="evenodd" clip-rule="evenodd" fill="#B5C060" d="M223.136,36.186c0.518,7,2.305,6.305,0,9
	c4.451,7.882-84.984,7.651-86,21c-2.492-0.508-6.033,0.033-6-3c-0.818,2.516-4.562,2.105-8,2c-0.429-1.904-2.154-2.512-2-5
	c-3.601,0.351-4.819,1.529-8,0c0.963-4.296-4.913-1.754-5-5c-2.542,6.679-4.024,14.697-1,22c-4.356-8.71-10.6-7.598-13-17
	c-1.368-1.279-1.368-4.721,0-6c-8.202-7.854-4.015-20.909-8-22c0.733-1.781,1.818-0.144,3,0c0.748-3.081-3.448-1.219-2-5
	c3.237,3.252,3.894-1.182,5-3c2.927,6.079,8.055,0.148,13,3c0.934-0.733,1.515-1.818,2-3c8.277,7.122,19.372-3.878,26,3
	c1.758-7.634,7.822-1.647,8,1c3.886-6.561,15.818-1.376,23-6c-0.182,2.182,0.818,3.182,3,3c4.917-5.396,16.937-5.673,19-1
	c-1.622,0.715-1.622-4.715,0-4c-1.027,3.36,3.11,1.557,5,2c-3.367-3.708,3.528-3.973,5-2c-2.648,1.755-1.022,2.075-3,5
	c4.155-0.512,2.55-6.783,7-7c0.485,1.182,1.066,2.267,2,3c1.862-5.138,8.307-5.693,14-7c0.095,1.571-0.134,3.467,2,3
	c0.383-1.212,0.28-4.66,4-5c-0.013,1.987-2.729,1.271-2,4c5.755,1.804,2.745-3.604,4-4c2.045,1.621-0.045,7.379,2,9
	c-1.352-0.314-1.91-1.423-4-1c-1.307,4.307,2.837,3.163,4,5c-1.667,0-3.333,0-5,0c-1.382,4.048,2.17,3.163,2,6"/>
<path fill-rule="evenodd" clip-rule="evenodd" fill="#B5C060" d="M219.136,49.186c2.638-0.304,2.579,2.088,3,4
	c-0.41,1.705-1.29-0.21-3,0c-0.228,1.772,1.008,5.008-2,4c-0.043-1.376,0.471-2.196,1-3c-2.907,0.476-6.328,5.606-10,2
	c-0.817-3.817,2.128-3.872,4-5c0.241,1.759,1.721,2.279,4,2C215.857,50.574,215.798,48.182,219.136,49.186z"/>
<path fill-rule="evenodd" clip-rule="evenodd" fill="#404621" d="M107.136,24.186c-0.485,1.182-1.066,2.267-2,3
	c-4.945-2.852-10.073,3.079-13-3c-1.106,1.818-1.763,6.252-5,3c-1.448,3.781,2.748,1.919,2,5c-1.182-0.144-2.267-1.781-3,0
	c3.985,1.091-0.202,14.146,8,22c-1.368,1.279-1.368,4.721,0,6c0.965,4.035,1.34,8.66,4,11c-0.385,2.615-3.207,2.793-2,7
	c-3.903-3.851-4.51-29.783-8-21c-0.398-10.616-2.491-21.936-6-32c5.147-2.01,2.732-6.267,7-8c8.131,13.302,35.033,1.652,50,5
	C126.875,24.28,117.076,23.491,107.136,24.186z"/>
<path fill-rule="evenodd" clip-rule="evenodd" fill="#404621" d="M195.136,36.186c-14.125,2.251-20.777,1.872-39,4
	c-8.198,1.093-15.413-0.736-23,3c-0.112-2.555-1.833-3.5-3-5c0-0.333,0-0.667,0-1c3.247,0.58,4.652-0.681,7-1
	c-0.043,1.376,0.471,2.196,1,3c9.801,1.34,16.566-4.823,23-1"/>
<path fill-rule="evenodd" clip-rule="evenodd" fill="#404621" d="M195.136,36.186c1.177-0.157,2.838,0.172,3-1
	c3.056-0.723,3.644,1.022,6,1c-4.913,9.087-11.962,16.038-14,28c-0.909-4.215-2.654-5.371-4-7c3.611-5.056,6.097-11.236,11-15
	c-9.906-5.178-26.47,3.337-36,2c-3.318,0.318-6.151,0.151-7-2c0.247-1.086,1.988-0.678,2-2
	C174.359,38.058,181.011,38.437,195.136,36.186z"/>
<path fill-rule="evenodd" clip-rule="evenodd" fill="#0C0F05" d="M64.136,43.186c0.625,2.375,6.155-0.155,7,2
	c3.013-1.807-2.843-3.063-1-7c6.046,8.597,7.408,23.511,12,36c1.711,6.956,4.792,12.542,6,20c-9.337-13.33-10.879-34.454-20-48
	c-2.555,0.445-4.598,1.402-6,3c-1.672-1.452-4.005-4.876-7-2C56.467,44.184,59.055,42.438,64.136,43.186z"/>
<path fill-rule="evenodd" clip-rule="evenodd" fill="#B5C060" d="M183.136,62.186c-2.348,0.319-3.753,1.58-7,1
	c-3.419-7.211-4.143-12.779-7-19c9.567-0.292,5.991,11.027,11,13c3.555,1.555,0.604-3.396,3-3c2.134-0.467,1.905,1.429,2,3
	C185.884,60.267,181.688,58.405,183.136,62.186z"/>
<path fill-rule="evenodd" clip-rule="evenodd" fill="#B5C060" d="M204.136,76.186c1.615-0.282,1.722,0.945,3,1
	c-0.399-3.733,0.799-5.868,4-6c1.918,2.896-0.549,8.32-4,9c2.335,0.998,1.214,5.452,3,7c-1.282,1.718-4.761,1.239-5,4
	c0.601,2.065,1.546,3.787,5,3c0.319,2.348,1.58,3.753,1,7c-1.046-2.828-3.124-4.043-3,1c1.713,0.03,1.943,8.035,5,12
	c-0.89,0.777-2.258,1.075-4,1c-0.725-3.059,1.725-2.941,1-6c-0.125-2.208-4.242-0.425-6-1c-0.197,2.863-0.125,5.458,3,5
	c-0.564,2.436-0.856,5.144-4,5c-1.417-3.249-1.038-8.295-7-7c-0.805,4.139,1.535,5.132,5,5c-2.293,6.754-8.683,3.27-14,7
	c-2.83-5.506-4.874-8.724-6-14c-1.479,0.521-2.521,1.479-4,2c5.221,7.37-0.929,17.216,16,14c0,0.333,0,0.667,0,1
	c-14.57-0.903-21.273,6.06-35,6c6.001-2.999,14.732-3.268,21-6c-0.112-2.555-1.833-3.5-3-5c-3.727,7.089-9.523,0.074-13,7
	c-2.099-0.279,1.449-2.671-1-4c-1.959,4.372-3.043,3.118-10,5c1.117,1.23,0.871,2.054-1,2c0-2.333,0-4.667,0-7
	c-1.376-2.831-4.985-1.579-6,1c-0.541,3.541,3.541,2.459,3,6c-0.807,0.86-2.739,0.594-3,2c-0.162,1.172-1.823,0.843-3,1
	c-0.244-3.942,3.289-8.61-3-8c1.064-5.127,1.993-4.873,2-10c-1.7,2.63-3.068,0.7-6,3c0.138,4.529,1.882,7.452,3,11
	c-2.153-1.606-7.22-8.296-3-13c-0.847-2.931-3.22,0.598-5,0c-2.232-0.406,5.512-2.614,0-4c2.487,1.044,6.276-4.496,1-6
	c-0.934,0.733-1.515,1.818-2,3c-0.693,1.908-1.556-1.08,0-1c-1.542-4.459-7.63-6.078-6-12c4.864-0.531,1.792,6.874,5,8
	c1.086-0.248,0.678-1.988,2-2c-3.151-5.522-3.286-9.659-8-8c1.5-1.167,2.445-2.888,5-3c0.772,3.561,1.114,7.552,5,8
	c0.826,2.826-1.409,2.591-1,5c0.021,2.741,4.717,2.375,6,1c-4.379-9.667-9-19.113-12-30c5.785-3.399,17.317,4.652,19-3
	c1.943,1.723,1.507,5.826,3,8c-0.691,2.497-2.667-1.856-5-1c-0.89,0.443-1.789,0.878-2,2c-0.877,3.21,2.593,2.073,3,4
	c3.21,0.877,2.073-2.593,4-3c3.125-0.458,3.197,2.137,3,5c-4.033-1.058-7.191-1.314-7,4c3.462,1.783,3.411,15.586,9,6
	c-0.691-1.975-2.667-2.666-5-3c-0.018-5.685,7.479-3.854,9-8c-6.086-2.066-0.704-9.394-7-11c1.501-3.108,1.17-6.971-3-7
	c0.777-0.89,1.075-2.258,1-4c4.475-0.475,5.004,2.996,5,7c2.488,0.154,3.096-1.571,5-2c0.473-3.14-2.691-2.642-3-5
	c1.441-5.893,8.65-6.017,15-7c1.511-5.641-4.568-7.454-8-5c0.013,1.987,2.729,1.271,2,4c-2.773-3.763-8.012-1.593-8,3
	c-3.905-3.175-7.666,0.477-8,4c1.745-6.061-2.062-7.328-3-13c-1.904-1.874-2.512-0.109-5,0c-0.88-3.863,4.489-2.231,6-6
	c6.661,0.41,9.504,0.361,16-1c9.53,1.337,26.094-7.178,36-2c-4.903,3.764-7.389,9.944-11,15c-0.333,0-0.667,0-1,0
	c-0.095-1.571,0.134-3.467-2-3c-2.396-0.396,0.555,4.555-3,3c-5.009-1.973-1.433-13.292-11-13c2.857,6.221,3.581,11.789,7,19
	c3.247,0.58,4.652-0.681,7-1c-1.666,1.987,0.09,1.271,0,4c-1.313-0.354-1.573-1.76-3-2 M184.136,97.186
	c-6.854,2.719,4.964,7.963,1,11c1.578-4.235-4.151-3.57-4-1c4.271,0.396,3.438,5.896,8,6c3.328-8.988-4.775-13.419-3-22
	c-1.279-1.368-4.721-1.368-6,0C179.385,95.271,182.267,95.722,184.136,97.186z M206.136,100.186c-2,0-4,0-6,0
	c-0.547,1.453,1.168,5.168-1,5c-2.628-8.482-7.327-10.145-10-12c-0.426,1.907-2.857,1.81-2,5c2.958-1.352,4.875,0.926,7,3
	c-0.637,2.288-1.983,6.032,0,8c4.965-0.369,6.605-4.061,12-4C206.136,103.52,206.136,101.853,206.136,100.186z M170.136,111.186
	c2.971-4.029,12.004-1.996,10-11c-5.356-1.356-3.098,4.902-6,6c-3.078,0.745-1.922-2.745-5-2c-4.483,3.922,0.608,9.928,1,15
	c1.376-0.043,2.196,0.471,3,1c0.898-1.768,2.414-2.919,3-5C174.45,113.539,171.642,113.013,170.136,111.186z M151.136,111.186
	c-0.601,7.682,4.477,6.291,2,14c1.891-0.224,2.206,1.127,4,1C157.046,120.4,158.842,111.711,151.136,111.186z"/>
<path fill-rule="evenodd" clip-rule="evenodd" fill="#B5C060" d="M147.136,64.186c0.334-3.523,4.095-7.175,8-4
	c-0.012-4.593,5.227-6.763,8-3c0.729-2.729-1.987-2.013-2-4c3.432-2.454,9.511-0.641,8,5c-6.35,0.983-13.559,1.107-15,7
	c0.309,2.358,3.473,1.86,3,5c-1.904,0.429-2.512,2.154-5,2c0.004-4.004-0.525-7.475-5-7
	C147.136,64.853,147.136,64.52,147.136,64.186z"/>
<path fill-rule="evenodd" clip-rule="evenodd" fill="#0C0F05" d="M144.136,51.186c0.197,4.023,0.125,4.095-3,3
	c-0.701,3.701,3.506,2.494,5,4c3.461,24.339-24.923,13.248-34,11c5.247,17.753,8.143,37.857,17,52c-0.137,4.137,2.273,5.727,4,8
	c-0.733,1.781-1.818,0.144-3,0c-6.209-10.458-9.8-23.533-16-34c0-0.667,0-1.333,0-2c-2.417-9.989-8.633-21.27-5-34
	c1.793-0.127,2.109,1.224,4,1c3.181,1.529,4.399,0.351,8,0c-0.154,2.488,1.571,3.096,2,5c3.438,0.105,7.182,0.516,8-2
	c-0.033,3.033,3.508,2.492,6,3c1.016-13.349-10.549-14.118-15-22c2.305-2.695,4.356-5.644,8-7c0,0.333,0,0.667,0,1
	c1.167,1.5,2.888,2.445,3,5c7.587-3.736,14.802-1.907,23-3c-0.012,1.322-1.753,0.914-2,2c0.849,2.151,3.682,2.318,7,2
	c-6.496,1.361-9.339,1.41-16,1c-1.511,3.769-6.88,2.137-6,6C141.624,51.077,142.232,49.312,144.136,51.186z"/>
<path fill-rule="evenodd" clip-rule="evenodd" fill="#B5C060" d="M193.136,125.186c-16.929,3.216-10.779-6.63-16-14
	c1.479-0.521,2.521-1.479,4-2c1.126,5.276,3.17,8.494,6,14c5.317-3.73,11.707-0.246,14-7c-3.465,0.132-5.805-0.861-5-5
	c5.962-1.295,5.583,3.751,7,7c3.144,0.144,3.436-2.564,4-5c-3.125,0.458-3.197-2.137-3-5c1.758,0.575,5.875-1.208,6,1
	c0.725,3.059-1.725,2.941-1,6c1.742,0.075,3.11-0.223,4-1c0.888,1.778,2.792,2.542,2,6
	C206.296,120.346,198.16,121.209,193.136,125.186z"/>
<path fill-rule="evenodd" clip-rule="evenodd" fill="#B5C060" d="M145.136,133.186c0.261-1.406,2.193-1.14,3-2
	c0.541-3.541-3.541-2.459-3-6c1.015-2.579,4.624-3.831,6-1c0,2.333,0,4.667,0,7c1.871,0.054,2.117-0.77,1-2
	c6.957-1.882,8.041-0.628,10-5c2.449,1.329-1.099,3.721,1,4c3.477-6.926,9.273,0.089,13-7c1.167,1.5,2.888,2.445,3,5
	c-6.268,2.732-14.999,3.001-21,6c-0.333,0-0.667,0-1,0C153.581,130.554,150.114,133.396,145.136,133.186z"/>
<path fill-rule="evenodd" clip-rule="evenodd" fill="#B5C060" d="M146.136,69.186c4.17,0.029,4.501,3.892,3,7
	c6.296,1.606,0.914,8.934,7,11c-1.521,4.146-9.018,2.315-9,8c2.333,0.334,4.309,1.025,5,3c-5.589,9.586-5.538-4.217-9-6
	c-0.191-5.314,2.967-5.058,7-4c0.197-2.863,0.125-5.458-3-5c-1.927,0.407-0.79,3.877-4,3c-0.407-1.927-3.877-0.79-3-4
	c0.211-1.122,1.11-1.557,2-2c2.333-0.856,4.309,3.497,5,1c-1.493-2.174-1.057-6.277-3-8
	C144.274,71.324,144.794,69.844,146.136,69.186z"/>
<path fill-rule="evenodd" clip-rule="evenodd" fill="#404621" d="M183.136,66.186c0.09-2.729-1.666-2.013,0-4
	c-1.448-3.781,2.748-1.919,2-5c0.333,0,0.667,0,1,0c1.346,1.629,3.091,2.785,4,7c2.038-11.962,9.087-18.913,14-28
	c-2.356,0.022-2.944-1.723-6-1c0.096-2.77,7.34-1.397,9-1c-1.393,4.096-6.41,7.088-4,12c-2.851-2.732-3.931,1.945-6,3
	c-1.496,4.229,4.151,6.425,1,9c-1.481-0.186-0.917-2.417-1-4c-5.471,2.677-7.507,13.625-6,20c8.391-1.181,13.751-6.663,16-9
	c-0.015,1.311-2.774,1.274-3,0c2.512-6.863,8.396-5.646,15-7c0,1,0,2,0,3c-2.221,7.039-0.611,10.274-1,16
	c0.014,6.573,6.529,9.981,5,15c-1.387-1.613-2.064-3.936-4-5c-0.81,0.19-0.997,1.003-2,1c5.289,6.369-3.228,17.751,6,22
	c-0.241,1.759-1.721,2.279-4,2c0.839,1.161,1.319,2.681,1,5c1.594-4.142,8.455,4.071,13,0c-2.059,3.781-8.987,2.778-13,2
	c-4.476-9.551-5.263-25.757-4-38c-8.39,21.471,10.934,48.3-23,45c0-0.333,0-0.667,0-1c5.023-3.977,13.16-4.84,22-5
	c0.792-3.458-1.112-4.222-2-6c-3.057-3.965-3.287-11.97-5-12c-0.124-5.043,1.954-3.828,3-1c0.58-3.247-0.681-4.652-1-7
	c-3.454,0.787-4.399-0.935-5-3c0.239-2.761,3.718-2.282,5-4c-1.786-1.548-0.665-6.002-3-7c3.451-0.68,5.918-6.104,4-9
	c-3.201,0.132-4.399,2.267-4,6c-1.278-0.055-1.385-1.282-3-1c-2.099,6.648-10.44,0.551-17.182,3.793"/>
<path fill-rule="evenodd" clip-rule="evenodd" fill="#F7EC66" d="M417.136,75.186c1,0,2,0,3,0c2.055-1.202-6.942-4.498-1-7
	c46.297,3.5,112.197-24.762,148,7c0,1.333,0,2.667,0,4c-3.864-2.469-9.086-3.581-14-5c0.521-1.479,1.479-2.521,2-4
	c-3.07,0.735-6.543,4.345-12,2c7.468-5.056-11.209-6.595-18-2c-1.574-1.486-1.114-4.468,2-4c-4.839-4.331-10.196-3.076-17-1
	c0.688-2.689-2.067-1.933-3-3c-2.065,0.601-3.787,1.546-3,5c-4.32-4.464-5.41,2.18-10,3c1.024-2.894-7.962-3.48-3-4
	c-0.161-1.172-1.823-0.843-3-1c-1.001,0.789,0.373,3.498-2,5c0.176-1.782-1.862-3.938-7-3c0.215,3.422,3.297,3.005,0,5
	c-1.115-0.914-0.314-1.859-1-5c-1.654,2.346-5.834,2.166-10,2c-1.008,3.008,2.228,1.772,4,2c-9.597,2.041-21.774,6.159-27,11
	c-1.991-3.003-8.505-3.401-12-2c0.542-3.875-5.802-0.865-6-4c0.508,3.012-4.121,1.54-7,0
	C418.717,76.272,417.304,76.351,417.136,75.186z"/>
<path fill-rule="evenodd" clip-rule="evenodd" fill="#F7EC66" d="M445.136,82.186c5.226-4.841,17.403-8.959,27-11
	c-1.772-0.228-5.008,1.008-4-2c4.166,0.166,8.346,0.346,10-2c0.686,3.141-0.115,4.086,1,5c3.297-1.995,0.215-1.578,0-5
	c5.138-0.938,7.176,1.218,7,3c2.373-1.502,0.999-4.211,2-5c1.177,0.157,2.839-0.172,3,1c-4.962,0.52,4.024,1.106,3,4
	c4.59-0.82,5.68-7.464,10-3c-0.787-3.454,0.935-4.399,3-5c0.933,1.067,3.688,0.311,3,3c6.804-2.076,12.161-3.331,17,1
	c-3.114-0.468-3.574,2.514-2,4c6.791-4.595,25.468-3.056,18,2c5.457,2.345,8.93-1.265,12-2c-0.521,1.479-1.479,2.521-2,4
	c4.914,1.419,10.136,2.531,14,5c0,0.333,0,0.667,0,1c-4.891-0.776-7.636-3.698-14-3c-29.851-10.613-70.439-8.25-99,4
	c-0.333,0-0.667,0-1,0C450.542,81.003,446.439,84.382,445.136,82.186z"/>
<path fill-rule="evenodd" clip-rule="evenodd" fill="#B5C060" d="M218.136,77.186c1.406,0.261,1.14,2.193,2,3
	c2.48,1.298,4.853-2.231,5,0c-3.861,2.102,2.692,8.054-1,13c1.44,2.212,2.44-1.259,3,1c-3.637,3.06,5.062,7.515,1,11
	c-0.012-1.322-1.753-0.914-2-2c0.764-3.739,1.226-7.103-4-7c0.361,6.062,3.338,16.451,8,12c-0.279,2.279,0.241,3.759,2,4
	c-0.826,2.826,1.409,2.591,1,5c-4.545,4.071-11.406-4.142-13,0c0.319-2.319-0.161-3.839-1-5c2.279,0.279,3.759-0.241,4-2
	c-9.228-4.249-0.711-15.631-6-22c1.003,0.003,1.19-0.81,2-1"/>
<path fill-rule="evenodd" clip-rule="evenodd" fill="#A5AB7B" d="M62.136,109.186c1.313,0.353,1.573,1.761,3,2
	c2.259-0.56-1.212-1.56,1-3c2.182-0.182,3.182,0.818,3,3c1.57-0.43,0.854-3.146,4-2c0.025-5.238-8.396-10.102-8-15
	c-1.35-0.257-5.271-0.529-5-5c2.039,0.558,1.961,3.009,4,1c0.652-3.986-3.802-2.865-7-3c0-1.333,0-2.667,0-4c1.333,0,2.667,0,4,0
	c0.826-2.826-1.409-2.591-1-5c-1.753-0.276-4.99,2.816-6,0c0.419-3.911,4.453,0.685,4-5c-0.708-3.625-4.386-4.281-3-10
	c5.072,13.91,11.918,26.809,18,42c1.827-3.525,2.353,0.104,4,2c-3.798,6.274,7.024,14.871,9,22c-3.673-0.327-2.887-5.113-7-5
	c0.256-4.922-1.236-8.097-5-9c-2.261,0.405,0.528,5.861-4,4c1.526,1.398,4.314,3.702,2,6c-1.333,0-2.667,0-4,0
	c0.998-4.331-1.117-5.549-2-8c2.638,0.304,2.579-2.088,3-4C67.398,111.258,62.192,112.797,62.136,109.186z"/>
<path fill-rule="evenodd" clip-rule="evenodd" fill="#B5C060" d="M55.136,63.186c-1.386,5.719,2.292,6.375,3,10
	c0.453,5.685-3.581,1.089-4,5c1.01,2.816,4.247-0.276,6,0c-0.409,2.409,1.826,2.174,1,5c-1.333,0-2.667,0-4,0c0,1.333,0,2.667,0,4
	c3.198,0.135,7.652-0.986,7,3c-2.039,2.009-1.961-0.442-4-1c-0.271,4.471,3.65,4.743,5,5c-0.396,4.898,8.025,9.762,8,15
	c-3.146-1.146-2.43,1.57-4,2c0.182-2.182-0.818-3.182-3-3c-2.212,1.44,1.259,2.44-1,3c-1.427-0.239-1.687-1.647-3-2
	c-0.407-1.927-3.877-0.79-3-4c0-0.333,0-0.667,0-1c-6.504-12.496-13.591-24.409-19-38C44.915,65.691,51.264,58.164,55.136,63.186z"
	/>
<path fill-rule="evenodd" clip-rule="evenodd" fill="#404621" d="M503.136,80.186c1.712-2.289,7.633-0.367,11-1
	c1.75-7.102-15.212-11.056-16-3c-2.306,0.306-1.111-2.889-3-3c-2.812-0.145-2.884,2.449-3,5c-1.444-1.223-1.517-3.816-3-5
	c-1.434,1.566-5.213,0.788-5,4c-6.707-5.781-19.858,4.514-24,1c-1.377,1.548-2.014,6.002-1,7c6.849-0.151,11.227-2.773,15-6
	c0,1.333,0,2.667,0,4c4.799-0.201,7.323-2.676,13-2c-14.243,4.771-30.34,3.11-43,8c1.126-4.484,13.895-1.726,10-8
	c28.561-12.25,69.149-14.613,99-4c-10.869-2.677-23.267-2.526-32-5c-6.377,3.453-0.663,9.112,4,10c-1.445,1.554-2.104,3.897-3,6
	c-1.075-2.925-4.487-3.513-9-3C530.722,82.85,515.898,77.563,503.136,80.186z"/>
<path fill-rule="evenodd" clip-rule="evenodd" fill="#B5C060" d="M122.136,95.186c-2.885,0.08-2.885-7.08,0-7
	c-0.903-3.367-2.237-0.118-4-2c-0.539-3.872,2.549-4.118,3-7c0.193-3.86-4.645-2.689-4-7c3.712,0.288,6.87,1.13,8,4
	c3,10.887,7.621,20.333,12,30c-1.283,1.375-5.979,1.741-6-1c-0.409-2.409,1.826-2.174,1-5c-3.886-0.448-4.228-4.439-5-8
	C124.582,92.298,123.636,94.019,122.136,95.186z"/>
<path fill-rule="evenodd" clip-rule="evenodd" fill="#B5C060" d="M103.136,99.186c-1.116-4.449,2.646-4.021,3-7
	c-0.87-2.954-1.497,2.32-4,1c-1.341-7.859-6.442-15.052-3-20c5.289,1.044,0.787,11.88,8,11c0.409,2.409-1.826,2.174-1,5
	c0.111,1.889,3.306,0.694,3,3c1.172-0.162,0.843-1.823,1-3c2.352,0.315,0.593,4.74,4,4c0,0.667,0,1.333,0,2
	c2.332,15.139,10.578,23.248,10,34c1.017-0.65,1.034-2.299,3-2c-1.069,3.736,2.483,2.85,2,6c-1.988-3.124-4.55,3.886-2,5
	c-1.378,0.479-3.67-1.346-8,0c-5.451-7.12-1.826-27.133-9-24c-2.433-0.627-0.529-5.053,2-4c-0.411-3.255-4.755-2.578-7-4
	C105.769,102.448,106.711,100.459,103.136,99.186z"/>
<path fill-rule="evenodd" clip-rule="evenodd" fill="#0C0F05" d="M51.136,51.186c2.522,1.317-2.622,3.283-2,6
	c2.182,0.182,3.182-0.818,3-3c12.445,18.068,2.265,5.196-11,7c-3.746,4.341,0.714,11.867,2,19c-3.033-3.3-6.095-6.571-7-12
	c-1.173,8.517,9.544,13.782,10,24c-8.051-1.616-6.346-12.987-13-16c-1.515,5.535,5.623,11.029,7,17c1.172-0.162,0.843-1.823,1-3
	c4.708,1.626,4.555,8.112,9,10c2.496-1.908-1.245-4.342,1-7c2.379,3.955,3.866,8.801,8,11c0,0.333,0,0.667,0,1
	c-1.086,0.248-0.678,1.988-2,2c4.425,0.575,1.845,8.155,8,7c0.306,2.306-2.889,1.111-3,3c2.019,4.846,9.485,8.912,8,14
	c-0.168,2.168,3.547,0.453,5,1c2.181,3.819,2.199,9.801,3,15c-0.168,2.168,3.547,0.453,5,1c1.346,6.987,4.917,11.749,11,14
	c-1.732,4.935-6.533,6.801-9,11c-0.333,0-0.667,0-1,0c-2.247,2.334-7.421,4.568-10,1c17.35-0.567,1.447-14.105-5-19
	c0.149-5.902-8.17-6.098-5-12c-1.869-1.958-3.663-0.309-6,0c-1.675-5.325-7.087-6.913-9-12c-7.517-11.15-16.591-20.742-24-32
	c-2.826-0.826-2.591,1.409-5,1c0.19-0.81,1.003-0.997,1-2C10.324,65.681,39.802,64.872,51.136,51.186z"/>
<path fill-rule="evenodd" clip-rule="evenodd" fill="#D9D082" d="M75.136,93.186c-8.317-8.731-17.066-29.942-19-45
	C63.656,62,70.562,76.427,75.136,93.186z"/>
<path fill-rule="evenodd" clip-rule="evenodd" fill="#F7EC66" d="M490.136,92.186c-25.887,5.25-51.43,14.354-68-6
	c28.253,10.466,58.374-7.669,91-4c-5.502,5.164-18.456,2.877-22,10C490.803,92.186,490.469,92.186,490.136,92.186z"/>
<path fill-rule="evenodd" clip-rule="evenodd" fill="#404621" d="M55.136,47.186c2.995-2.876,5.328,0.548,7,2
	c1.402-1.598,3.445-2.555,6-3c9.121,13.546,10.663,34.67,20,48c-1.208-7.458-4.289-13.044-6-20c2.756,4.577,5.319,9.348,7,15
	c1.615,0.282,1.722-0.945,3-1c-0.106-4.662-5.177-5.9-2-11c0.833,2.533,7.243,12.696,6,5c0-0.333,0-0.667,0-1
	c2.115,4.987,2.677,8.682,5,15c-2.869-0.798-0.628-6.705-5-6c2.818,15.516,7.067,29.6,15,40c0.791-11.344-7.559-21.613-10-33
	c1.086,0.248,0.678,1.988,2,2c3.575,1.273,2.633,3.262,2,7c2.245,1.422,6.589,0.745,7,4c-2.529-1.053-4.433,3.373-2,4
	c1.837,8.83,5.64,15.693,7,25c-3.883,0.216-1.298-6.036-5-6c-0.652,6.318,5.108,6.226,4,13c-3.056-0.723-3.644,1.022-6,1
	c-2.091-1.575-1.758-5.575-4-7c1.488,5.155-2.384,4.949-3,8c0,0.333,0,0.667,0,1c-3.316-1.351-2.839-6.494-5-9
	c-1.862,0.138-3.342,0.658-4,2c-3.8-2.867-6.603-6.731-8-12c1.086,0.247,0.678,1.988,2,2c0.601-2.065,1.546-3.787,5-3
	c-0.472-8.528-5.246-12.754-8-19c0.15,3.888,4.234,9.048,1,13c-3.463-4.87-6.574-10.093-9-16c-1.647-1.896-2.173-5.525-4-2
	c-6.082-15.191-12.928-28.09-18-42c-3.873-5.022-10.221,2.505-15,3c5.409,13.591,12.496,25.504,19,38c-4.134-2.199-5.621-7.045-8-11
	c-2.245,2.658,1.496,5.092-1,7c-4.445-1.888-4.292-8.374-9-10c-0.157,1.177,0.172,2.838-1,3c-1.377-5.971-8.515-11.465-7-17
	c6.654,3.013,4.949,14.384,13,16c-0.456-10.218-11.173-15.483-10-24c0.905,5.429,3.967,8.7,7,12c-1.286-7.133-5.746-14.659-2-19
	c13.265-1.804,23.445,11.068,11-7c0.182,2.182-0.818,3.182-3,3c-0.622-2.717,4.522-4.683,2-6
	C52.04,49.423,53.373,48.089,55.136,47.186z M56.136,48.186c1.934,15.058,10.683,36.269,19,45
	C70.562,76.427,63.656,62,56.136,48.186z"/>
<path fill-rule="evenodd" clip-rule="evenodd" fill="#B5C060" d="M180.136,91.186c1.279-1.368,4.721-1.368,6,0
	c-1.775,8.581,6.328,13.012,3,22c-4.562-0.104-3.729-5.604-8-6c-0.151-2.57,5.578-3.235,4,1c3.964-3.037-7.854-8.281-1-11
	C182.267,95.722,179.385,95.271,180.136,91.186z"/>
<path fill-rule="evenodd" clip-rule="evenodd" fill="#B5C060" d="M206.136,105.186c-5.395-0.061-7.035,3.631-12,4
	c-1.983-1.968-0.637-5.712,0-8c-2.125-2.074-4.042-4.352-7-3c-0.857-3.19,1.574-3.093,2-5c2.673,1.855,7.372,3.518,10,12
	c2.168,0.168,0.453-3.547,1-5c2,0,4,0,6,0C206.136,101.853,206.136,103.52,206.136,105.186z"/>
<path fill-rule="evenodd" clip-rule="evenodd" fill="#A5AB7B" d="M101.136,96.186c-2.323-6.318-2.885-10.013-5-15
	c1.2-1.313,0.39-1.573,0-3c-1.207-4.207,1.615-4.385,2-7c-2.66-2.34-3.035-6.965-4-11c2.4,9.402,8.644,8.29,13,17
	c-3.024-7.303-1.542-15.321,1-22c0.087,3.246,5.963,0.704,5,5c-1.891,0.224-2.207-1.127-4-1c-3.633,12.73,2.583,24.011,5,34
	c-3.407,0.74-1.648-3.685-4-4c-0.157,1.177,0.172,2.838-1,3c0.306-2.306-2.889-1.111-3-3c-0.826-2.826,1.409-2.591,1-5
	c-7.213,0.88-2.711-9.956-8-11c-3.442,4.948,1.659,12.141,3,20c2.503,1.32,3.13-3.954,4-1c-0.354,2.979-4.116,2.551-3,7
	c-1.322-0.012-0.914-1.752-2-2C101.136,96.853,101.136,96.52,101.136,96.186z"/>
<path fill-rule="evenodd" clip-rule="evenodd" fill="#F4E3A3" d="M502.136,96.186c-0.169-2.168,3.547-0.453,5-1
	c-5.886,8.686,5.489,10.81,6,19c4.707-3.467,7.002,2.584,10,4c1.722,4.945,5.514,7.82,9,11c-2.442-2.095-2.131-1.429-6-1
	c-1.388-1.279-0.612-4.721-2-6c-2.041,1.292-1.818,4.848-6,4c0-1.667,0-3.333,0-5c0.89-0.777,2.258-1.075,4-1
	c-1.785-1.882-2.704-4.629-5-6c-1.172,0.162-0.844,1.823-1,3c-3.58-0.42-4.812-3.188-5-7c-2.041,1.292-1.818,4.848-6,4
	c-0.839-1.161-1.319-2.681-1-5c0.89-0.777,2.258-1.075,4-1c-0.96-3.04-4.017-3.983-5-7c-0.154-2.488,1.571-3.096,2-5
	C504.136,96.186,503.136,96.186,502.136,96.186z"/>
<path fill-rule="evenodd" clip-rule="evenodd" fill="#F4E3A3" d="M440.136,106.186c17.836,6.436,28.025-2.703,42,0
	c1.001-0.789-0.373-3.498,2-5c7.738,0.072,10.616-4.717,18-5c1,0,2,0,3,0c-0.429,1.904-2.154,2.512-2,5c0.983,3.017,4.04,3.96,5,7
	c-1.742-0.075-3.11,0.223-4,1c-0.319,2.319,0.161,3.839,1,5c4.182,0.848,3.959-2.708,6-4c0.188,3.812,1.42,6.58,5,7
	c0.156-1.177-0.172-2.838,1-3c2.296,1.371,3.215,4.118,5,6c-1.742-0.075-3.11,0.223-4,1c0,1.667,0,3.333,0,5
	c4.182,0.848,3.959-2.708,6-4c1.388,1.279,0.612,4.721,2,6c3.869-0.429,3.558-1.095,6,1c1.914,5.565,11.339,10.384,7,16
	c1.402,2.038,3.445-0.982,6,1c5.568,10.766,13.344,19.323,22,27c0,43.334,0,86.666,0,130c-24.667,0-49.333,0-74,0
	c2.213-4.096-10.711-5.406-6-12c-2.319,0.319-3.84-0.161-5-1c-0.137-9.1-5.147-10.959-7-20c-8.105,1.79-4.564,15.006-1,19
	c0,0.667,0,1.333,0,2c-2.667,0-5.333,0-8,0c1.932-2.226-3.265-3.386-3-7c-12.158,11.277-31.199-6.322-46-4
	c-0.75,11.083,14.549,6.118,19,12c-6.063,0.063-8.3-3.7-15-3c0.869,2.908,1.497,1.125,4,1c-0.454,4.88,1.299,8.885,4,13
	c-13,0-26,0-39,0c1.656-4.989-4.855-1.811-6-4c-2.967-13.197-3.648-27.068-1-37c2.358-0.309,1.86-3.473,5-3
	c2.246,5.742-5.498,7.943,1,12c1.264-7.194,8.736-15.59,5-24c-3.716,0.65-3.382,5.946-2,9c-2.409-0.409-2.174,1.826-5,1
	c-2.716-3.01,2.188-4.462,1-9c1.945-8.055,9.114-10.886,13-17c3.726-0.607,6.187-2.48,8-5c10.447,0.739,16.386-7.83,12-16
	c5.669-4.664,12.192-8.474,14-17c0.602,9.602-5.399,12.601-12,15c-2.602,9.215,9.324,4.192,8,10c0.522,0.741,7.801-3.554,7,3
	c3.474-16.354,5.364-37.442-4-50c-3.493,2.287,2.362,3.543,1,7c-1.449-1.824-6.403-6.416-2-8c13.092,7.241,7.967,32.7,9,52
	c3.553-0.114,4.024-3.31,4-7c0-1.333,0-2.667,0-4c5.6-13.998,1.61-23.884,3-38c-5.812-4.994-9.977-15.366-20-13
	c0.054-13.789,3.643-18.58,4-31c4.187-3.146,13.799-0.868,13-9c-0.351-3.316-5.764-1.569-9-2
	C436.825,112.875,436.714,107.764,440.136,106.186z M458.136,247.186c-5.022-11.598,13.113-18.117,7-32
	c-5.946,23.108-23.375,20.107-43,19c0.709,3.305-7.101,8.158-2,14c7.437-10.493,28.103-9.696,32,4c6.047-2.812,7.793,1.367,12,3
	c0.674-5.008-2.67-5.997-5-8C458.803,247.186,458.469,247.186,458.136,247.186z M512.136,203.186c-5.592-0.103-3.16,10.338-9,7
	c-0.225,1.891,1.127,2.206,1,4c-12.09-2.74-18.379,16.452-22,26c3.883,4.093,11.827,9.092,18,5c-2.4,2.6-1.394,8.606-3,12
	c4.173,2.945,15.054,5.521,23,1c-0.494,5.506-11.506,0.494-12,6c4.302,3.698,4.954,11.046,13,11c0.923-4.589-2.502-4.831-2-9
	c8.7-7.633,22.748-9.919,25-24c4.105-2.499,4.003,1.797,9,1c1.146-4.146-2.104-3.896-2-7c5.58-0.132,1.793-5.683,1-8
	c2.551-0.116,5.146-0.188,5-3c-1.707-0.96-2.191-3.142-3-5c1.872-1.129,4.817-1.183,4-5c-7.021,0.41-7.148-4.536-6-10
	c-4.665-2.574-8.156-4.328-5-10c-5.89,0.432-10.451-3.868-14-1c-2.761,2.854-2.282-1.957-4-3c-3.71,5.623-14.495,4.171-16,12
	C512.803,203.186,512.469,203.186,512.136,203.186z"/>
<path fill-rule="evenodd" clip-rule="evenodd" fill="#F4E3A3" d="M388.136,248.186c1.188,4.538-3.716,5.99-1,9
	c2.826,0.826,2.591-1.409,5-1c-1.382-3.054-1.716-8.35,2-9c3.736,8.41-3.736,16.806-5,24c-6.498-4.057,1.246-6.258-1-12
	c-3.14-0.473-2.642,2.691-5,3C385.087,257.803,385.568,251.951,388.136,248.186z"/>
<path fill-rule="evenodd" clip-rule="evenodd" fill="#F7EC66" d="M567.136,133.186c0,10,0,20,0,30c-7.312-8.354-13.635-17.698-20-27
	c-9.529-8.804-14.901-21.766-27-28c-0.66-3.007-3.843-3.49-3-8c15.963-4.213,32.204-5.912,50-4c0,1,0,2,0,3
	c-3.164,0.164-3.343-2.658-7-2c-2.874,2.798,0.234,10.042,5,11c1.008,3.008-2.229,1.772-4,2c2.24,1.759,6.162,1.838,5,7
	c-6.329-0.004-7.403-5.263-8-11c-2.396,0.605-4.562,1.438-8,1c1.241-2.092,2.908-3.758,5-5c-2.991-1.912-0.729-2.868-2-6
	c-3.192,1.474-1.746,7.587-8,6c-1.158-1.479-1.158-2.521,0-4c-4.314,0.965-5.352,3.665-6,6c0.147,2.231,2.52-1.298,5,0
	c0.857,3.177-8.737,4.353-3,6c-0.017,1.527-7.41,2.192-6-1c-4.173,1.059,0.572,5.242-3,6c4.482,2.184,3.985,9.348,9,11
	c2.363-1.505-2.293-5.266,3-3c-4.05-6.158-2.517-13.181,6-14c-0.164,5.164,4.046,5.954,4,11c-1.16,0.839-2.681,1.319-5,1
	c1.018-3.43-2.832-7.062-5-4c-0.551,2.051,1.91,2.386,2,1c0.513,2.172-0.668,6.238-3,9c6.396,6.271,10.669,14.665,17,21
	C565.421,145.738,561.704,129.649,567.136,133.186z"/>
<path fill-rule="evenodd" clip-rule="evenodd" fill="#B5C060" d="M176.136,115.186c-0.586,2.081-2.102,3.232-3,5
	c-0.804-0.529-1.624-1.043-3-1c-0.392-5.072-5.483-11.078-1-15c3.078-0.745,1.922,2.745,5,2c2.902-1.098,0.644-7.356,6-6
	c2.004,9.004-7.029,6.971-10,11C171.642,113.013,174.45,113.539,176.136,115.186z"/>
<path fill-rule="evenodd" clip-rule="evenodd" fill="#B5C060" d="M23.136,102.186c0.443,0.89,0.878,1.789,2,2
	c-0.685,3.162-3.775,6.839,0,9c3.12-1.506-2.94-4.314,0-6c6.712-0.045,7,6.333,10,10c-1.987-0.013-1.271-2.729-4-2
	c-5.809,8.193,7.498,13.556,7,23c-2.044-3.29-3.441-7.226-8-8c-0.713-8.287-6.939-11.061-8-19c-2.813,0.187-4.26,1.74-4,5
	c-2.375,0.832-4.655-4.948-5,0c-1.464-1.869-1.916-4.751-6-4C8.562,104.946,18.047,105.763,23.136,102.186z"/>
<path fill-rule="evenodd" clip-rule="evenodd" fill="#B5C060" d="M38.136,138.186c0.498-9.444-12.809-14.807-7-23
	c2.729-0.729,2.013,1.987,4,2c0.856,3.204,3.878,3.526,2,7c2.063-2.677,8.2,5.042,10,9c-1.333,0-2.667,0-4,0
	c-1.941,5.95,6.663,7.873,0,10C39.731,143.258,39.411,140.245,38.136,138.186z"/>
<path fill-rule="evenodd" clip-rule="evenodd" fill="#D9D082" d="M13.136,116.186c0.345-4.948,2.625,0.832,5,0
	c-0.26-3.26,1.187-4.813,4-5c1.061,7.939,7.287,10.713,8,19C25.198,124.791,17.646,122.01,13.136,116.186z"/>
<path fill-rule="evenodd" clip-rule="evenodd" fill="#656C42" d="M502.136,96.186c-7.384,0.283-10.262,5.072-18,5
	c-2.373,1.502-0.999,4.211-2,5c-13.975-2.703-24.164,6.436-42,0c-0.807,0.86-2.739,0.594-3,2c-0.333,0-0.667,0-1,0
	c12.098-8.111,36.488,3.173,47-11c7.458,5.573,16.488-8.384,27-3c0.869,3.869-2.442,3.558-3,6c2.974,7.36,12.021,8.646,15,16
	c0.189,0.81,1.003,0.997,1,2c-2.998-1.416-5.293-7.467-10-4c-0.511-8.19-11.886-10.314-6-19
	C505.683,95.733,501.967,94.018,502.136,96.186z"/>
<path fill-rule="evenodd" clip-rule="evenodd" fill="#B5C060" d="M157.136,126.186c-1.794,0.127-2.109-1.224-4-1
	c2.477-7.709-2.601-6.318-2-14C158.842,111.711,157.046,120.4,157.136,126.186z"/>
<path fill-rule="evenodd" clip-rule="evenodd" fill="#A5AB7B" d="M114.136,95.186c6.2,10.467,9.791,23.542,16,34
	c-0.69,5.023,4.018,4.648,3,10c-5.347-0.014-8.712,1.954-13,3c-1.017-0.65-1.034-2.299-3-2c0-0.333,0-0.667,0-1
	c-1.36-9.307-5.163-16.17-7-25c7.174-3.133,3.549,16.88,9,24c4.33-1.346,6.622,0.479,8,0c-2.55-1.114,0.012-8.124,2-5
	c0.483-3.15-3.069-2.264-2-6c-1.966-0.299-1.983,1.35-3,2C124.714,118.434,116.468,110.325,114.136,95.186z"/>
<path fill-rule="evenodd" clip-rule="evenodd" fill="#B5C060" d="M72.136,125.186c2.314-2.298-0.474-4.602-2-6
	c4.528,1.861,1.739-3.595,4-4c3.764,0.903,5.256,4.078,5,9c4.113-0.113,3.327,4.673,7,5c0,0.333,0,0.667,0,1
	c1.397,5.269,4.2,9.133,8,12c0.658-1.342,2.138-1.862,4-2c2.161,2.506,1.684,7.649,5,9C87.894,177.949,83.236,129.16,72.136,125.186
	z"/>
<path fill-rule="evenodd" clip-rule="evenodd" fill="#0C0F05" d="M74.136,206.186c-9.376-41.569-99.809-64.069-67-100
	c2.709,0.903-2.286,2.237-2,4c6.048,9.952,18.071,13.929,24,24c-0.306,3.027-3.094,3.573-2,8c0.789,2.211,3.498,2.502,5,4
	c3.499-3.243-2.495-5.448-2-9c4.351-0.684,5.535,1.799,7,4c2.574,2.868-1.407,5.244-3,7c0.529,0.804,1.043,1.624,1,3
	c3.228,0.895,1.405-3.262,3-4c3.349,1.87,5,6.044,9,2c0.322,3.655-2.691,3.975-5,5c1.565,3.435,3.31,6.689,9,6c0,2,0,4,0,6
	c3.906-1.297,5.518,1.346,10,4c1.172-0.161,0.843-1.823,1-3c-3.151-1.516-6.77-2.563-6-8c5.16,2.174,7.008,7.658,10,12
	c-1.419-0.086-2.832-0.165-3,1c-0.169,2.503,1.536,3.131,3,4c0.851-0.184,0.943,0.39,1,1c4.109-2.585,4.254-0.966,9,0
	c0.282,1.615-0.945,1.722-1,3C59.513,184.488,75.292,197.702,74.136,206.186z"/>
<path fill-rule="evenodd" clip-rule="evenodd" fill="#404621" d="M37.136,141.186c10.541,9.793,22.887,17.779,31,30
	c-0.89,0.776-2.258,1.075-4,1c0.521,1.479,1.479,2.521,2,4c-1.464-0.869-3.169-1.497-3-4c0.168-1.165,1.581-1.086,3-1
	c-2.992-4.342-4.84-9.826-10-12c-0.77,5.437,2.849,6.484,6,8c-0.157,1.177,0.172,2.839-1,3c-4.482-2.654-6.094-5.297-10-4
	c0-2,0-4,0-6c-5.69,0.689-7.435-2.565-9-6c2.309-1.025,5.322-1.345,5-5c-4,4.044-5.651-0.13-9-2c-1.595,0.738,0.228,4.895-3,4
	c0.043-1.376-0.471-2.196-1-3C35.729,146.43,39.71,144.054,37.136,141.186z"/>
<path fill-rule="evenodd" clip-rule="evenodd" fill="#656C42" d="M13.136,116.186c4.51,5.824,12.062,8.604,17,14
	c4.559,0.774,5.956,4.71,8,8c1.275,2.059,1.595,5.072,5,5c3.477,5.874,2.912-6.263,5,1c6.964,11.562,18.713,28.357,33,26
	c-1.175-5.594-7.925-7.148-11-8c0.022-2.355-1.723-2.944-1-6c0-0.333,0-0.667,0-1c6.447,4.895,22.35,18.433,5,19
	c2.579,3.568,7.753,1.334,10-1c-0.354,1.313-1.761,1.573-2,3c-3.651,0.016-4.491,2.843-7,4c0.055-1.278,1.282-1.385,1-3
	c-4.746-0.966-4.891-2.585-9,0c-0.057-0.61-0.149-1.184-1-1c-0.521-1.479-1.479-2.521-2-4c1.742,0.075,3.11-0.224,4-1
	c-8.113-12.221-20.459-20.207-31-30c-1.465-2.201-2.649-4.684-7-4c-0.495,3.552,5.499,5.757,2,9c-1.502-1.498-4.211-1.789-5-4
	c-1.094-4.427,1.694-4.973,2-8c-5.929-10.071-17.952-14.048-24-24c-0.286-1.763,4.709-3.097,2-4c4.572-2.762,9.389-5.278,14-8
	c0.003,1.003-0.81,1.19-1,2c2.409,0.409,2.174-1.826,5-1c7.409,11.258,16.483,20.85,24,32c-8.548-8.785-15.419-19.247-23-29
	c-1,0-2,0-3,0c-5.089,3.577-14.574,2.76-16,10C11.221,111.435,11.672,114.317,13.136,116.186z"/>
<path fill-rule="evenodd" clip-rule="evenodd" fill="#656C42" d="M62.136,109.186c0.056,3.611,5.262,2.072,7,4
	c-0.421,1.912-0.362,4.304-3,4c0.883,2.451,2.998,3.669,2,8c1.333,0,2.667,0,4,0c11.1,3.974,15.757,52.763,31,24
	c0-0.333,0-0.667,0-1c1.28,1.645,2.59,5.426,1,7c3.651-0.016,4.491-2.843,7-4c-8.223,7.777-18.148,13.852-26,22
	c2.467-4.199,7.268-6.065,9-11c-6.083-2.251-9.654-7.013-11-14c-1.453-0.547-5.168,1.168-5-1c-0.801-5.199-0.819-11.181-3-15
	c-1.453-0.547-5.168,1.168-5-1c1.485-5.088-5.981-9.154-8-14c0.111-1.889,3.306-0.694,3-3c-6.155,1.155-3.575-6.425-8-7
	c1.322-0.012,0.914-1.752,2-2C58.259,108.396,61.729,107.259,62.136,109.186z"/>
<path fill-rule="evenodd" clip-rule="evenodd" fill="#8A9156" d="M191.136,161.186c11.526-7.234,31.508-9.95,51-12
	c2.392-5.626-1.232-7.927-2-13c9.598,4.705,7.383,16.889-2,20c3.353-4.96-4.121-1.68-6-4c-14.055-0.055-22.603,5.397-34,8
	c-2.319-0.319-3.839,0.161-5,1C192.47,161.186,191.803,161.186,191.136,161.186z"/>
<path fill-rule="evenodd" clip-rule="evenodd" fill="#FCF8CE" d="M212.136,128.186c11.899-2.731,28.871-10.014,28,8
	c0.768,5.073,4.392,7.374,2,13c-19.492,2.05-39.474,4.766-51,12c-34.864,7.137-66.798,17.202-86,40c-0.333,0-0.667,0-1,0
	c-0.89,0.443-1.789,0.878-2,2c-1.401-0.354-0.086-1.761,1-2c-14.79,28.579-47.553-11.07-21-25c9.146-0.52,10.791-8.543,17-12
	c2.995,0.658-0.957,2.138,0,4c3.86-6.754,6.327-13.239,16-16c6.578-2.139,9.524-0.574,12-6c2.552,4.121,3.432-2.104,5,3
	c2.448-0.111,0.212-3.306-1-3c1.183-1.817,5.214-0.786,7-2c3.106,3.555,2.567,6.286,6,8c0.643-0.41,1.344-5.145,4-3
	c-1.818-2.892-0.192-4.559-3-5c3.051-1.949,6.673-3.327,12-3c0,1,0,2,0,3c1.927-1.852,0.79-1.832,4-1c0.292-1.498,1.335-1.789,3-4
	c6.97,4.396,12.123-7.627,15,0c2.659-4.849,16.303-8.283,18-5C198.937,128.987,210.262,133.312,212.136,128.186z"/>
<path fill-rule="evenodd" clip-rule="evenodd" fill="#FCF8CE" d="M212.136,128.186c-1.874,5.126-13.199,0.801-15,6
	c-1.697-3.283-15.341,0.151-18,5c-2.877-7.627-8.03,4.396-15,0c-1.665,2.211-2.708,2.502-3,4c-3.21-0.832-2.073-0.852-4,1
	c0-1,0-2,0-3c-5.327-0.327-8.949,1.051-12,3c2.808,0.441,1.182,2.108,3,5c-2.656-2.145-3.357,2.59-4,3c-3.433-1.714-2.894-4.445-6-8
	c-1.786,1.214-5.817,0.183-7,2c1.212-0.306,3.448,2.889,1,3c-1.568-5.104-2.448,1.121-5-3c-2.476,5.426-5.422,3.861-12,6
	c13.253-11.081,38.069-10.598,57-16C184.396,132.446,198.651,130.701,212.136,128.186z"/>
<path fill-rule="evenodd" clip-rule="evenodd" fill="#404621" d="M117.136,140.186c1.966-0.299,1.983,1.35,3,2
	c4.288-1.046,7.653-3.014,13-3c1.018-5.352-3.69-4.977-3-10c1.182,0.144,2.267,1.781,3,0c-1.727-2.273-4.137-3.863-4-8
	c3.957,4.377,6.683,9.984,11,14c-3.869,0.869-3.558-2.442-6-3c0,2.667,0,5.333,0,8c-2.356-0.022-2.944,1.723-6,1
	c-0.163,1.163,0.221,1.779,1,2c-6.66,1.673-11.218,5.449-17,8c0.796-3.204,5.741-2.259,7-5
	C119.619,143.036,116.067,143.922,117.136,140.186z"/>
<path fill-rule="evenodd" clip-rule="evenodd" fill="#0C0F05" d="M547.136,136.186c6.365,9.302,12.688,18.646,20,27c0,2,0,4,0,6
	c-6.271-1.2-6.252-12.427-12-11c-0.198-2.121-5.918-7.172-1-8c-6.491-1.438-10.828-9.402-15-16
	C541.89,130.479,544.382,134.471,547.136,136.186z"/>
<path fill-rule="evenodd" clip-rule="evenodd" fill="#A5AB7B" d="M69.136,156.186c-4.432-3.061-5.329-9.791-13-7
	c3.988-2.999-0.173-6.245-3-8c-0.959,1.707-3.142,2.192-5,3c-2.088-7.263-1.523,4.874-5-1c6.663-2.127-1.941-4.05,0-10
	c1.333,0,2.667,0,4,0c-1.8-3.958-7.937-11.677-10-9c1.878-3.474-1.144-3.796-2-7c-3-3.667-3.288-10.045-10-10
	c-2.94,1.686,3.12,4.494,0,6c-3.775-2.161-0.685-5.838,0-9c-1.122-0.211-1.557-1.11-2-2c1,0,2,0,3,0
	c7.581,9.753,14.452,20.215,23,29c1.913,5.087,7.325,6.675,9,12c2.337-0.309,4.131-1.958,6,0c-3.17,5.902,5.149,6.098,5,12
	C69.136,155.519,69.136,155.853,69.136,156.186z"/>
<path fill-rule="evenodd" clip-rule="evenodd" fill="#F7EC66" d="M567.136,133.186c-5.433-3.537-1.715,12.552-7,15
	c-6.331-6.335-10.604-14.729-17-21c2.332-2.762,3.513-6.828,3-9c-0.09,1.386-2.551,1.051-2-1c2.168-3.062,6.018,0.57,5,4
	c2.319,0.319,3.84-0.161,5-1c0.046-5.046-4.164-5.836-4-11c-8.517,0.819-10.05,7.842-6,14c-5.293-2.266-0.637,1.495-3,3
	c-5.015-1.652-4.518-8.816-9-11c3.572-0.758-1.173-4.941,3-6c-1.41,3.192,5.983,2.527,6,1c-5.737-1.647,3.857-2.823,3-6
	c-2.48-1.298-4.853,2.231-5,0c0.648-2.335,1.686-5.035,6-6c-1.158,1.479-1.158,2.521,0,4c6.254,1.587,4.808-4.526,8-6
	c1.271,3.132-0.991,4.088,2,6c-2.092,1.242-3.759,2.908-5,5c3.438,0.438,5.604-0.395,8-1c0.597,5.737,1.671,10.996,8,11
	c1.162-5.162-2.76-5.241-5-7c1.771-0.228,5.008,1.008,4-2c-4.766-0.958-7.874-8.202-5-11c3.657-0.658,3.836,2.164,7,2
	C567.136,110.52,567.136,121.853,567.136,133.186z"/>
<path fill-rule="evenodd" clip-rule="evenodd" fill="#404621" d="M440.136,106.186c-3.422,1.578-3.312,6.688-3,12
	c3.236,0.431,8.649-1.316,9,2c0.799,8.132-8.813,5.854-13,9c-0.357,12.42-3.946,17.211-4,31c10.023-2.366,14.188,8.006,20,13
	c-1.39,14.116,2.6,24.002-3,38c2.216-16.168,2.229-38.021-7-46c-3.999,3.965-7.406-2.715-12-4c-1.793-13.432,3.639-19.579,4-33
	c1.744-2.923,7.413-1.92,9-5c-0.46-3.874-4.902-3.764-6-7c0.246-3.087,1.014-5.653,2-8c0.333,0,0.667,0,1,0
	C437.397,106.78,439.33,107.046,440.136,106.186z"/>
<path fill-rule="evenodd" clip-rule="evenodd" fill="#D9D082" d="M48.136,144.186c1.858-0.808,4.041-1.293,5-3
	c2.827,1.755,6.988,5.001,3,8c7.671-2.791,8.568,3.939,13,7c-0.723,3.056,1.022,3.645,1,6c3.075,0.852,9.825,2.406,11,8
	C66.849,172.543,55.101,155.749,48.136,144.186z"/>
<path fill-rule="evenodd" clip-rule="evenodd" fill="#404621" d="M567.136,173.186c-8.656-7.677-16.432-16.234-22-27
	c-2.555-1.982-4.598,1.038-6-1c4.339-5.616-5.086-10.435-7-16c-3.486-3.18-7.278-6.055-9-11c0.003-1.003-0.811-1.19-1-2
	c5.229,5.104,11.376,9.291,15,16c0.805-0.529,1.623-1.043,3-1c-4.001-5.332-9.199-9.468-13-15c-0.649-4.351-4.81-5.19-7-8
	c12.099,6.234,17.471,19.196,27,28c-2.754-1.715-5.246-5.708-8-2c4.172,6.598,8.509,14.562,15,16c-4.918,0.828,0.802,5.879,1,8
	c5.748-1.427,5.729,9.8,12,11C567.136,170.519,567.136,171.853,567.136,173.186z"/>
<path fill-rule="evenodd" clip-rule="evenodd" fill="#8A9156" d="M172.136,136.186c-18.931,5.402-43.747,4.919-57,16
	c-9.673,2.761-12.14,9.246-16,16c-0.957-1.862,2.995-3.342,0-4c-6.209,3.457-7.854,11.48-17,12c0.239-1.427,1.646-1.687,2-3
	c0.333,0,0.667,0,1,0c7.852-8.148,17.777-14.223,26-22c0.333,0,0.667,0,1,0c5.782-2.551,10.34-6.327,17-8
	C141.255,139.819,154.674,136.573,172.136,136.186z"/>
<path fill-rule="evenodd" clip-rule="evenodd" fill="#0C0F05" d="M198.136,160.186c6.999,2.31,15.837-7.474,24-4
	c-13.069,4.968-41.62,15.216-57,16c-1.313,0.354-1.573,1.761-3,2c-1.142,10.128,9.729,11.353,6,21c-0.81-0.19-0.997-1.003-2-1
	c-1.531-10.789-12.809-24.521-22-13c0.791,3.21,3.631,4.369,5,7c-0.691,4.024,4.211,2.455,4,6c-5.577-1.756-6.116-8.55-13-9
	c-1.484,0.437,0.395,1.279,0,3c-2.931-0.069-2.191-3.809-6-3c-6.724,3.95-18.727,7.93-20,14c0,0.333,0,0.667,0,1c-2,0-4,0-6,0
	c23.074-23.46,53.988-27.99,85-39C194.297,160.347,195.817,159.867,198.136,160.186z"/>
<path fill-rule="evenodd" clip-rule="evenodd" fill="#404621" d="M134.136,185.186c3.809-0.809,3.069,2.931,6,3
	c0.395-1.721-1.484-2.563,0-3c6.884,0.45,7.423,7.244,13,9c0.211-3.545-4.691-1.976-4-6c6.772,4.562,9.566,13.101,17,17
	c6.324,3.343,9.954,9.379,14,15c9.062,10.769,18.643,23.509,36,23c0.667,0,1.333,0,2,0c0,0.333,0,0.667,0,1
	c-5.538-1.533-10.944-2.311-17,0c-21.527-12.677-33.851-33.293-50-49c-3.896,10.438,12.867,16.979,18,25
	c-4.825-2.509-7.491-7.176-12-10c3.352,5.989,13.511,13.816,17,23C161.219,216.77,148.097,200.558,134.136,185.186z"/>
<path fill-rule="evenodd" clip-rule="evenodd" fill="#F4E3A3" d="M242.136,174.186c-6.97-33.352,45.502-19.651,32,7
	C273.438,166.003,255.288,177.691,242.136,174.186z"/>
<path fill-rule="evenodd" clip-rule="evenodd" fill="#8A9156" d="M217.136,160.186c5.706-2.649,17.017-5.917,16,5
	c-2.439,7.671-1.829,11.652,4,15c-0.804-0.529-1.624-1.043-3-1c-0.147-2.187-2.52-2.147-5-2c-0.36-6.053-3.633-7.136-3-12
	c2.409-0.409,2.174,1.826,5,1c-1.163-1.838-5.307-0.693-4-5c-1.172,0.161-0.843,1.823-1,3
	C223.211,162.778,222.683,158.972,217.136,160.186z"/>
<path fill-rule="evenodd" clip-rule="evenodd" fill="#B5C060" d="M202.136,165.186c1.12,3.748,3.486,14.366,8,18
	c1.615,0.282,1.722-0.945,3-1c1.58-8.444-7.317-11.08-7-15c2.154,2.8,5.7,0.305,4-2c0.85-2.934,2.517,1.301,5,0
	c-6.41,3.194,0.927,10.247,2,15c1.44-0.56,2.44-1.56,3-3c-2.554-5.161-3.184-7.984-4-16c0.851,0.184,0.943-0.39,1-1
	c5.547-1.214,6.075,2.592,9,4c0.157-1.177-0.172-2.839,1-3c-1.307,4.307,2.837,3.162,4,5c-2.826,0.826-2.591-1.409-5-1
	c-0.633,4.864,2.64,5.947,3,12c2.48-0.147,4.853-0.187,5,2c-3.569,0.848-0.12,2.463-1,6c1.71,0.044,2.59-0.743,3-2
	c1.729,1.376-0.833,4.984,3,6c0.715,2.716-4.715-0.716-4,2c-0.155,2.822,2.827,2.507,4,4c-2.829,3.94-1.548,6.979,2,9
	c-0.699,6.032,6.173,4.493,4,12c-11.593-3.067-12.774,6.146-23,3c-3.215-4.188-5.766-12.963,0-14c0.684-3.808-1.799-7.083-4-5
	c-1.357,0.31-0.83,2.504-1,4c-0.978-3.06-5.767-7.516-3-11c-0.102-2.565-3.727-1.607-5-3c2.18-2.091-0.5-2.854,0-6
	c-1.163,0.163-1.779-0.221-2-1c-2.054,0.279-1.996,2.671-3,4c0.658,1.342,2.138,1.862,4,2c-6.066,4.898-13.942-0.782-13,6
	c-1.313,3.687-1.973,8.027-6,9c-0.496,5.529,1.921,7.292,1,11c-6.39-4.61-7.446-14.554-13-20c2.081,2.17,3.232-0.122,5-1
	c-5.597-4.744-1.475-15.038-9-19C183.785,172.574,191.161,169.113,202.136,165.186z"/>
<path fill-rule="evenodd" clip-rule="evenodd" fill="#B5C060" d="M173.136,175.186c7.525,3.962,3.403,14.256,9,19
	c-1.768,0.878-2.919,3.17-5,1c-0.616-9.384-11.254-8.746-12-18C169.55,179.993,169.544,175.793,173.136,175.186z"/>
<path fill-rule="evenodd" clip-rule="evenodd" fill="#B5C060" d="M216.136,161.186c0.816,8.016,1.446,10.839,4,16
	c-0.56,1.44-1.56,2.44-3,3c-1.073-4.753-8.41-11.806-2-15c-2.483,1.301-4.15-2.934-5,0c1.7,2.305-1.846,4.8-4,2
	c-0.317,3.92,8.58,6.556,7,15c-1.278,0.055-1.385,1.282-3,1c-4.514-3.634-6.88-14.252-8-18
	C207.792,164.842,210.84,161.89,216.136,161.186z"/>
<path fill-rule="evenodd" clip-rule="evenodd" fill="#404621" d="M202.136,165.186c-10.976,3.927-18.351,7.388-29,10
	c-3.592,0.607-3.586,4.807-8,2c0.746,9.254,11.384,8.616,12,18c5.554,5.446,6.61,15.39,13,20c0.921-3.708-1.496-5.471-1-11
	c4.027-0.973,4.687-5.313,6-9c4.085-0.302-0.169,1.385,1,4c3.942,0.275,3.058-4.275,7-4c5.111,5.223,5.86,14.807,9,22
	c-0.897,4.896,3.302,4.698,2,10c8.25-2.479,11.426,2.156,16-4c2.913,4.861,9.758-1.587,14,1c2.335-1.331,5.634-1.699,8-3
	c2.841-3.158,11.429-0.571,13-5c-1.009-3.991-4.858-5.142-8-7c9.85,7.75,16.915-4.282,22,9c-1.182,1.151-3.535,1.132-6,1
	c-2.488,0.109-3.096,1.874-5,0c-0.745,3.078,2.745,1.922,2,5c-3.567,2.268-5.08,0.729-9,3c-0.686-3.353,1.678-3.655,4-4
	c-11.763-4.838-22.451,8.026-35,5c-1.85,0.15-0.614,3.386-2,4c-2.259-0.56,1.213-1.56-1-3c-4.72,2.569-12.271-0.578-16,1
	c0.845-10.964-3.104-24.568-9-32c-1.991,1.009-4.271,1.729-5,4c3.537,5.339-0.84,5.717-1,12c-0.022,2.355,1.723,2.944,1,6
	c-0.986-3.014-3.264-4.736-3-9c-3.749,0.789-0.062,3.497-2,5c-1.667,0-3.333,0-5,0c-2.177-3.156-2.862-7.805-5-11
	c-4.418,6.802,7.583,13.471,11,19c-3.167-1.833-5.461-4.539-8-7c-2.214-3.119-4.849-5.817-7-9c-2.95-5.717-9.104-8.229-12-14
	c1.003-0.003,1.19,0.81,2,1c3.729-9.647-7.142-10.872-6-21c1.427-0.239,1.687-1.646,3-2c15.38-0.784,43.931-11.032,57-16
	c-8.163-3.474-17.001,6.31-24,4c11.397-2.603,19.945-8.055,34-8c-1.548,1.785-6.002,0.664-7,3c4.558,0.801,11.245,4.722,8,10
	c1.017-10.917-10.294-7.649-16-5c-0.057,0.61-0.149,1.184-1,1C210.84,161.89,207.792,164.842,202.136,165.186z"/>
<path fill-rule="evenodd" clip-rule="evenodd" fill="#FFFFFF" d="M435.136,178.186c1.362-3.457-4.493-4.713-1-7
	c9.364,12.558,7.474,33.646,4,50c0.801-6.554-6.478-2.259-7-3c1.324-5.808-10.602-0.785-8-10c6.601-2.399,12.602-5.398,12-15
	C437.604,188.429,434.435,184.124,435.136,178.186z"/>
<path fill-rule="evenodd" clip-rule="evenodd" fill="#404621" d="M75.136,180.186c2.509-1.157,3.349-3.984,7-4
	c-26.553,13.93,6.21,53.579,21,25c-1.086,0.239-2.401,1.646-1,2c0.211-1.122,1.11-1.557,2-2c-8.679,7.363-13.261,18.148-25,13
	c-2.268-2.065-3.552-5.115-5-8C75.292,197.702,59.513,184.488,75.136,180.186z"/>
<path fill-rule="evenodd" clip-rule="evenodd" fill="#A5AB7B" d="M237.136,180.186c3.885,1.754,6.743,4.139,12,2
	c1.156,4.844,6.521,5.479,7,11c-6.273,0.394-11.389,1.944-16,4c-0.58,3.246,0.681,4.652,1,7c-3.548-2.021-4.829-5.06-2-9
	c-1.173-1.493-4.155-1.178-4-4c-0.715-2.716,4.715,0.716,4-2c-3.833-1.016-1.271-4.624-3-6c-0.41,1.257-1.29,2.044-3,2
	c0.88-3.537-2.569-5.152,1-6C235.513,179.143,236.332,179.657,237.136,180.186z"/>
<path fill-rule="evenodd" clip-rule="evenodd" fill="#F4E3A3" d="M544.136,240.186c15.108-10.885,6.496-32.67,1-44
	c-6.674,1.679-7.494-4.411-12-2c3.549-2.868,8.11,1.432,14,1c-3.156,5.672,0.335,7.426,5,10c-1.148,5.464-1.021,10.41,6,10
	c0.817,3.817-2.128,3.871-4,5c0.809,1.858,1.293,4.04,3,5c0.146,2.812-2.449,2.884-5,3c0.793,2.317,4.58,7.868-1,8
	c-0.104,3.104,3.146,2.854,2,7c-4.997,0.797-4.895-3.499-9-1c-0.333,0-0.667,0-1,0C543.326,241.376,544.139,241.189,544.136,240.186
	z"/>
<path fill-rule="evenodd" clip-rule="evenodd" fill="#A5AB7B" d="M195.136,195.186c-0.942-6.782,6.934-1.102,13-6
	c-1.862-0.138-3.342-0.658-4-2c1.004-1.329,0.946-3.721,3-4c0.221,0.779,0.837,1.163,2,1c-0.5,3.146,2.18,3.909,0,6
	c1.273,1.393,4.898,0.435,5,3c-2.767,3.484,2.022,7.94,3,11c0.17-1.496-0.357-3.69,1-4c2.201-2.083,4.684,1.192,4,5
	c-5.766,1.037-3.215,9.812,0,14c-0.31,1.357-2.504,0.829-4,1c-0.603-10.494-0.583-17.243-8-22c-0.466-2.592-4.477-6.779-7-4
	c4.251,5.539,11.256,17.441,9,23c-3.14-7.193-3.889-16.777-9-22c-3.942-0.275-3.058,4.275-7,4
	C194.967,196.571,199.222,194.884,195.136,195.186z"/>
<path fill-rule="evenodd" clip-rule="evenodd" fill="#A5AB7B" d="M166.136,194.186c2.896,5.771,9.05,8.283,12,14
	c-2.826-0.826-2.591,1.409-5,1c-0.409-2.409,1.826-2.174,1-5c-5.672-1.799-11.302-7.377-10-13c-2.013,2.928-3.64,5.008-7,2
	c2.833,4.167,6.158,7.842,9,12c-7.434-3.899-10.228-12.438-17-17c-1.369-2.631-4.209-3.79-5-7
	C153.327,169.665,164.605,183.397,166.136,194.186z"/>
<path fill-rule="evenodd" clip-rule="evenodd" fill="#B5C060" d="M114.136,199.186c5.36-4.64,14.251-5.749,20-10
	c3.201,0.133,4.399,2.268,4,6c-2.667,0-5.333,0-8,0c0.597,8.686,8.551,13.25,7,21c2.182,0.182,3.182-0.818,3-3
	c9.275,4.725,10.962,17.038,19,23c-0.553,1.78-0.514,4.153-2,5c1.124,4.779,6.802-0.94,9,2c0,0.333,0,0.667,0,1
	c3.602,3.064,3.706,9.628,8,12c-0.711,0.896-6.592-0.792-5,5c1.862-0.138,3.342-0.658,4-2c3.125,2.868-6.214,1.729-4,7
	c1.336-0.997,1.964-2.703,4-3c1.468,0.968-4.151,2.508-1,6c1.667,0,3.333,0,5,0c-0.443-1.89,1.36-6.026-2-5
	c-0.715-2.716,4.715,0.716,4-2c1.348-0.509-0.872,5.518,2,2c0.766,3.551-3.604,5.644-5,9c-1.772-0.895-1.274-4.059-5-3
	c-1.531-0.106-4.15-5.822-6-11c-3.141-0.475-4.086,1.247-5,3c0.848,2.152,2.463,3.537,6,3c-2.226,1.533-3.379,7.048,2,6
	c-2.811,5.356-4.399-6.604-9-6c-0.119-2.881,0.546-6.546-1-8c-2.05,4.003-2.521-0.962-4-3c-1.615-0.282-1.722,0.945-3,1
	c-3.389-7.285-12.303-14.354-11-23c-5.761-1.264-4.124-11.733-10-10c0.4-2.6,2.984-3.016,3-6c-0.793-1.864-4.701-3.021-5,0
	c-0.969-2.392-0.701-5.397-5-6c1.129-1.204,2.854-1.812,2-5c-3.131-0.464-4.464,0.869-4,4c-1.362-3.972-5.189-5.478-7-9
	C114.136,199.853,114.136,199.519,114.136,199.186z"/>
<path fill-rule="evenodd" clip-rule="evenodd" fill="#8A9156" d="M268.136,204.186c5.055-1.055,5.721,2.279,10,2
	c-5.279-9.388-15.081-14.253-23-21c17.151-5.836,35.086,29.106,54,38c-3.568,4.098-9.809,5.524-18,5c0-0.667,0-1.333,0-2
	c5.763,0.429,9.531-1.135,14-2c-0.417-5.916-6.574-6.093-10-9c-5.192,2.54-7.127-4.47-11-10c-0.869-1.464-1.497-3.17-4-3
	c-2.169-0.169-0.453,3.547-1,5C275.283,206.374,269.297,207.692,268.136,204.186z"/>
<path fill-rule="evenodd" clip-rule="evenodd" fill="#A5AB7B" d="M257.136,209.186c-3.144-1.056-4.22-4.174-8-2
	c-0.881-3.786-5.189-4.144-4-10c9.073-2.917,18.133,2.419,23,7c1.161,3.506,7.146,2.188,11,3c0.547-1.453-1.169-5.169,1-5
	c2.503-0.17,3.131,1.536,4,3c-1.336,1.261-1.964,3.006-4,1c2.532,4.285,2.562,6.583,5,12c-1.453,0.547-5.169-1.169-5,1
	c-0.333,0-0.667,0-1,0c-1.759,0.241-2.279,1.721-2,4c-2.232-0.435-3.565-1.768-4-4c2.465,0.132,4.818,0.151,6-1
	C274.051,204.904,266.986,216.936,257.136,209.186z"/>
<path fill-rule="evenodd" clip-rule="evenodd" fill="#8A9156" d="M513.136,203.186c1.505-7.829,12.29-6.377,16-12
	c1.718,1.043,1.239,5.854,4,3c4.506-2.411,5.326,3.679,12,2c5.496,11.33,14.108,33.115-1,44c10.703-13.689,6.824-38.325-9-44
	c-3.135-0.468-2.819,2.515-4,4c-3.367-0.903-0.117-2.237-2-4c-6.442,0.079-12.078,2.195-11,7
	C515.649,203.077,515.041,201.312,513.136,203.186z"/>
<path fill-rule="evenodd" clip-rule="evenodd" fill="#404621" d="M166.136,243.186c-11.215-14.803-25.422-31.887-33-47
	c12.775,7.892,16.498,24.836,29,33c1.007,12.169,15.022,16.07,15,26c-6.122-1.211-5.593-9.074-11-11
	C166.136,243.853,166.136,243.519,166.136,243.186z"/>
<path fill-rule="evenodd" clip-rule="evenodd" fill="#0C0F05" d="M513.136,203.186c1.904-1.874,2.513-0.109,5,0
	c-1.078-4.805,4.558-6.921,11-7c1.883,1.763-1.367,3.097,2,4c1.181-1.485,0.865-4.468,4-4c15.824,5.675,19.703,30.311,9,44
	c0.003,1.003-0.811,1.19-1,2c-4.661,7.006-9.948,13.385-18,17c11.097-9.705,25.545-26.271,19-47c-36.613-41.098-26.356,46.214-59,28
	c2.12-11.213,9.042-17.625,14-26c2.826-0.826,2.591,1.409,5,1c3.515-3.152,5.346-7.988,8-12
	C512.469,203.186,512.803,203.186,513.136,203.186z"/>
<path fill-rule="evenodd" clip-rule="evenodd" fill="#B5C060" d="M196.136,214.186c0.16-6.283,4.537-6.661,1-12
	c0.729-2.271,3.009-2.991,5-4c5.896,7.432,9.845,21.036,9,32c3.729-1.578,11.28,1.569,16-1c2.213,1.44-1.259,2.44,1,3
	c1.386-0.614,0.15-3.85,2-4c12.549,3.026,23.237-9.838,35-5c-2.322,0.345-4.686,0.647-4,4c3.92-2.271,5.433-0.732,9-3
	c0.745-3.078-2.745-1.922-2-5c1.904,1.874,2.512,0.109,5,0c0.435,2.232,1.768,3.565,4,4c-0.279-2.279,0.241-3.759,2-4
	c-2.396,3.125,0.94,7.202,2,10c3.292-0.042,4.979-1.688,9-1c-4.469,1.45-10.153,6.167-16,3c-8.51,0.749-23.681,10.06-33,2
	c0.733,0.934,1.818,1.515,3,2c-5.35-1.391-10.047,2.012-17,4c1.807-1.714-0.307-3.933-3-4c-3.236-1.235-0.764,3.235-4,2
	c0.85,1.483,2.517,2.15,5,2c2.01,1.753-7.535,0.408-7,4c-0.667,0-1.333,0-2,0c-3.316-1.35-1.554-7.779-6-8
	c-1.357,0.31-0.83,2.504-1,4c-2.888,1.293-5.164,0.224-7-2C208.843,225.083,205.857,219.139,196.136,214.186z"/>
<path fill-rule="evenodd" clip-rule="evenodd" fill="#8A9156" d="M169.136,220.186c-5.133-8.021-21.896-14.562-18-25
	c16.149,15.707,28.473,36.323,50,49c1.755,3.245,5.001,4.999,8,7C193.627,258.468,179.844,230.888,169.136,220.186z"/>
<path fill-rule="evenodd" clip-rule="evenodd" fill="#FFFFFF" d="M544.136,212.186c2.617,23.228-8.839,37.601-24,46
	c-7.946,4.521-18.827,1.945-23-1c1.606-3.394,0.6-9.4,3-12c10.454-6.24,16.042-20.312,14-36
	C521.864,201.281,539.252,203.788,544.136,212.186z"/>
<path fill-rule="evenodd" clip-rule="evenodd" fill="#0C0F05" d="M193.136,224.186c-3.417-5.529-15.418-12.198-11-19
	c2.138,3.195,2.823,7.844,5,11c1.667,0,3.333,0,5,0c1.938-1.503-1.749-4.211,2-5c-0.264,4.264,2.014,5.986,3,9
	c0.237,3.096,2.783,3.884,4,6C200.044,230.098,194.796,225.799,193.136,224.186z"/>
<path fill-rule="evenodd" clip-rule="evenodd" fill="#B5C060" d="M280.136,219.186c-0.169-2.169,3.547-0.453,5-1
	c-2.438-5.417-2.468-7.715-5-12c2.036,2.006,2.664,0.261,4-1c3.873,5.53,5.808,12.54,11,10c-0.489,3.156,1.802,3.531,1,7
	c-1.333,0-2.667,0-4,0c0.479-3.146-1.424-3.909-2-6c-3.36,0.64-3.205,4.795-3,9c-3.124,0.458-3.197-2.137-3-5
	C282.046,220.61,281.488,219.5,280.136,219.186z"/>
<path fill-rule="evenodd" clip-rule="evenodd" fill="#B5C060" d="M295.136,215.186c3.426,2.907,9.583,3.084,10,9
	c-4.469,0.865-8.237,2.429-14,2c0,0.667,0,1.333,0,2c-0.333,0-0.667,0-1,0c-4.021-0.688-5.708,0.958-9,1
	c-1.06-2.798-4.396-6.875-2-10c0.333,0,0.667,0,1,0c1.352,0.314,1.91,1.424,4,1c-0.197,2.863-0.124,5.458,3,5
	c-0.205-4.205-0.36-8.36,3-9c0.576,2.091,2.479,2.854,2,6c1.333,0,2.667,0,4,0C296.938,218.717,294.647,218.342,295.136,215.186z"/>
<path fill-rule="evenodd" clip-rule="evenodd" fill="#B5C060" d="M178.136,208.186c2.151,3.183,4.786,5.881,7,9c0,1.333,0,2.667,0,4
	c-2.358,2.447-1.86-1.493-5-1c-4.046-5.621-7.676-11.657-14-15c-2.842-4.158-6.167-7.833-9-12c3.36,3.008,4.987,0.928,7-2
	c-1.302,5.623,4.328,11.201,10,13c0.826,2.826-1.409,2.591-1,5C175.545,209.595,175.31,207.36,178.136,208.186z"/>
<path fill-rule="evenodd" clip-rule="evenodd" fill="#0C0F05" d="M174.136,233.186c-3.489-9.184-13.648-17.011-17-23
	c4.509,2.824,7.175,7.491,12,10c10.708,10.702,24.491,38.282,40,31c-2.999-2.001-6.245-3.755-8-7c6.056-2.311,11.462-1.533,17,0
	c22.469-4.558,38.808-4.037,56-13c5.847,3.167,11.531-1.55,16-3c0.333,0,0.667,0,1,0c8.191,0.524,14.432-0.902,18-5
	c-18.914-8.894-36.849-43.836-54-38c7.919,6.747,17.721,11.612,23,21c-4.279,0.279-4.945-3.055-10-2c-4.867-4.581-13.927-9.917-23-7
	c-1.189,5.856,3.119,6.214,4,10c3.78-2.174,4.856,0.944,8,2c3.142,1.858,6.991,3.009,8,7c-1.571,4.429-10.159,1.842-13,5
	c-0.333,0-0.667,0-1,0c0.698-3.969,7.652-1.681,8-6c-6.306-3.36-14.024-5.309-18-11c-0.319-2.348-1.58-3.754-1-7
	c4.611-2.056,9.727-3.606,16-4c-0.479-5.521-5.844-6.156-7-11c-5.257,2.139-8.115-0.246-12-2c-5.829-3.348-6.439-7.329-4-15
	c3.245-5.278-3.442-9.199-8-10c0.998-2.336,5.452-1.215,7-3c1.879,2.32,9.353-0.96,6,4c9.383-3.111,11.598-15.295,2-20
	c0.871-18.014-16.101-10.731-28-8c-13.485,2.515-27.74,4.26-40,8c-17.462,0.387-30.881,3.633-43,7c-0.779-0.221-1.163-0.837-1-2
	c3.056,0.723,3.644-1.022,6-1c0-2.667,0-5.333,0-8c2.442,0.558,2.131,3.869,6,3c5.664,2.174,10.929-2.483,17-3c0.333,0,0.667,0,1,0
	c13.727,0.06,20.43-6.903,35-6c33.934,3.3,14.61-23.529,23-45c-1.263,12.243-0.476,28.449,4,38c4.013,0.778,10.941,1.781,13-2
	c0.409-2.409-1.826-2.174-1-5c-0.174-7.826-3.396-12.604-3-21c-0.729-4.381,1.987,0.806,2-2c-5.443-22.799,0.347-44.975-2-68
	c1.226-3.774,3.351-6.649,3-12c-5.093-1.472-3.068-4.03-7-6c-6.486,12.146-17.87,8.622-35,13c-0.598-1.78,2.931-4.153,0-5
	c-7.426,12.445-26.223,4.807-40,11c0.075-1.742-0.223-3.11-1-4c-3.265-0.264-2.12,3.88-5,4c-1.314-1.283-3.686-1.283-5,0
	c-14.967-3.348-41.869,8.302-50-5c-4.268,1.733-1.853,5.99-7,8c3.509,10.064,5.602,21.384,6,32c3.49-8.783,4.097,17.149,8,21
	c0.39,1.427,1.2,1.687,0,3c0,0.333,0,0.667,0,1c1.243,7.696-5.167-2.467-6-5c-4.505-16.769-6.093-34.925-12-48
	c-4.108-2.409-6.186,2.28-8,1c0.132-7.201,10.942-3.724,9-13c0.667,0,1.333,0,2,0c50.758-0.585,102.227-6.292,151-16
	c1.447,1.553,1.333,4.667,3,6c0,0.667,0,1.333,0,2c-0.836,34.149-4.029,58.289,1,93c2.182,17.152,10.357,28.31,14,44
	c4.968,1.032,10.709,1.291,15,3c5.833,3.168,10.775,7.225,17,10c2.157,11.662,6.145,23.088,0,34c8.241,5.425,17.055,10.278,23,18
	c2.888,5.112,10.044,5.956,13,11c-0.113,3.554-3.698,3.635-3,8c16.253,11.08,31.935,22.732,48,34c9.237,4.954,7.058-18.068,13-23
	c1.086,0.247,0.679,1.988,2,2c2.358-0.849-2.755-2.463-1-6c1.868,1.958,3.662,0.309,6,0c0.409-2.409-1.826-2.174-1-5
	c6.354-7.266,17.236-5.709,22-13c2.251,0.415-0.149,5.483,3,5c3.843-1.824,3.644-7.69,9-8c-1.046-30.996,2.802-43.071,4-70
	c1.52-16.147,5.354-29.979,8-45c-12.364-9.303-23.798-19.536-31-34c8.067,1.266,12.468,6.198,20,8c0.168,1.165,1.581,1.086,3,1
	c-0.296,2.63,3.88,0.787,3,4c-1.74,4.094-7.032-1.224-8,4c10.376,21.792,54.499,19.788,75,8c0.333,0,0.667,0,1,0
	c6.042,0.709,7.389-3.278,12-4c3.953-0.169-0.32,1.536,2,3c0.898-3.768,5.534-3.799,8-6c4.513-0.513,7.925,0.075,9,3
	c0.896-2.103,1.555-4.446,3-6c-4.663-0.888-10.377-6.547-4-10c8.733,2.474,21.131,2.323,32,5c6.364-0.698,9.109,2.224,14,3
	c0,4.667,0,9.333,0,14c-8.764-1.774-17.087,1.31-24-3c-6.253,5.597-18.923,3.355-28,8c-1.055,10.721,8.543,10.791,12,17
	c3.801,5.532,8.999,9.668,13,15c-1.377-0.043-2.195,0.471-3,1c-3.624-6.709-9.771-10.896-15-16c-2.979-7.354-12.026-8.64-15-16
	c0.558-2.442,3.869-2.131,3-6c-10.512-5.384-19.542,8.573-27,3c-10.512,14.173-34.902,2.889-47,11c-0.986,2.347-1.754,4.913-2,8
	c1.098,3.236,5.54,3.126,6,7c-1.587,3.08-7.256,2.077-9,5c-0.361,13.421-5.793,19.568-4,33c4.594,1.285,8.001,7.965,12,4
	c9.229,7.979,9.216,29.832,7,46c0,1.333,0,2.667,0,4c-5.072,8.584-1.142-29.57-2-36c-6.762-1.238-4.088-11.912-13-11
	c2.409,13.866,5.718,35.801-11,40c0.598,5.265-0.741,8.592-1,13c-3.077,1.923-8.107,1.893-10,5c-1.813,2.52-4.274,4.393-8,5
	c-5.718,3.615-8.214,10.453-16,12c-2.651,17.404-11.079,41.352-1,60c-18,0-36,0-54,0c2.754-13.517,25.882-32.062,11-44
	c-26.028-38.522-39.968,5.77-63,21c3.729,7.937,8.917,14.417,12,23c-3,0-6,0-9,0c-3.34-10.396-11.728-19.452-6-31
	c0.851,0.184,0.943-0.39,1-1c3.31-1.408,4.111-8.864,1-11c-15.778,5.106-35.083,7.072-49,11c-0.423-2.09,0.686-2.648,1-4
	c2.928,0.261,3.072-2.261,6-2c10.776,1.021,23.595-4.34,36-5c-0.43-19.513-11.422-12.409-23-8c-3.22-0.22-4.231,1.769-8,1
	c0.559-9.441,14.826-5.174,20-10c10.261,0.491,20.91-0.424,35-3c-2.237,2.763-6.874,3.126-10,5c-4.949,0.763-6.398,1.077-10-1
	c2.76,31.804,29.999,13.584,33-3c2.445-21.791-27.619-0.305-39-3c-16.961,4.859-39.961,9.154-58,14c4.689,5.504,21.841-3.92,27-2
	c-0.086,1.419-0.165,2.832,1,3c-0.247,1.086-1.988,0.679-2,2c-1.313-1.2-1.573-0.39-3,0c-11.206,0.647-16.557,5.984-26,3
	c-3.162,1.241-0.188,2.908-3,5c-15.706-6.515-17.192-21.309-31-29C174.136,233.853,174.136,233.519,174.136,233.186z
	 M274.136,181.186c13.502-26.651-38.97-40.352-32-7C255.288,177.691,273.438,166.003,274.136,181.186z"/>
<path fill-rule="evenodd" clip-rule="evenodd" fill="#404621" d="M102.136,254.186c-4.666-8.334-5.25-20.75-8-31
	c-4.972,1.417,1.466,8.078-2,11c-4.181-3.485-4.206-11.128-6-17c2.48-0.147,4.853-0.187,5,2c2.215-0.785-0.19-6.19,4-5
	c7.292,8.356,5.285,20.502,11,31c5.197-1.53,5.958-4.418,5-8c2.243-0.869,2.344,8.959,6,10c-0.681,2.486-3.045-1.478-4-2
	c-1.47,0.894,0.271,6.995,1,9c-4.019,0.019,0.019-8.019-4-8c-0.946,14.235,6.038,28.869,7,42c2.168,0.169,0.453-3.547,1-5
	c-2.359-2.244,2.755,0.701,1,4c-0.802,3.469,1.489,3.844,1,7c-5.109-4.557-5.36-13.973-8-21c-4.443-11.224-3.375-27.959-11-36
	C98.285,242.07,101.087,249.877,102.136,254.186z"/>
<path fill-rule="evenodd" clip-rule="evenodd" fill="#656C42" d="M222.136,219.186c10.226,3.146,11.407-6.067,23-3
	c2.173-7.507-4.699-5.968-4-12c3.976,5.691,11.694,7.64,18,11c-0.348,4.319-7.302,2.031-8,6c0.333,0,0.667,0,1,0
	c-2.366,1.301-5.665,1.669-8,3c1.502-1.498,2.992-3.008,4-5c-12.429-1.096-19.059,3.608-30,4c-4.777-6.224-1.419-20.581-8-25
	c7.417,4.757,7.397,11.506,8,22C219.632,220.015,221.827,220.543,222.136,219.186z"/>
<path fill-rule="evenodd" clip-rule="evenodd" fill="#404621" d="M459.136,247.186c2.33,2.003,5.674,2.992,5,8
	c-4.207-1.633-5.953-5.812-12-3c-3.897-13.696-24.563-14.493-32-4c-5.101-5.842,2.709-10.695,2-14c19.625,1.107,37.054,4.108,43-19
	c6.113,13.883-12.022,20.402-7,32c-10.516-6.224,5.494-15.062,5-24c-1.378,28.098-35.756-0.003-42,22
	c10.771-15.822,32.18-0.453,41,9C465.487,251.412,459.547,249.508,459.136,247.186z"/>
<path fill-rule="evenodd" clip-rule="evenodd" fill="#8A9156" d="M166.136,244.186c5.407,1.926,4.878,9.789,11,11
	c0.022-9.93-13.993-13.831-15-26c-12.502-8.164-16.225-25.108-29-33c7.578,15.113,21.785,32.197,33,47c-2.198-2.94-7.876,2.779-9-2
	c1.486-0.847,1.447-3.22,2-5c-8.038-5.962-9.725-18.275-19-23c0.182,2.182-0.818,3.182-3,3c1.551-7.75-6.403-12.314-7-21
	c2.667,0,5.333,0,8,0c0.399-3.732-0.799-5.867-4-6c-5.749,4.251-14.64,5.36-20,10c1.273-6.07,13.276-10.05,20-14
	c13.961,15.372,27.083,31.584,40,48c0,0.333,0,0.667,0,1c2.15,4.183,6.085,6.581,9,10c-11.838-0.128-8.604-18.506-19-17
	c-1.415,3.448,4.98,7.662,5,13c0.729-2.032,4.228-2.864,6-1c-2.954,4.772-1.056,11.393,6,8c3.989,3.753-5.174,7.688,0,9c1,0,2,0,3,0
	c0.595,5.071,5.3,6.033,5,12c-5.196-3.676,0.595,3.069-4,3c16.042-1.161,34.851-6.745,50-6c-2.928-0.261-3.072,2.261-6,2
	c-4.073,0.077-8.877-2.74-11,1c-8.307,3.69-14.283,5.608-25,3c-9.169,4.133-22.369,5.626-33,3c-1.332-6.002-4.608-10.059-8-14
	c5.657,2.75,8.685,7.354,9,13c4.654,0.32,8.988,0.321,10-3c3.726-1.059,3.228,2.105,5,3c1.396-3.356,5.766-5.449,5-9
	c-2.872,3.518-0.652-2.509-2-2c0.715,2.716-4.715-0.716-4,2c3.36-1.026,1.557,3.11,2,5c-1.667,0-3.333,0-5,0
	c-3.151-3.492,2.468-5.032,1-6c-2.036,0.297-2.664,2.003-4,3c-2.214-5.271,7.125-4.132,4-7c-0.658,1.342-2.138,1.862-4,2
	c-1.592-5.792,4.289-4.104,5-5C169.842,253.814,169.738,247.25,166.136,244.186z"/>
<path fill-rule="evenodd" clip-rule="evenodd" fill="#404621" d="M237.136,255.186c0.012-1.321,1.753-0.914,2-2
	c-1.165-0.168-1.086-1.581-1-3c-5.159-1.92-22.311,7.504-27,2c18.039-4.846,41.039-9.141,58-14c-0.645,6.235-9.19-1.143-9,5
	c-5.174,4.826-19.441,0.559-20,10c3.769,0.769,4.78-1.22,8-1C246.083,254.799,240.316,253.699,237.136,255.186z"/>
<path fill-rule="evenodd" clip-rule="evenodd" fill="#A5AB7B" d="M216.136,243.186c-17.357,0.509-26.938-12.231-36-23
	c3.14-0.493,2.642,3.447,5,1c0-1.333,0-2.667,0-4c2.539,2.461,4.833,5.167,8,7c1.66,1.613,6.908,5.912,8,2
	c-1.217-2.116-3.763-2.904-4-6c0.723-3.056-1.022-3.645-1-6c9.721,4.953,12.707,10.897,6,23c1.836,2.224,4.112,3.293,7,2
	c0.17-1.496-0.357-3.69,1-4C214.583,235.407,212.82,241.836,216.136,243.186z"/>
<path fill-rule="evenodd" clip-rule="evenodd" fill="#0C0F05" d="M459.136,247.186c0.411,2.322,6.351,4.226,3,7
	c-8.82-9.453-30.229-24.822-41-9c6.244-22.003,40.622,6.098,42-22c0.494,8.938-15.516,17.776-5,24
	C458.469,247.186,458.803,247.186,459.136,247.186z"/>
<path fill-rule="evenodd" clip-rule="evenodd" fill="#B5C060" d="M181.136,256.186c-5.174-1.312,3.989-5.247,0-9
	c-7.056,3.393-8.954-3.228-6-8c-1.772-1.864-5.271-1.032-6,1c-0.02-5.338-6.415-9.552-5-13c10.396-1.506,7.162,16.872,19,17
	c1.702,3.298,3.314,6.687,6,9c-1.778-0.889-2.542-2.792-6-2c15.838,13.653,12.516,18.537,2,4
	C183.553,255.269,181.322,254.706,181.136,256.186z"/>
<path fill-rule="evenodd" clip-rule="evenodd" fill="#404621" d="M144.136,272.186c2.396-0.396-0.555,4.555,3,3
	c-5.773-8.561-7.676-20.991-16-27c-0.884-10.182-10.167-19.544-16-28c-1.069,3.736,2.483,2.851,2,6c-5.239-2.761-3.938-12.062-10-14
	c-2.871,1.978,0.347,6.241,0,9c-2.038-4.962-6.361-7.639-9-12c6.252-5.031,2.687,7.778,11,2c1.647,1.686,2.173,4.494,4,6
	c0.303-4.323-4.224-12.428-8-16c19.202-22.798,51.136-32.863,86-40c0.667,0,1.333,0,2,0c-31.012,11.01-61.926,15.54-85,39
	c2,0,4,0,6,0c1.811,3.522,5.638,5.028,7,9c9.34,14.327,17.849,29.484,27,44c-1.313-0.354-1.573-1.761-3-2c0.08,3.92,1.763,6.237,3,9
	c-5.347-0.319-2.531-8.803-8-9c-3.41,12.418,9.205,17.456,12,27c6.792-2.293-6.624-12.114,0-11c1.715,4.619,6.749,5.918,7,12
	c-0.835,2.498-7.815-1.148-7,3c9.666,1.643,12.826-0.308,23-1C162.846,286.537,147.584,285.286,144.136,272.186z"/>
<path fill-rule="evenodd" clip-rule="evenodd" fill="#656C42" d="M269.136,238.186c11.381,2.695,41.445-18.791,39,3
	c0-0.333,0-0.667,0-1c0.617-4.283-3.256-4.077-3-8c-7.22-1.22-8.438,3.562-8,10c-2.145,1.855-5.327,2.673-9,3c-1,0-2,0-3,0
	c3.126-1.874,7.763-2.237,10-5c-14.09,2.576-24.739,3.491-35,3C259.946,237.043,268.491,244.421,269.136,238.186z"/>
<path fill-rule="evenodd" clip-rule="evenodd" fill="#F4E3A3" d="M288.136,245.186c3.673-0.327,6.855-1.145,9-3
	c-0.438-6.438,0.78-11.22,8-10c-0.256,3.923,3.617,3.717,3,8c-5.639,7.028-12.479,12.854-16,22c-8.793-0.207-9.304-8.696-14-13
	c0.807-0.86,2.739-0.594,3-2c3.213-0.88,1.37,3.296,4,3C286.581,248.963,286.653,246.37,288.136,245.186z"/>
<path fill-rule="evenodd" clip-rule="evenodd" fill="#D9D082" d="M151.136,255.186c1.278-0.055,1.385-1.282,3-1
	c1.479,2.038,1.95,7.003,4,3c1.546,1.454,0.881,5.119,1,8c4.601-0.604,6.189,11.356,9,6c-5.379,1.048-4.226-4.467-2-6
	c-3.537,0.537-5.152-0.848-6-3c0.914-1.753,1.859-3.475,5-3c1.85,5.178,4.469,10.894,6,11c-1.012,3.321-5.346,3.32-10,3
	c-0.315-5.646-3.343-10.25-9-13c-0.851,0.184-0.943-0.39-1-1C151.136,257.853,151.136,256.519,151.136,255.186z"/>
<path fill-rule="evenodd" clip-rule="evenodd" fill="#0C0F05" d="M114.136,254.186c-0.729-2.005-2.47-8.106-1-9
	c0.955,0.522,3.319,4.486,4,2c-3.656-1.041-3.757-10.869-6-10c0.958,3.582,0.197,6.47-5,8c-5.715-10.498-3.708-22.644-11-31
	c-4.19-1.19-1.785,4.215-4,5c-0.147-2.187-2.52-2.147-5-2c1.794,5.872,1.819,13.515,6,17c3.466-2.922-2.972-9.583,2-11
	c2.75,10.25,3.334,22.666,8,31c2.479,17.495,5.14,28.343,10,46c0,0.333,0,0.667,0,1c-5.225-2.233-4.252-18.989-11-23
	c-4.013,8.604,6.767,16.193,0,23c-10.677-25.656-12.042-60.625-22-87c11.739,5.148,16.321-5.637,25-13c0.333,0,0.667,0,1,0
	c3.776,3.572,8.303,11.677,8,16c-1.827-1.506-2.353-4.314-4-6c-8.313,5.778-4.748-7.031-11-2c2.639,4.361,6.962,7.038,9,12
	c6.067,9.6,8.734,22.6,14,33c0.027,0.973,1.224,0.776,2,1c1.119,12.518,9.162,19.658,8,32c-1.71-0.044-2.59,0.743-3,2
	c-3.135,0.468-2.819-2.515-4-4c-2.806,0.013,2.381,2.729-2,2c-0.027-0.973-1.224-0.776-2-1c-0.573-6.926-6.561-12.716-4-17
	c4.603,5.397,5.026,14.974,12,18c0.69-4.047-3.244-12.072-5-17C117.726,274.575,117.853,257.969,114.136,254.186z"/>
<path fill-rule="evenodd" clip-rule="evenodd" fill="#8A9156" d="M148.136,253.186c-9.151-14.516-17.66-29.673-27-44
	c-0.464-3.131,0.869-4.464,4-4c0.854,3.188-0.871,3.796-2,5c4.299,0.603,4.031,3.608,5,6c0.299-3.021,4.207-1.864,5,0
	c-0.016,2.984-2.6,3.4-3,6c5.876-1.733,4.239,8.736,10,10c-1.303,8.646,7.611,15.715,11,23c0,1.333,0,2.667,0,4
	c-2.831,0.164,0.831-6.164-2-6C148.803,253.186,148.47,253.186,148.136,253.186z"/>
<path fill-rule="evenodd" clip-rule="evenodd" fill="#8A9156" d="M218.136,243.186c-0.535-3.592,9.01-2.247,7-4
	c-2.483,0.15-4.15-0.517-5-2c3.236,1.235,0.764-3.235,4-2c2.693,0.067,4.807,2.286,3,4c6.953-1.988,11.65-5.391,17-4
	c-1.182-0.485-2.267-1.066-3-2c9.319,8.06,24.49-1.251,33-2c-17.192,8.963-33.531,8.442-56,13
	C218.136,243.853,218.136,243.519,218.136,243.186z"/>
<path fill-rule="evenodd" clip-rule="evenodd" fill="#404621" d="M189.136,253.186c-2.686-2.313-4.298-5.702-6-9
	c-2.915-3.419-6.85-5.817-9-10c13.808,7.691,15.294,22.485,31,29c2.812-2.092-0.162-3.759,3-5c9.443,2.984,14.794-2.353,26-3
	c-12.221,8.043-25.704,8.652-40,9C194.488,258.5,191.738,255.917,189.136,253.186z"/>
<path fill-rule="evenodd" clip-rule="evenodd" fill="#A5AB7B" d="M102.136,254.186c-1.049-4.309-3.851-12.116-1-17
	c7.625,8.041,6.557,24.776,11,36c0.166,4.365,0.346,8.739-2,8c0.612,6.388,2.899,11.101,2,19
	C107.276,282.529,104.615,271.681,102.136,254.186z"/>
<path fill-rule="evenodd" clip-rule="evenodd" fill="#F4E3A3" d="M341.136,259.186c-10.134-4.199-19.034-9.633-26-17
	c-8.323,16.01-17.729,30.938-35,38c5.021,6.313,7.543,15.124,11,23c-0.333,0-0.667,0-1,0c-3.083-8.583-8.271-15.063-12-23
	C301.168,264.956,315.108,220.664,341.136,259.186z"/>
<path fill-rule="evenodd" clip-rule="evenodd" fill="#8A9156" d="M544.136,212.186c-4.884-8.398-22.272-10.905-30-3
	c2.042,15.688-3.546,29.76-14,36c-6.173,4.092-14.117-0.907-18-5c3.621-9.548,9.91-28.74,22-26c0.127-1.794-1.225-2.109-1-4
	c5.84,3.338,3.408-7.103,9-7c-2.654,4.012-4.485,8.848-8,12c-2.409,0.409-2.174-1.826-5-1c-4.958,8.375-11.88,14.787-14,26
	C517.78,258.4,507.523,171.088,544.136,212.186z"/>
<path fill-rule="evenodd" clip-rule="evenodd" fill="#0C0F05" d="M363.136,264.186c0.667,0,1.333,0,2,0
	c6.752-20.229,14.393-40.333,39-45c-4.764,7.291-15.646,5.734-22,13c-0.826,2.826,1.409,2.591,1,5c-2.338,0.309-4.132,1.958-6,0
	c-1.755,3.537,3.358,5.151,1,6c-1.321-0.012-0.914-1.753-2-2C370.194,246.118,372.374,269.14,363.136,264.186z"/>
<path fill-rule="evenodd" clip-rule="evenodd" fill="#404621" d="M520.136,258.186c15.161-8.399,26.617-22.772,24-46
	c6.545,20.729-7.903,37.295-19,47c8.052-3.615,13.339-9.994,18-17c0.333,0,0.667,0,1,0c-2.252,14.081-16.3,16.367-25,24
	c-0.502,4.169,2.923,4.411,2,9c-8.046,0.046-8.698-7.302-13-11C508.63,258.68,519.642,263.692,520.136,258.186z"/>
<path fill-rule="evenodd" clip-rule="evenodd" fill="#B5C060" d="M121.136,254.186c-2.107-4.13,1.317,0.379,3,1
	c1.342-0.658,1.862-2.138,2-4c1.197-0.666-0.553,7.188,5,7c-0.86,0.807-0.594,2.739-2,3c3.142,3.424,6.991,0.106,8,5
	c-2.279-0.279-3.759,0.241-4,2c-0.423,2.09,0.686,2.648,1,4c3.213,0.88,1.37-3.296,4-3c6.025,2.243,3.36,6.597,4,12
	c7.04-3.746,4.89,3.241,13,3c-2.091,1.1-10.973,0.232-17,2c-0.171-2.829,0.86-6.86-2-7c-2.503-0.17-3.13,1.536-4,3
	c3.612,0.388,3.749,4.251,5,7c-2.333,1.001-4.467,2.199-6,4c-2.213,2.342,1.753-2.561,2-4c-0.847-2.931-3.22,0.598-5,0
	c0.41-1.257,1.29-2.044,3-2c1.162-12.342-6.881-19.482-8-32C122.36,254.962,121.164,255.159,121.136,254.186z"/>
<path fill-rule="evenodd" clip-rule="evenodd" fill="#B5C060" d="M269.136,259.186c-13.679-1.307-23.375,5.441-35,3
	c5.956-4.313,11.014-4.444,16-4c1.274-0.227,1.311-2.984,0-3c7.182,1.933,4.58-3.335,12-1c1.444-1.223,1.517-3.816,3-5
	C267.282,251.707,269.797,253.859,269.136,259.186z"/>
<path fill-rule="evenodd" clip-rule="evenodd" fill="#D9D082" d="M189.136,253.186c2.602,2.731,5.352,5.314,5,11
	c14.296-0.348,27.779-0.957,40-9c1.427-0.39,1.687-1.2,3,0c3.18-1.487,8.946-0.387,11-3c11.578-4.409,22.57-11.513,23,8
	c-12.405,0.66-25.224,6.021-36,5c-15.149-0.745-33.958,4.839-50,6c4.595,0.069-1.196-6.676,4-3c0.3-5.967-4.405-6.929-5-12
	c-1,0-2,0-3,0c0.186-1.48,2.417-0.917,4-1c10.516,14.537,13.838,9.653-2-4C186.595,250.394,187.358,252.297,189.136,253.186z
	 M265.136,249.186c-1.483,1.184-1.556,3.777-3,5c-7.42-2.335-4.818,2.933-12,1c1.311,0.016,1.274,2.773,0,3
	c-4.986-0.444-10.044-0.313-16,4c11.625,2.441,21.321-4.307,35-3C269.797,253.859,267.282,251.707,265.136,249.186z"/>
<path fill-rule="evenodd" clip-rule="evenodd" fill="#A5AB7B" d="M288.136,245.186c-1.483,1.184-1.556,3.777-3,5
	c-2.63,0.296-0.787-3.88-4-3c-0.261,1.406-2.193,1.14-3,2c4.696,4.304,5.207,12.793,14,13c3.521-9.146,10.361-14.972,16-22
	c0,0.333,0,0.667,0,1c-3.001,16.584-30.24,34.804-33,3c3.602,2.077,5.051,1.763,10,1
	C286.136,245.186,287.136,245.186,288.136,245.186z"/>
<path fill-rule="evenodd" clip-rule="evenodd" fill="#D9D082" d="M152.136,267.186c-6.624-1.114,6.792,8.707,0,11
	c-2.795-9.544-15.41-14.582-12-27c5.469,0.197,2.653,8.681,8,9C149.762,262.227,151.382,264.273,152.136,267.186z"/>
<path fill-rule="evenodd" clip-rule="evenodd" fill="#656C42" d="M119.136,287.186c1.755-3.299-3.359-6.244-1-4
	c-0.547,1.453,1.168,5.169-1,5c-0.962-13.131-7.946-27.765-7-42c4.019-0.019-0.019,8.019,4,8c3.716,3.783,3.589,20.389,9,16
	c1.756,4.928,5.69,12.953,5,17c-6.974-3.026-7.397-12.603-12-18c-2.561,4.284,3.427,10.074,4,17
	C120.32,287.037,119.746,287.129,119.136,287.186z"/>
<path fill-rule="evenodd" clip-rule="evenodd" fill="#B5C060" d="M254.136,268.186c7.371-1.629,14.318-3.683,22-5
	c2.459,2.443-0.739,4.336,0,8c-0.057,0.61-0.149,1.184-1,1c-6.496-8.758-20.169,0.846-30,1
	C241.374,268.184,253.509,271.972,254.136,268.186z"/>
<path fill-rule="evenodd" clip-rule="evenodd" fill="#B5C060" d="M117.136,226.186c8.249,16.084,17.227,31.44,27,46
	c3.448,13.1,18.709,14.351,31,9c0.667,0,1.333,0,2,0c3.438-0.438,5.605,0.396,8,1c-8.808,5.248-20.14,6.001-31,7
	c-3.135-0.468-2.819,2.515-4,4c-3.202-2.801-17.222,1.385-13,6c-3.357,2.643-10.396,1.604-14,4c-3.667,0-7.333,0-11,0
	c0-0.667,0-1.333,0-2c0-0.333,0-0.667,0-1c0.899-7.899-1.388-12.612-2-19c2.346,0.739,2.166-3.635,2-8c2.64,7.027,2.891,16.443,8,21
	c0.489-3.156-1.802-3.531-1-7c0.61-0.057,1.184-0.149,1-1c0.776,0.224,1.973,0.027,2,1c4.381,0.729-0.806-1.987,2-2
	c1.181,1.485,0.865,4.468,4,4c1.78,0.598,4.153-2.931,5,0c-0.247,1.439-4.213,6.342-2,4c1.533-1.801,3.667-2.999,6-4
	c-1.251-2.749-1.388-6.612-5-7c0.87-1.464,1.497-3.17,4-3c2.86,0.14,1.829,4.171,2,7c6.027-1.768,14.909-0.9,17-2
	c-8.11,0.241-5.96-6.746-13-3c-0.64-5.403,2.025-9.757-4-12c-2.63-0.296-0.787,3.88-4,3c-0.314-1.352-1.423-1.91-1-4
	c0.241-1.759,1.721-2.279,4-2c-1.009-4.894-4.858-1.576-8-5c1.406-0.261,1.14-2.193,2-3c-5.553,0.188-3.803-7.666-5-7
	c-0.138,1.862-0.658,3.342-2,4c-1.683-0.621-5.107-5.13-3-1c-5.266-10.4-7.933-23.4-14-33c0.347-2.759-2.871-7.022,0-9
	C113.199,214.124,111.897,223.425,117.136,226.186z"/>
<path fill-rule="evenodd" clip-rule="evenodd" fill="#404621" d="M205.136,283.186c-2.99-2.316-11.966,2.256-16-1
	c5.739-4.594,17.084-3.582,24-7c14.589,0.052,25.735-5.149,41-7c-0.627,3.786-12.763-0.002-9,5c-1.701-0.367-1.887,0.78-2,2
	C228.707,276.09,218.291,281.007,205.136,283.186z"/>
<path fill-rule="evenodd" clip-rule="evenodd" fill="#656C42" d="M101.136,301.186c6.767-6.807-4.013-14.396,0-23
	c6.748,4.011,5.775,20.767,11,23c0,0.667,0,1.333,0,2c-3,0-6,0-9,0C103.125,301.865,101.384,302.272,101.136,301.186z"/>
<path fill-rule="evenodd" clip-rule="evenodd" fill="#404621" d="M154.136,289.186c10.86-0.999,22.192-1.752,31-7
	c-2.395-0.604-4.562-1.438-8-1c0.207-3.46,7.424,0.091,7-4c-1.454-0.443,0.102-0.878,0-2c-7.932,2.97-15.229,1.07-25,0
	c0.132-10.799-10.587-10.746-10-22c2.831-0.164-0.831,6.164,2,6c0.057,0.61,0.149,1.184,1,1c3.392,3.941,6.668,7.998,8,14
	c10.631,2.626,23.831,1.133,33-3c-0.783,3.551-7.217,1.449-8,5c1.454,0.443-0.102,0.878,0,2c9.52-0.758,21.557-1.77,29-6
	c0.973,0.027,0.776,1.224,1,2c-1.163-0.162-1.779,0.221-2,1c-6.916,3.418-18.261,2.406-24,7c4.034,3.256,13.01-1.316,16,1
	c-9.814,2.52-20.708,3.959-30,7c0.19-0.81,1.003-0.997,1-2c-8.789,1.039-13.358,0.502-20,4
	C156.687,289.969,154.227,290.762,154.136,289.186z"/>
<path fill-rule="evenodd" clip-rule="evenodd" fill="#0C0F05" d="M458.136,295.186c-6.761,0.761-9.578-2.422-15-3
	c-9.638-1.994-15.831-8.267-24-9c14.964,2.264,37.78,6.846,48,10C466.956,298.732,459.865,291.187,458.136,295.186z"/>
<path fill-rule="evenodd" clip-rule="evenodd" fill="#404621" d="M436.136,292.186c-4.451-5.882-19.75-0.917-19-12
	c14.801-2.322,33.842,15.277,46,4c-0.265,3.614,4.932,4.774,3,7c2.667,0,5.333,0,8,0c0-0.667,0-1.333,0-2s0-1.333,0-2
	c3.126,2.723,1.302,5.899-3,6c1.173,3.494,3.862,5.471,4,10c-0.333,0-0.667,0-1,0c-0.725-2.275-0.892-5.108-2-7
	c-5.719,0.719-8.934-1.066-14-1c1.729-3.999,8.819,3.546,9-2c-10.22-3.154-33.036-7.736-48-10c8.169,0.733,14.362,7.006,24,9
	C440.803,292.186,438.469,292.186,436.136,292.186z"/>
<path fill-rule="evenodd" clip-rule="evenodd" fill="#A5AB7B" d="M489.136,303.186c-3.906-4.76-5.219-12.114-12-14
	c3.869-5.613-1.644-8.335-3-14c-2.898,2.965,0.384,8.233,0,12c0,0.667,0,1.333,0,2c-3.564-3.994-7.105-17.21,1-19
	c1.853,9.041,6.863,10.9,7,20c1.16,0.839,2.681,1.319,5,1c-4.711,6.594,8.213,7.904,6,12
	C491.803,303.186,490.469,303.186,489.136,303.186z"/>
<path fill-rule="evenodd" clip-rule="evenodd" fill="#656C42" d="M235.136,9.186c1.926,29.767-1.9,60.906,1,93
	C231.107,67.475,234.3,43.335,235.136,9.186z"/>
<path fill-rule="evenodd" clip-rule="evenodd" fill="#404621" d="M81.136,17.186c1.754-2.579,6.589-2.078,10-3
	c35.061,1.88,75.001-2.861,108-9c11.167-2.5,21.295-6.039,36-5c0,2.333,0,4.667,0,7c-1.667-1.333-1.553-4.447-3-6
	C183.363,10.894,131.895,16.601,81.136,17.186z"/>
<path fill-rule="evenodd" clip-rule="evenodd" fill="#656C42" d="M229.136,91.186c-3.286-28.722-2.741-44.019,0-70
	c2.347,23.025-3.443,45.201,2,68C231.124,91.992,228.408,86.805,229.136,91.186z"/>
<path fill-rule="evenodd" clip-rule="evenodd" fill="#656C42" d="M79.136,17.186c1.942,9.276-8.868,5.799-9,13
	c1.814,1.28,3.892-3.409,8-1c5.907,13.075,7.495,31.231,12,48c-3.177,5.1,1.894,6.338,2,11c-1.278,0.055-1.385,1.282-3,1
	c-1.681-5.652-4.244-10.423-7-15c-4.592-12.489-5.954-27.403-12-36c-1.843,3.937,4.013,5.193,1,7c-0.845-2.155-6.375,0.375-7-2
	c1.667,0,3.333,0,5,0c-0.556-6.444-3.455-10.545-5-16C69.264,23.98,70.814,17.197,79.136,17.186z"/>
<path fill-rule="evenodd" clip-rule="evenodd" fill="#A5AB7B" d="M129.136,121.186c-8.857-14.143-11.753-34.247-17-52
	c9.077,2.248,37.461,13.339,34-11c-1.494-1.506-5.701-0.299-5-4c3.125,1.095,3.197,1.023,3-3c0.938,5.672,4.745,6.939,3,13
	c0,0.333,0,0.667,0,1c0.075,1.742-0.223,3.11-1,4c-1.342,0.658-1.862,2.138-2,4c-1.683,7.652-13.215-0.399-19,3
	c-1.13-2.87-4.288-3.712-8-4c-0.645,4.311,4.193,3.14,4,7c-0.451,2.882-3.539,3.128-3,7c1.763,1.882,3.097-1.367,4,2
	c-2.885-0.08-2.885,7.08,0,7c4.714-1.659,4.849,2.478,8,8c-1.322,0.012-0.914,1.752-2,2c-3.208-1.126-0.136-8.531-5-8
	c-1.63,5.922,4.458,7.541,6,12c-1.556-0.08-0.693,2.908,0,1c0.485-1.182,1.066-2.267,2-3c5.276,1.504,1.487,7.044-1,6
	c5.512,1.386-2.232,3.594,0,4c1.78,0.598,4.153-2.931,5,0c-4.22,4.704,0.847,11.394,3,13c-1.118-3.548-2.862-6.471-3-11
	c2.932-2.3,4.3-0.37,6-3c-0.007,5.127-0.936,4.873-2,10c6.289-0.61,2.756,4.058,3,8c1.177-0.157,2.838,0.172,3-1
	c4.978,0.21,8.444-2.632,12-1c-6.071,0.517-11.336,5.174-17,3C135.819,131.17,133.093,125.563,129.136,121.186z"/>
<path fill-rule="evenodd" clip-rule="evenodd" fill="#F7EC66" d="M444.136,89.186c12.66-4.89,28.757-3.229,43-8
	c3.59-2.077,10.814-0.519,16-1c12.762-2.623,27.586,2.664,10,5c-2.466,2.201-7.102,2.232-8,6c-2.32-1.464,1.953-3.169-2-3
	c-4.611,0.722-5.958,4.709-12,4c3.544-7.123,16.498-4.836,22-10c-32.626-3.669-62.747,14.466-91,4c16.57,20.354,42.113,11.25,68,6
	c-20.501,11.788-64.624,13.792-75-8c0.968-5.224,6.26,0.094,8-4c0.88-3.213-3.296-1.37-3-4c2.879,1.54,7.508,3.012,7,0
	c0.198,3.135,6.542,0.125,6,4c3.495-1.401,10.009-1.003,12,2c1.303,2.196,5.405-1.183,8-1c-6.957,7.21-21.19-3.154-29-1
	c4.878-0.168,1.231,3.519,3,5c3.386-0.281,5.742-1.591,10-1C436.037,89.286,442.076,87.247,444.136,89.186z"/>
<path fill-rule="evenodd" clip-rule="evenodd" fill="#656C42" d="M567.136,96.186c-17.796-1.912-34.037-0.213-50,4
	c-0.843,4.51,2.34,4.993,3,8c2.19,2.81,6.351,3.649,7,8c-3.457-6.209-13.055-6.279-12-17c9.077-4.645,21.747-2.403,28-8
	c6.913,4.31,15.236,1.226,24,3C567.136,94.853,567.136,95.52,567.136,96.186z"/>
<path fill-rule="evenodd" clip-rule="evenodd" fill="#0C0F05" d="M404.136,219.186c2.476-2.858,7.026-3.64,10-6
	c1.111-23.223,0.498-48.169,6-67c-1.198,26.929-5.046,39.004-4,70c-5.356,0.31-5.157,6.176-9,8
	C403.987,224.669,406.387,219.601,404.136,219.186z"/>
<path fill-rule="evenodd" clip-rule="evenodd" fill="#F4E3A3" d="M265.136,149.186c21.882-0.071,27.587,25.302,19,44
	c8.013,4.987,18.607,7.393,21,18c-5.945-7.722-14.759-12.575-23-18c6.145-10.912,2.157-22.338,0-34
	C275.912,156.411,270.969,152.354,265.136,149.186z"/>
<path fill-rule="evenodd" clip-rule="evenodd" fill="#656C42" d="M229.136,267.186c-0.314,1.352-1.423,1.91-1,4
	c13.917-3.928,33.222-5.894,49-11c3.111,2.136,2.31,9.592-1,11c-0.739-3.664,2.459-5.557,0-8c-7.682,1.317-14.629,3.371-22,5
	c-15.265,1.851-26.411,7.052-41,7c0.221-0.779,0.837-1.162,2-1c5.675,0.008,9.885-1.448,11-6c-1.968-1.983-5.712-0.637-8,0
	C220.259,264.446,225.063,267.263,229.136,267.186z"/>
<path fill-rule="evenodd" clip-rule="evenodd" fill="#FCF8CE" d="M341.136,259.186c14.882,11.938-8.246,30.483-11,44
	c-13,0-26,0-39,0c-3.457-7.876-5.979-16.687-11-23c17.271-7.062,26.677-21.99,35-38
	C322.102,249.553,331.002,254.987,341.136,259.186z"/>
<path fill-rule="evenodd" clip-rule="evenodd" fill="#FCF8CE" d="M443.136,292.186c5.422,0.578,8.239,3.761,15,3
	c5.066-0.066,8.281,1.719,14,1c1.108,1.892,1.275,4.725,2,7c-15,0-30,0-45,0c-2.701-4.115-4.454-8.12-4-13
	c-2.503,0.125-3.131,1.908-4-1c6.7-0.7,8.937,3.063,15,3C438.469,292.186,440.803,292.186,443.136,292.186z"/>
<path fill-rule="evenodd" clip-rule="evenodd" fill="#0C0F05" d="M175.136,290.186c-13.458,2.209-25.127,6.206-38,9
	c-4.222-4.615,9.798-8.801,13-6c1.181-1.485,0.865-4.468,4-4c0.09,1.576,2.55,0.783,2,3c6.642-3.498,11.211-2.961,20-4
	C176.14,289.189,175.326,289.376,175.136,290.186z"/>
<path fill-rule="evenodd" clip-rule="evenodd" fill="#404621" d="M383.136,262.186c-2.648,9.932-1.967,23.803,1,37
	c1.145,2.189,7.656-0.989,6,4c-2,0-4,0-6,0c-10.079-18.648-1.651-42.596,1-60c7.786-1.547,10.282-8.385,16-12
	c-3.886,6.114-11.055,8.945-13,17C385.568,251.951,385.087,257.803,383.136,262.186z"/>
<path fill-rule="evenodd" clip-rule="evenodd" fill="#0C0F05" d="M487.136,81.186c-5.677-0.676-8.201,1.799-13,2
	c0-1.333,0-2.667,0-4c-3.773,3.227-8.151,5.849-15,6c-1.014-0.998-0.377-5.452,1-7c4.142,3.514,17.293-6.781,24-1
	c-0.213-3.212,3.566-2.434,5-4c1.483,1.184,1.556,3.777,3,5c0.116-2.551,0.188-5.145,3-5c1.889,0.111,0.694,3.306,3,3
	c0.788-8.056,17.75-4.102,16,3c-3.367,0.633-9.288-1.289-11,1C497.951,80.667,490.726,79.109,487.136,81.186z"/>
<path fill-rule="evenodd" clip-rule="evenodd" fill="#0C0F05" d="M474.136,287.186c0.384-3.767-2.898-9.035,0-12
	c1.356,5.665,6.869,8.387,3,14c6.781,1.886,8.094,9.24,12,14c-4.667,0-9.333,0-14,0c-0.138-4.529-2.827-6.506-4-10
	C475.438,293.085,477.262,289.909,474.136,287.186z"/>
</svg>
