<?xml version="1.0" encoding="utf-8"?>
<!-- Generator: Adobe Illustrator 15.0.2, SVG Export Plug-In  -->
<!DOCTYPE svg PUBLIC "-//W3C//DTD SVG 1.1//EN" "http://www.w3.org/Graphics/SVG/1.1/DTD/svg11.dtd" [
	<!ENTITY ns_flows "http://ns.adobe.com/Flows/1.0/">
]>
<svg version="1.1"
	 xmlns="http://www.w3.org/2000/svg" xmlns:xlink="http://www.w3.org/1999/xlink" xmlns:a="http://ns.adobe.com/AdobeSVGViewerExtensions/3.0/"
	 x="0px" y="0px" width="299px" height="294px" viewBox="0 0 299 294" overflow="visible" enable-background="new 0 0 299 294"
	 xml:space="preserve">
<defs>
</defs>
<path fill-rule="evenodd" clip-rule="evenodd" d="M154,65c-4.482,2.194-9.165-0.599-10-5c6.892-10.326-7.051-34.07,9-39
	c1.259-8.441-4.531-14.553-2-21c1.698,8.202,8.366,21.836-1,29C153.832,43.471,154.762,54.454,154,65z"/>
<path fill-rule="evenodd" clip-rule="evenodd" d="M124,69c-15.682-9.192-10.221-33.624-23-46c0-2,0-4,0-6
	c-1.176-4.056-12.87-7.479-8-11c2.737,3.263,6.776,5.224,10,8c-0.022,2.356,1.723,2.944,1,6c5.091,6.431,10.225,15.824,15,25
	C122.714,52.139,132.512,61.768,124,69z"/>
<path fill-rule="evenodd" clip-rule="evenodd" d="M196,81c-3.707-5.575,3.465-6.887,7-10c3.972-3.498,6.752-8.452,11-11
	c3.25-1.95,7.05-2.084,10-4c9.261-6.014,16.68-15.566,25-21c-1.087,7.333-10.528,10.327-16,17c-3.096,3.775-4.482,8.993-8,12
	c-3.008,2.572-7.765,3.282-11,6C208.812,74.358,204.783,86.105,196,81z"/>
<path fill-rule="evenodd" clip-rule="evenodd" d="M106,74c-13.462,6.355-16.014-14.332-27-17c-2.002-10.331-9.946-14.72-18-19
	c8.776-0.102,18.083,7.911,22,16C93.818,57.515,100.604,65.062,106,74z"/>
<path fill-rule="evenodd" clip-rule="evenodd" d="M78,91c-5.81,5.133-14.544-0.503-16-6c-20.853-3.813-21.658-27.675-43-31
	c9.89,0.056,19.387,1.543,27,8c3.029,2.568,3.976,7.833,7,10c3.918,2.808,10.158,2.359,14,5C71.88,80.355,74.296,87.103,78,91z"/>
<path fill-rule="evenodd" clip-rule="evenodd" d="M9,78c16.211,9.456,38.022,13.311,50,27c-13.599,4.402-26.08-8.203-33-17
	C19.225,85.775,10.738,85.262,9,78z"/>
<path fill-rule="evenodd" clip-rule="evenodd" d="M275,78c1.498,2.216-10.041-0.079-12,2c-4.495,11.738-16.159,8.307-32,14
	c-6.016,2.162-14.416,11.914-20,2c10.37-11.599,26.197-5.986,41-10C259.364,84.003,264.515,73.759,275,78z"/>
<path fill-rule="evenodd" clip-rule="evenodd" fill="#FF3333" d="M158,82c19.496,2.84,36.054,17.278,44,35
	C178.897,117.744,175.303,90.383,158,82z"/>
<path fill-rule="evenodd" clip-rule="evenodd" fill="#FF3333" d="M112,94c-8.879,33.787-36.877,48.456-50,78
	c-5.505,3.505-11.511,11.809-16,13c2.126-5.541,8.512-6.821,11-12c4.172-37.495,17.619-65.714,44-81
	C104.397,92.936,108.329,93.337,112,94z"/>
<path fill-rule="evenodd" clip-rule="evenodd" fill="#FF3333" d="M142,113c-6.859,11.569-16.611,27.479-32,31
	c-9.937,2.273-20.736-1.291-29,6c9.158-15.844,25.578-33.087,33-54C126.072,98.928,134.46,105.54,142,113z"/>
<path fill-rule="evenodd" clip-rule="evenodd" d="M298,105c-4.753,0.419-7.213-1.454-11-2c-5.444,4.442-11.809,3.06-18,4
	c-15.846,2.407-31.059,17.096-49,10c1.959-10.427,16.584-8.275,27-10c3.289-0.544,5.997-2.606,9-3c6.076-0.797,16.007,1.71,24-1
	C283.887,101.682,295.644,98.458,298,105z"/>
<path fill-rule="evenodd" clip-rule="evenodd" fill="#FF3333" d="M186,140c-1.754,2.246-6.031,1.969-9,3
	c-8.542-9.458-14.873-21.126-24-30c6.654-3.345,16.423-3.577,20-10C182.079,110.588,183.718,125.615,186,140z"/>
<path fill-rule="evenodd" clip-rule="evenodd" fill="#FF3333" d="M205,129c2.969,9.271,11.565,25.394,3,34
	C197.941,156.664,203.978,140.688,205,129z"/>
<path fill-rule="evenodd" clip-rule="evenodd" d="M284,145c-5.468,3.267-9.614-2.787-16-3c-3.979-0.133-7.727,2.809-12,3
	c-8.66,0.389-26.938-0.841-32-6c-0.282-1.615,0.945-1.722,1-3c8.221-1.09,23.343-0.773,29,4
	C266.806,138.861,276.161,141.172,284,145z"/>
<path fill-rule="evenodd" clip-rule="evenodd" fill="#FF3333" d="M186,167c-4.138-5.862-4.179-15.821-9-21
	C190.296,136.044,186.979,158.852,186,167z"/>
<path fill-rule="evenodd" clip-rule="evenodd" fill="#FF3333" d="M112,145c7.958-0.625,13.822,0.845,20,2
	c-2.121,10.721-0.79,24.128,2,33c-10.148,2.519-20.555,4.778-29,9C105.958,177.412,114.655,160.277,112,145z"/>
<path fill-rule="evenodd" clip-rule="evenodd" fill="#FF3333" d="M188,146c2.711-1.666,6.921,3.712,11,4
	c-0.416,5.918-3.61,9.057-5,14c-2.209-0.125-0.425-4.242-1-6c-1.751,2.249-2.377,5.623-4,8C185.893,160.767,191.243,152.915,188,146
	z"/>
<path fill-rule="evenodd" clip-rule="evenodd" fill="#FF3333" d="M110,146c3.56,17.376-5.208,30.682-9,44
	c-9.878,2.788-19.211,6.122-27,11c1.397-16.876,2.77-29.525,1-47C84.54,149.207,95.16,145.493,110,146z"/>
<path fill-rule="evenodd" clip-rule="evenodd" fill="#FF3333" d="M200,154c1.961,4.039,4.207,7.793,6,12
	c-5.567,4.1-10.318,9.015-16,13C191.111,172.435,197.296,162.304,200,154z"/>
<path fill-rule="evenodd" clip-rule="evenodd" fill="#FF3333" d="M72,157c3.035,5.614,1.083,15.777,2,21c-3.36,1.026-1.557-3.11-2-5
	c-11.096,10.133,0.566,37.088-14,44c-4.764-8.236-5.583-20.417-13-26C55.537,181.204,65.43,170.764,72,157z"/>
<path fill-rule="evenodd" clip-rule="evenodd" fill="#FF3333" d="M192,166c1.236,2.939-2.479,9.495-6,11
	C186.579,171.913,190.33,169.996,192,166z"/>
<path fill-rule="evenodd" clip-rule="evenodd" d="M289,185c-7.183,0.969-13.016-5.602-22-6c-9.699-0.43-20.609,3.384-28-4
	c-4.329-0.551-12.765,0.257-15-5c0-1,0-2,0-3c10.383-6.027,21.277,3.85,31,6c3.981,0.881,8.076-0.516,12,0
	C276.761,174.281,282.5,180.256,289,185z"/>
<path fill-rule="evenodd" clip-rule="evenodd" fill="#FF3333" d="M204,170c1.442,1.807,0.228,3.062,1,7
	c-4.021-0.688-5.708,0.958-9,1C198.313,174.98,202.263,173.596,204,170z"/>
<path fill-rule="evenodd" clip-rule="evenodd" fill="#FF3333" d="M73,179c1.471,2.845-0.957,10.347,0,16
	C70.141,191.813,71.726,184.249,73,179z"/>
<path fill-rule="evenodd" clip-rule="evenodd" fill="#FF3333" d="M185,182c0.047,14.521-7.947,29.282-13,42
	c-5.57-6.43-11.493-12.507-21-15C162.431,200.098,169.915,187.248,185,182z"/>
<path fill-rule="evenodd" clip-rule="evenodd" fill="#FF3333" d="M148,207c-9.232,8.768-20.026,15.974-30,24
	c-4.353-13.646-7.36-28.64-14-40c10.554-0.129,20.741-9.326,30-8C144.348,184.482,145.192,195.638,148,207z"/>
<path fill-rule="evenodd" clip-rule="evenodd" fill="#FF3333" d="M43,185c-0.809,9.198-15.635,13.026-21,21
	C21.389,195.382,38.794,194.133,43,185z"/>
<path fill-rule="evenodd" clip-rule="evenodd" fill="#FF3333" d="M169,187c0.978,5.416-13.123,12.8-18,19
	c-3.326-3.674-3.229-10.771-5-16C153.444,192.244,164.497,190.882,169,187z"/>
<path fill-rule="evenodd" clip-rule="evenodd" d="M270,206c-7.336,3.316-13.021-3.632-18-6c-11.097,0.99-22.096-3.791-30-9
	c0-1,0-2,0-3C240.953,187.083,253.954,200.686,270,206z"/>
<path fill-rule="evenodd" clip-rule="evenodd" fill="#FF3333" d="M54,221c-7.321,7.012-14.86,13.807-22,21
	c-3.546-11.121-5.249-24.085-13-31c7.131-6.869,16.477-11.523,23-19C50.309,197.357,53.865,207.468,54,221z"/>
<path fill-rule="evenodd" clip-rule="evenodd" fill="#FF3333" d="M99,193c11.431,6.902,12.773,23.894,16,39
	c-6.348,5.318-12.728,10.605-20,15c-7.309-13.691-17.122-24.878-21-42C78.914,197.58,91.139,197.473,99,193z"/>
<path fill-rule="evenodd" clip-rule="evenodd" fill="#FF3333" d="M183,200c1.579,4.754,1.193,11.474,3,16
	c-3.017,1.983-7.489,2.511-9,6C175.9,215.552,182.597,208.274,183,200z"/>
<path fill-rule="evenodd" clip-rule="evenodd" fill="#FF3333" d="M0,215c0-2,0-4,0-6c7.843-0.157,14.99-1.011,18-6
	C19.698,210.711,6.789,212.446,0,215z"/>
<path fill-rule="evenodd" clip-rule="evenodd" fill="#FF3333" d="M171,226c-3.658,11.342-8.48,21.52-16,29
	c-11.694-7.306-19.931-18.068-36-21c8.536-9.131,20.603-14.73,29-24C157.766,213.234,164.798,219.202,171,226z"/>
<path fill-rule="evenodd" clip-rule="evenodd" fill="#FF3333" d="M0,265c0-15.667,0-31.333,0-47c6.616-1.051,11.157-4.177,17-6
	c7.153,7.49,11.086,21.341,12,32C19.697,251.363,11.421,259.755,0,265z"/>
<path fill-rule="evenodd" clip-rule="evenodd" d="M262,240c-4.327,0.753-9.015-1.406-16-2c-4.438-14.562-27.391-10.609-37-20
	c0.087-4.246,2.361-6.306,7-6c6.326,10.008,27.439,5.228,28,21C246.491,238.842,257.028,236.639,262,240z"/>
<path fill-rule="evenodd" clip-rule="evenodd" fill="#FF3333" d="M64,214c2.116,2.742-0.439,9.368,1,14
	c-3.046-1.621-4.312-5.021-8-6C58.635,218.636,62.033,217.032,64,214z"/>
<path fill-rule="evenodd" clip-rule="evenodd" fill="#FF3333" d="M70,255c-5.165,5.168-11.33,9.337-18,13
	c-3.769-10.23-12.5-15.501-20-22c8.425-10.299,26.33-32.139,34-13C68.943,240.345,64.717,248.654,70,255z"/>
<path fill-rule="evenodd" clip-rule="evenodd" d="M236,275c-6.738-7.595-16.965-11.702-22-21c-10.861-0.473-13.406-9.26-20-14
	c5.259-15.788,11.914,6.972,21,6C218.937,258.729,230.877,263.457,236,275z"/>
<path fill-rule="evenodd" clip-rule="evenodd" fill="#FF3333" d="M152,257c-10.272,26.974-44.607,10.826-54-7
	c3.345-7.655,12.651-9.349,18-15C130.882,239.451,143.042,246.625,152,257z"/>
<path fill-rule="evenodd" clip-rule="evenodd" fill="#FF3333" d="M0,270c0-0.333,0-0.667,0-1c10.522-5.811,19.008-13.658,28-21
	c10.571,4.096,16.983,12.351,23,21c-8.228,8.438-22.323,11.011-26,24C18.067,283.933,11.95,274.05,0,270z"/>
<path fill-rule="evenodd" clip-rule="evenodd" fill="#FF3333" d="M70,259c3.539,4.863,9.695,9.93,18,7
	c-4.578,2.756-7.914,6.753-13,9c-6.278-1.389-9.732-5.601-17-6C60.822,264.489,66.278,262.611,70,259z"/>
<path fill-rule="evenodd" clip-rule="evenodd" fill="#FF3333" d="M47,294c-6.333,0-12.667,0-19,0c8.013-14.167,24.898-29.674,42-18
	C62.558,282.225,52.25,285.583,47,294z"/>
<path fill-rule="evenodd" clip-rule="evenodd" fill="#FF3333" d="M22,294c-7.333,0-14.667,0-22,0c0-6,0-12,0-18
	c1.165-0.168,1.086-1.581,1-3c8.964,4.702,14.441,12.893,21,20C22,293.333,22,293.667,22,294z"/>
<path fill-rule="evenodd" clip-rule="evenodd" fill="#FF3333" d="M78,294c-1,0-2,0-3,0c-1.712-3.288-5.777-4.224-5-10
	c1.44-0.56,2.44-1.56,3-3C75.662,283.947,80.141,289.479,78,294z"/>
<path fill-rule="evenodd" clip-rule="evenodd" fill="#FF3333" d="M56,294c-1.667,0-3.333,0-5,0c5.421-1.532,10.876-10.447,16-6
	C62.744,289.41,58.685,291.019,56,294z"/>
<path fill-rule="evenodd" clip-rule="evenodd" fill="#FF3333" d="M70,294c-3,0-6,0-9,0C61.281,290.99,70.596,288.998,70,294z"/>
<path fill-rule="evenodd" clip-rule="evenodd" d="M197,10c-1.602,7.739-3.174,24.154-9,31c3.679,11.867-3.099,21.587-5,28
	c-1.454,1.47-6.546,1.47-8,0C176.569,48.081,189.093,29.985,197,10z"/>
<path fill-rule="evenodd" clip-rule="evenodd" d="M0,199c11.925-3.384,19.802-5.71,30-11c7.468-3.874,21.238-11.276,24-18
	c2.841-6.917,0.515-16.224,2-23c7.837-35.748,41.333-67.634,80-70c26.875-1.645,49.068,9.791,61,23
	c23.881,26.437,20.354,67.729,5,96c-13.494,24.849-24.041,38.375-41,58c-5.28,6.109-19.043,21.706-29,22
	c-15.321,0.453-23.672-16.183-34-14c-3.362,10.468,8.516,21.83,12,32c-10.667,0-21.333,0-32,0c2.141-4.521-2.338-10.053-5-13
	c-0.56,1.44-1.56,2.44-3,3c-0.777,5.776,3.288,6.712,5,10c-1.667,0-3.333,0-5,0c0.596-5.002-8.719-3.01-9,0c-1.667,0-3.333,0-5,0
	c2.685-2.981,6.744-4.59,11-6c-5.124-4.447-10.579,4.468-16,6c-1.333,0-2.667,0-4,0c5.25-8.417,15.558-11.775,23-18
	c-17.102-11.674-33.987,3.833-42,18c-2,0-4,0-6,0c0-0.333,0-0.667,0-1c-6.559-7.107-12.036-15.298-21-20
	c0.086,1.419,0.165,2.832-1,3c0-2,0-4,0-6c11.95,4.05,18.067,13.933,25,23c3.677-12.989,17.772-15.562,26-24
	c-6.017-8.649-12.429-16.904-23-21c-8.992,7.342-17.478,15.189-28,21c0-1.333,0-2.667,0-4c11.421-5.245,19.697-13.637,29-21
	c-0.914-10.659-4.847-24.51-12-32c-5.843,1.823-10.384,4.949-17,6c0-1,0-2,0-3c6.789-2.554,19.698-4.289,18-12
	c-3.01,4.989-10.157,5.843-18,6C0,205.667,0,202.333,0,199z M196,186c-2.092,4.151-5.414,14.621-1,19c3.374-5.959,7.266-11.4,9-19
	C201.333,186,198.667,186,196,186z M151,82c-10.209,4.791-22.131,7.869-32,13c9.003,3.664,16.66,8.674,23,15
	c3.866-0.134,3.944-4.056,7-5c3.872,10.496,19.918,0.717,24-4c-4.913-27.276-48.886-23.397-67-10
	C124.333,95.738,137.353,81.879,151,82z M202,117c-7.946-17.722-24.504-32.16-44-35C175.303,90.383,178.897,117.744,202,117z
	 M101,92c-26.381,15.286-39.828,43.505-44,81c-2.488,5.179-8.874,6.459-11,12c4.489-1.191,10.495-9.495,16-13
	c13.123-29.544,41.121-44.213,50-78C108.329,93.337,104.397,92.936,101,92z M114,96c-7.422,20.913-23.842,38.156-33,54
	c8.264-7.291,19.063-3.727,29-6c15.389-3.521,25.141-19.431,32-31C134.46,105.54,126.072,98.928,114,96z M173,103
	c-3.577,6.423-13.346,6.655-20,10c9.127,8.874,15.458,20.542,24,30c2.969-1.031,7.246-0.754,9-3
	C183.718,125.615,182.079,110.588,173,103z M200,147c2.516-10.571,3.664-18.817,2-28c-10.539,0.863-16.776-7.878-22-9
	C189.571,119.428,180.736,147.264,200,147z M209,128c-4.51-10.173-0.631,8.683,3,16C211.12,136.444,210.911,132.312,209,128z
	 M118,144c2.513-1.468,9.614,1.019,14,1c0.823-6.857,4.921-15.728,5-20C132.594,132.601,120.857,138.182,118,144z M208,163
	c8.565-8.606-0.031-24.729-3-34C203.978,140.688,197.941,156.664,208,163z M150,139c-13.156,20.598,8.769,50.246,25,29
	C168.964,156.036,161.718,145.282,150,139z M177,146c4.821,5.179,4.862,15.138,9,21C186.979,158.852,190.296,136.044,177,146z
	 M105,189c8.445-4.222,18.852-6.481,29-9c-2.79-8.872-4.121-22.279-2-33c-6.178-1.155-12.042-2.625-20-2
	C114.655,160.277,105.958,177.412,105,189z M189,166c1.623-2.377,2.249-5.751,4-8c0.575,1.758-1.209,5.875,1,6
	c1.39-4.943,4.584-8.082,5-14c-4.079-0.288-8.289-5.666-11-4C191.243,152.915,185.893,160.767,189,166z M75,154
	c1.77,17.475,0.397,30.124-1,47c7.789-4.878,17.122-8.212,27-11c3.792-13.318,12.56-26.624,9-44C95.16,145.493,84.54,149.207,75,154
	z M190,179c5.682-3.985,10.433-8.9,16-13c-1.793-4.207-4.039-7.961-6-12C197.296,162.304,191.111,172.435,190,179z M45,191
	c7.417,5.583,8.236,17.764,13,26c14.566-6.912,2.904-33.867,14-44c0.443,1.89-1.36,6.026,2,5c-0.917-5.223,1.035-15.386-2-21
	C65.43,170.764,55.537,181.204,45,191z M211,162c-3.191,2.988-6.78,10.979-3,15C208.669,172.749,212.854,162.198,211,162z M186,177
	c3.521-1.505,7.236-8.061,6-11C190.33,169.996,186.579,171.913,186,177z M196,178c3.292-0.042,4.979-1.688,9-1
	c-0.772-3.938,0.442-5.193-1-7C202.263,173.596,198.313,174.98,196,178z M176,183c2.025-2.013,8.667-4.615,6-8
	C181.069,177.768,174.246,184.077,176,183z M73,195c-0.957-5.653,1.471-13.155,0-16C71.726,184.249,70.141,191.813,73,195z M151,209
	c9.507,2.493,15.43,8.57,21,15c5.053-12.718,13.047-27.479,13-42C169.915,187.248,162.431,200.098,151,209z M134,183
	c-9.259-1.326-19.446,7.871-30,8c6.64,11.36,9.647,26.354,14,40c9.974-8.026,20.768-15.232,30-24
	C145.192,195.638,144.348,184.482,134,183z M22,206c5.365-7.974,20.191-11.802,21-21C38.794,194.133,21.389,195.382,22,206z
	 M146,190c1.771,5.229,1.674,12.326,5,16c4.877-6.2,18.978-13.584,18-19C164.497,190.882,153.444,192.244,146,190z M42,192
	c-6.523,7.477-15.869,12.131-23,19c7.751,6.915,9.454,19.879,13,31c7.14-7.193,14.679-13.988,22-21
	C53.865,207.468,50.309,197.357,42,192z M74,205c3.878,17.122,13.691,28.309,21,42c7.272-4.395,13.652-9.682,20-15
	c-3.227-15.106-4.569-32.098-16-39C91.139,197.473,78.914,197.58,74,205z M177,222c1.511-3.489,5.983-4.017,9-6
	c-1.807-4.526-1.421-11.246-3-16C182.597,208.274,175.9,215.552,177,222z M148,210c-8.397,9.27-20.464,14.869-29,24
	c16.069,2.932,24.306,13.694,36,21c7.52-7.48,12.342-17.658,16-29C164.798,219.202,157.766,213.234,148,210z M57,222
	c3.688,0.979,4.954,4.379,8,6c-1.439-4.632,1.116-11.258-1-14C62.033,217.032,58.635,218.636,57,222z M168,242
	c5.03-8.309,16.129-15.864,18-24C176.259,221.598,168.677,232.67,168,242z M66,233c-7.67-19.139-25.575,2.701-34,13
	c7.5,6.499,16.231,11.77,20,22c6.67-3.663,12.835-7.832,18-13C64.717,248.654,68.943,240.345,66,233z M116,235
	c-5.349,5.651-14.655,7.345-18,15c9.393,17.826,43.728,33.974,54,7C143.042,246.625,130.882,239.451,116,235z M58,269
	c7.268,0.399,10.722,4.611,17,6c5.086-2.247,8.422-6.244,13-9c-8.305,2.93-14.461-2.137-18-7C66.278,262.611,60.822,264.489,58,269z
	"/>
<path fill-rule="evenodd" clip-rule="evenodd" fill="#FF3333" d="M106,91c18.114-13.397,62.087-17.276,67,10
	c-4.082,4.717-20.128,14.496-24,4c-3.056,0.944-3.134,4.866-7,5c-6.34-6.326-13.997-11.336-23-15c9.869-5.131,21.791-8.209,32-13
	C137.353,81.879,124.333,95.738,106,91z"/>
<path fill-rule="evenodd" clip-rule="evenodd" fill="#FF3333" d="M180,110c5.224,1.122,11.461,9.863,22,9
	c1.664,9.183,0.516,17.429-2,28C180.736,147.264,189.571,119.428,180,110z"/>
<path fill-rule="evenodd" clip-rule="evenodd" fill="#FF3333" d="M212,144c-3.631-7.317-7.51-26.173-3-16
	C210.911,132.312,211.12,136.444,212,144z"/>
<path fill-rule="evenodd" clip-rule="evenodd" fill="#FF3333" d="M137,125c-0.079,4.272-4.177,13.143-5,20
	c-4.386,0.019-11.487-2.468-14-1C120.857,138.182,132.594,132.601,137,125z"/>
<path fill-rule="evenodd" clip-rule="evenodd" fill="#FFFFFF" d="M175,168c-16.231,21.246-38.156-8.402-25-29
	C161.718,145.282,168.964,156.036,175,168z"/>
<path fill-rule="evenodd" clip-rule="evenodd" fill="#FF3333" d="M208,177c-3.78-4.021-0.191-12.012,3-15
	C212.854,162.198,208.669,172.749,208,177z"/>
<path fill-rule="evenodd" clip-rule="evenodd" fill="#FF3333" d="M182,175c2.667,3.385-3.975,5.987-6,8
	C174.246,184.077,181.069,177.768,182,175z"/>
<path fill-rule="evenodd" clip-rule="evenodd" fill="#FF3333" d="M186,218c-1.871,8.136-12.97,15.691-18,24
	C168.677,232.67,176.259,221.598,186,218z"/>
<path fill-rule="evenodd" clip-rule="evenodd" fill="#FFFFFF" d="M204,186c-1.734,7.6-5.626,13.041-9,19
	c-4.414-4.379-1.092-14.849,1-19C198.667,186,201.333,186,204,186z"/>
</svg>
